<svg xmlns="http://www.w3.org/2000/svg" viewBox="0 0 662 710.74"><title>estadisticasRecurso 7</title><g id="Capa_2" data-name="Capa 2"><g id="Capa_1-2" data-name="Capa 1"><ellipse cx="411.22" cy="669.94" rx="250.78" ry="26.46" style="fill:#740a51"/><path d="M141.47,651.9c0,3-22.93,5.4-51.22,5.4S39,654.89,39,651.9s22.94-5.4,51.23-5.4S141.47,648.92,141.47,651.9Z" style="fill:#740a51"/><path d="M211.67,705.33c0,3-22.93,5.41-51.22,5.41s-51.22-2.42-51.22-5.41,22.93-5.4,51.22-5.4S211.67,702.35,211.67,705.33Z" style="fill:#740a51"/><path d="M260.59,610.61s67.66-41.7,75.61-76.85c5.79-25.61,5.79-70,5.79-70L335.41,356s54.52,18,67.06,0c0,0,2.64,142.22-34.06,201.86s-102.82,72.26-102.82,72.26S256,625.52,260.59,610.61Z" style="fill:#740a51"/><path d="M260.59,610.61s-20.64,1.16-23.7,7.85,5.35,23.5,3.82,33.44,1.53,22.94,19.88,22.94,14.59-13.76,5-15.29,0-29.44,0-29.44S256.77,622.08,260.59,610.61Z" style="fill:#272526"/><path d="M367.86,34.08s-53.54-2.3-64.43,44.35,18.15,75.69,51.72,84.11l66.25-91S474.49,42.49,435.69,5C404.16-15.62,367.86,34.08,367.86,34.08Z" style="fill:#272526"/><path d="M421.4,71.54s20,43.59,12.7,75.7-56.26,37.47-56.26,37.47-4.54,9.18,0,22.94c0,0-20.84,4.66-22.69-14.53a73.49,73.49,0,0,0,0-30.58S324.3,145,339.73,122.77c11.79-14.52,19,0,19,0S392.36,109,389.64,61.6C389.64,61.6,410.51,73.07,421.4,71.54Z" style="fill:#ffc1af"/><polygon points="448 306.31 480.27 240.72 485.43 243.59 458.19 301.51 448 306.31" style="fill:#740a51"/><path d="M341,330s-9.67,31-24.58,42.13c0,0,.58,5.61,15.42,17.66,0,0,28.65-34.06,35.8-50Z" style="fill:#fa0"/><path d="M377.84,207.65s43,48.94,24.63,148.34c0,0-4.9,17.58-67.06,0,0,0,8.38-14,4.84-31.09s21-121.15,21-121.15S367.42,209.27,377.84,207.65Z" style="fill:#fff"/><path d="M409.35,100.36a35.28,35.28,0,0,0,3.4,2.83,14.13,14.13,0,0,0,3.33,1.81,5.22,5.22,0,0,0,.87.29l.44.16c.15,0,.31,0,.46.09l.95.22c.32,0,.65.08,1,.14a5.8,5.8,0,0,0,1,.12c.35,0,.72.07,1.09.13a18.81,18.81,0,0,1,2.35.23,10.19,10.19,0,0,1-2,1.46c-.36.17-.74.34-1.13.48a5,5,0,0,1-1.2.36,9,9,0,0,1-5.13-.38,8.6,8.6,0,0,1-4.07-3.21A7.49,7.49,0,0,1,409.35,100.36Z" style="fill:#dea096"/><path d="M431,107.33s4.59,9.56,10.71,13.38.38,12.24-3.82,11.47l-4.21-.76Z" style="fill:#dea096"/><path d="M335.41,356s-14,31,7.8,60.79S518.77,610.61,540.52,651.9c0,0,16-5.73,18.31-20.64,0,0-160.87-232.35-156.36-275.27C402.32,354.78,397.28,374.16,335.41,356Z" style="fill:#850d63"/><path d="M540.52,651.9s8,13,14.11,17.59,45.11-26.76,52-39.38-6.11-14.91-19.11-7.27-22.18,17.89-28.68,8.42C558.83,631.26,555.47,646.55,540.52,651.9Z" style="fill:#272526"/><path d="M426,312.31s9.69-7.51,14.87-11.71,10.34-6.46,12-4.2-4.53,9.37-4.53,9.37S464.14,286.7,466.73,287s9.37,7.12,0,22.63S434,331.31,434,331.31,425,319.42,426,312.31Z" style="fill:#ffc1af"/><path d="M318.2,376s-6.15,3.7-9.5,13.84-16.72-2.5-20.93,0-1.14,14.35,8.41,17.79,21.41,4.21,24.09,0,11.53-17.79,11.53-17.79S320,379.78,318.2,376Z" style="fill:#ffc1af"/><path d="M367.6,114.55s-4.5,29.82,3.62,41.29,45.39-2.29,48.26-11.47,16.16-9.64,16.16-9.64,5.63,1,4.49,9.07.57,56.78-48.75,56.2c-27.53-3.44-34.8-42.63-32.6-77.23C358.78,122.77,364.53,119.39,367.6,114.55Z" style="fill:#272526"/><path d="M166.16,706.7s38.15-41.58,48.91-66.52-6.84-29.35-15.65-16.14-24.94,43-29.34,7.34,1.46-43.53-3.92-47.93S153.94,582,149.05,599.1s-22,20.54-26.42,4.4S107,551.65,90.84,553.61s.49,27.88,0,42.55-13.69,12.23-24-1S21.39,541.23,5.74,553.53s6.36,28.45,0,44.1S.36,638.79,30.2,629,58.07,647,59.54,651.92s8.81,21.52,27.39,13.2,28.86-4.4,22,2.45-19.07,14.18-12.72,18.1,30.82-8.81,41.09-2,14.18,23,14.18,23Z" style="fill:#00baba"/><path d="M19.44,589.31c6.64,5,13.36,9.77,20.28,14.29s13.91,8.91,21.15,12.8l2.72,1.45,2.76,1.36c1.84.94,3.67,1.75,5.57,2.52,3.79,1.54,7.69,2.86,11.6,4.14,7.84,2.56,15.77,5,23.64,7.62a204.22,204.22,0,0,1,23.21,9.24A86,86,0,0,1,141.29,649a41.2,41.2,0,0,1,9.38,8.61,25.54,25.54,0,0,1,3.31,5.56c.2.5.36,1,.54,1.54a10.72,10.72,0,0,1,.46,1.56,29.2,29.2,0,0,1,.54,3.17q.76,6.18,1.28,12.38c.3,4.14.52,8.29.59,12.44a84.46,84.46,0,0,1-.52,12.42,153.5,153.5,0,0,0-1.5-24.71q-.76-6.15-1.75-12.26c-.13-1.05-.4-2-.61-2.93a7.87,7.87,0,0,0-.45-1.4c-.18-.45-.33-.92-.52-1.37a24.15,24.15,0,0,0-3.16-5,41.23,41.23,0,0,0-9-7.89,83.82,83.82,0,0,0-10.67-5.91,206.32,206.32,0,0,0-22.95-9c-7.8-2.68-15.71-5.1-23.57-7.78-3.93-1.35-7.85-2.75-11.71-4.39-1.92-.82-3.87-1.71-5.69-2.7l-2.77-1.46-2.71-1.55A227.1,227.1,0,0,1,38.9,604.77c-3.34-2.46-6.64-5-9.89-7.53S22.55,592.05,19.44,589.31Z" style="fill:#008987"/><path d="M355.15,193.12s-33.73-5.35-39.09,37.47,4.52,143.75,119.63,100.93c0,0-9.52-11.47-8.75-21.41,0,0-74.94,19.12-72.64-35.94,1.52-39,2.47-52.83,14.7-66.79C369,207.38,356,203.31,355.15,193.12Z" style="fill:#fa0"/></g></g></svg>