<svg xmlns="http://www.w3.org/2000/svg" viewBox="0 0 268.31 326.09"><title>Recurso 6</title><g id="Capa_2" data-name="Capa 2"><g id="Capa_1-2" data-name="Capa 1"><path d="M11,307H7.83V278.67H.75v-2.93H18.09v2.93H11Z" style="fill:#fff"/><path d="M11.71,307.78H7.08V279.42H0V275H18.84v4.43H11.71Zm-3.13-1.5h1.63V277.92h7.13v-1.43H1.5v1.43H8.58Z" style="fill:#fff"/><path d="M44,300.89a11.91,11.91,0,0,1-11.31,6.67A12.41,12.41,0,0,1,24,304a11.54,11.54,0,0,1-3.71-8.51,11.38,11.38,0,0,1,3.59-8.62,12.52,12.52,0,0,1,8.83-3.71,12.34,12.34,0,0,1,6.83,1.92,10.84,10.84,0,0,1,4.32,4.72l.44,1h-3.5a8.89,8.89,0,0,0-8-4.59,8.84,8.84,0,0,0-6.43,2.6,8.58,8.58,0,0,0-3,6.55,9.24,9.24,0,0,0,9.32,9.16,9,9,0,0,0,8.09-4.36h3.5Z" style="fill:#fff"/><path d="M32.79,308.31h-.14a13.18,13.18,0,0,1-9.22-3.75,12.63,12.63,0,0,1-.13-18.21,13.44,13.44,0,0,1,16.59-1.89,11.52,11.52,0,0,1,4.6,5.05l.91,2.07H40.33l-.22-.37A8.13,8.13,0,0,0,32.76,287h-.15a8.14,8.14,0,0,0-5.75,2.41,7.9,7.9,0,0,0-2.73,6,8.48,8.48,0,0,0,8.56,8.41,8.29,8.29,0,0,0,7.47-4l.22-.35h5.1l-.85,1.8A12.65,12.65,0,0,1,32.79,308.31Zm.08-24.38h-.2a11.68,11.68,0,0,0-8.32,3.5A10.62,10.62,0,0,0,21,295.5a10.86,10.86,0,0,0,3.47,8,11.66,11.66,0,0,0,8.21,3.33,11,11,0,0,0,10.41-5.87H41.2a9.79,9.79,0,0,1-8.49,4.36,10,10,0,0,1-10.08-9.91,9.34,9.34,0,0,1,3.21-7.1,9.5,9.5,0,0,1,7-2.8,9.6,9.6,0,0,1,8.38,4.59H43.1a10,10,0,0,0-4-4.35A11.75,11.75,0,0,0,32.87,283.93Z" style="fill:#fff"/><path d="M66.11,304.1a11.22,11.22,0,0,1-8.63,3.46,11.36,11.36,0,0,1-8.22-3.66,11.81,11.81,0,0,1-3.34-8.43,12,12,0,0,1,3.63-8.71,11.11,11.11,0,0,1,8.62-3.5A11.45,11.45,0,0,1,66.39,287a12.14,12.14,0,0,1-.28,17.09Zm-8.59.41A8,8,0,0,0,64,301.86a9,9,0,0,0,2.65-6.67A9.24,9.24,0,0,0,64,288.92a8,8,0,0,0-6-2.6,8.39,8.39,0,0,0-6.31,2.6,8.74,8.74,0,0,0-2.64,6.31,9,9,0,0,0,2.4,6.43A8.25,8.25,0,0,0,57.52,304.51Z" style="fill:#fff"/><path d="M58,308.32h-.49a12.09,12.09,0,0,1-8.74-3.9,13,13,0,0,1,.3-18.18,11.87,11.87,0,0,1,9.18-3.72,12.23,12.23,0,0,1,8.74,4,12.89,12.89,0,0,1-.3,18.13h0A11.93,11.93,0,0,1,58,308.32ZM57.71,284a10.38,10.38,0,0,0-7.63,3.28,11.2,11.2,0,0,0-3.41,8.18,11,11,0,0,0,3.14,7.91,10.63,10.63,0,0,0,7.69,3.43,10.48,10.48,0,0,0,8.08-3.24h0a11.4,11.4,0,0,0,.27-16.05,10.77,10.77,0,0,0-7.7-3.51ZM58,305.27h-.5a9,9,0,0,1-6.59-3.1,9.76,9.76,0,0,1-2.59-6.94,9.45,9.45,0,0,1,2.86-6.83A9.14,9.14,0,0,1,58,285.57a8.79,8.79,0,0,1,6.56,2.83,10.08,10.08,0,0,1,2.85,6.76,9.79,9.79,0,0,1-2.85,7.22A8.72,8.72,0,0,1,58,305.27Zm-.13-18.2a7.66,7.66,0,0,0-5.63,2.38,8,8,0,0,0-2.42,5.79,8.18,8.18,0,0,0,2.2,5.91,7.54,7.54,0,0,0,5.54,2.61h0a7.3,7.3,0,0,0,5.93-2.41,8.33,8.33,0,0,0,2.44-6.15,8.44,8.44,0,0,0-2.44-5.76A7.4,7.4,0,0,0,57.86,287.07Z" style="fill:#fff"/><path d="M106.28,307h-3.22V292.79a7.17,7.17,0,0,0-1.54-4.6,5,5,0,0,0-4.07-1.91A6.58,6.58,0,0,0,93,287.94a5.37,5.37,0,0,0-1.83,4.16V307H87.92V292.1a5.27,5.27,0,0,0-1.87-4.16,6.38,6.38,0,0,0-4.39-1.66,4.94,4.94,0,0,0-4,1.91,7,7,0,0,0-1.51,4.6V307H72.91V293.15a9.75,9.75,0,0,1,2.48-7,9,9,0,0,1,6.1-2.8c3.38-.29,6.07,1.18,8.06,4.31,2-3.13,4.68-4.6,8.06-4.31a9.15,9.15,0,0,1,6.14,2.8,9.78,9.78,0,0,1,2.53,7Z" style="fill:#fff"/><path d="M107,307.78h-4.72v-15a6.37,6.37,0,0,0-1.38-4.13A4.26,4.26,0,0,0,97.45,287a5.78,5.78,0,0,0-4,1.48,4.61,4.61,0,0,0-1.57,3.59v15.68H87.17V292.1a4.5,4.5,0,0,0-1.61-3.59,5.59,5.59,0,0,0-3.9-1.48,4.18,4.18,0,0,0-3.45,1.63,6.33,6.33,0,0,0-1.34,4.13v15H72.16V293.15a10.45,10.45,0,0,1,2.69-7.51,9.71,9.71,0,0,1,6.58-3,8.77,8.77,0,0,1,8.12,3.74,8.76,8.76,0,0,1,8.12-3.74,10,10,0,0,1,6.63,3,10.47,10.47,0,0,1,2.73,7.51Zm-3.22-1.5h1.72V293.15a9,9,0,0,0-2.32-6.48,8.41,8.41,0,0,0-5.66-2.58c-3.08-.25-5.5,1-7.37,4l-.63,1-.63-1c-1.87-2.93-4.27-4.23-7.36-4a8.18,8.18,0,0,0-5.62,2.57,9,9,0,0,0-2.28,6.49v13.13h1.71V292.79A7.76,7.76,0,0,1,77,287.72a5.67,5.67,0,0,1,4.62-2.19,7.08,7.08,0,0,1,4.89,1.86,6,6,0,0,1,2.12,4.71v14.18h1.76V292.1a6.08,6.08,0,0,1,2.08-4.71,7.31,7.31,0,0,1,4.94-1.86,5.77,5.77,0,0,1,4.65,2.19,7.83,7.83,0,0,1,1.71,5.07Z" style="fill:#fff"/><path d="M112.67,315.17h-3V295.43a11.84,11.84,0,0,1,3.62-8.63,11.71,11.71,0,0,1,16.85.17,11.83,11.83,0,0,1,3.37,8.42,12.08,12.08,0,0,1-3.62,8.75,11.22,11.22,0,0,1-8.63,3.46,11.65,11.65,0,0,1-8.58-4.11Zm9.24-28.81a8.14,8.14,0,0,0-6.56,2.64,9.17,9.17,0,0,0-2.6,6.68,9,9,0,0,0,2.6,6.26,8.12,8.12,0,0,0,6.11,2.61,8.53,8.53,0,0,0,6.27-2.61,8.75,8.75,0,0,0,2.68-6.3,8.92,8.92,0,0,0-2.44-6.39A8.25,8.25,0,0,0,121.91,286.36Z" style="fill:#e78f25"/><path d="M113.42,315.92h-4.51V295.43a12.55,12.55,0,0,1,3.84-9.16,12.45,12.45,0,0,1,17.92.18,12.61,12.61,0,0,1,3.58,8.94,12.85,12.85,0,0,1-3.83,9.28,12,12,0,0,1-9.19,3.68,12.24,12.24,0,0,1-7.81-3.06Zm-3-1.5h1.51v-12.9l1.31,1.47a10.82,10.82,0,0,0,8,3.86,10.48,10.48,0,0,0,8.07-3.24,11.35,11.35,0,0,0,3.4-8.22,11.13,11.13,0,0,0-3.17-7.91,11,11,0,0,0-15.77-.15,11.11,11.11,0,0,0-3.4,8.1Zm11-9.12a8.88,8.88,0,0,1-6.65-2.84,10.08,10.08,0,0,1,0-14,8.81,8.81,0,0,1,7.13-2.88,9.08,9.08,0,0,1,6.58,3.13,9.67,9.67,0,0,1,2.64,6.91,9.57,9.57,0,0,1-2.9,6.82A9.31,9.31,0,0,1,121.46,305.3Zm0-18.2a7.34,7.34,0,0,0-5.54,2.42,8.4,8.4,0,0,0-2.4,6.14,8.24,8.24,0,0,0,2.4,5.77,7.34,7.34,0,0,0,5.56,2.37,7.76,7.76,0,0,0,5.74-2.39,8,8,0,0,0,2.46-5.79,8.18,8.18,0,0,0-2.24-5.87,7.56,7.56,0,0,0-5.54-2.64h-.44Z" style="fill:#e78f25"/><path d="M139.53,307h-3.26v-23.2h2.89v3.3a6.83,6.83,0,0,1,2.89-2.89,7.15,7.15,0,0,1,3.58-.85v3.09a5.68,5.68,0,0,0-3.5,1.18,8.62,8.62,0,0,0-1.83,1.91,7,7,0,0,0-.77,3.58Z" style="fill:#fff"/><path d="M140.28,307.78h-4.76v-24.7h4.39v1.79a8.56,8.56,0,0,1,1.78-1.29,7.89,7.89,0,0,1,4-.94l.72,0v4.55l-.73,0a4.83,4.83,0,0,0-3,1,7.35,7.35,0,0,0-1.67,1.73,6.28,6.28,0,0,0-.66,3.18Zm-3.26-1.5h1.76V293.15a7.7,7.7,0,0,1,.88-4,9,9,0,0,1,2-2.11,6.08,6.08,0,0,1,3.22-1.3v-1.63a6.76,6.76,0,0,0-2.48.76,6,6,0,0,0-2.57,2.56l-1.42,2.75v-5.64H137Z" style="fill:#fff"/><path d="M171.84,307h-3v-3.62a11.32,11.32,0,0,1-9.28,4.15,11.47,11.47,0,0,1-8.18-3.7,12.23,12.23,0,0,1,.25-17.14,11.1,11.1,0,0,1,8.66-3.46,11.67,11.67,0,0,1,8.31,3.75,11.06,11.06,0,0,1,3.25,8.38V307Zm-20.71-11.84a9,9,0,0,0,2.4,6.43,8.51,8.51,0,0,0,6.06,2.89,8.11,8.11,0,0,0,6.51-2.65,9.32,9.32,0,0,0,0-13,8,8,0,0,0-6.06-2.6,8.54,8.54,0,0,0-6.31,2.6A8.74,8.74,0,0,0,151.13,295.19Z" style="fill:#fff"/><path d="M160,308.32h-.46a12.26,12.26,0,0,1-8.7-3.94,13,13,0,0,1,.26-18.18,11.86,11.86,0,0,1,9.22-3.68,12.45,12.45,0,0,1,8.82,4,11.82,11.82,0,0,1,3.46,8.93v12.36h-4.51v-2.55A11.81,11.81,0,0,1,160,308.32Zm-.2-24.31a10.25,10.25,0,0,0-7.64,3.24,11.47,11.47,0,0,0-.23,16.09,10.66,10.66,0,0,0,7.66,3.47,10.4,10.4,0,0,0,8.68-3.9l1.32-1.5v4.87h1.51V295.39a10.36,10.36,0,0,0-3-7.86,10.86,10.86,0,0,0-7.79-3.52Zm.26,21.26h-.49a9.31,9.31,0,0,1-6.59-3.14,9.74,9.74,0,0,1-2.59-6.94,9.44,9.44,0,0,1,2.86-6.83,9.24,9.24,0,0,1,6.84-2.82,8.83,8.83,0,0,1,6.61,2.83,9.78,9.78,0,0,1,2.81,6.77,10,10,0,0,1-2.85,7.25A8.87,8.87,0,0,1,160.05,305.27Zm0-18.24a7.83,7.83,0,0,0-5.78,2.38,8,8,0,0,0-2.42,5.79h0a8.18,8.18,0,0,0,2.2,5.91,7.75,7.75,0,0,0,5.55,2.65,7.34,7.34,0,0,0,5.93-2.42,8.33,8.33,0,0,0,2.44-6.18,8.2,8.2,0,0,0-2.4-5.76A7.26,7.26,0,0,0,160.08,287Z" style="fill:#fff"/><path d="M178.19,307.44H175.1V302h3.09Z" style="fill:#fff"/><path d="M178.94,308.19h-4.59v-6.91h4.59Zm-3.09-1.5h1.59v-3.91h-1.59Z" style="fill:#fff"/><path d="M205.25,300.89a11.9,11.9,0,0,1-11.31,6.67,12.41,12.41,0,0,1-8.71-3.54,11.9,11.9,0,0,1-.12-17.13,12.68,12.68,0,0,1,15.67-1.79,10.81,10.81,0,0,1,4.31,4.72l.45,1H202a9.24,9.24,0,0,0-14.41-2,8.61,8.61,0,0,0-3,6.55,9.25,9.25,0,0,0,9.32,9.16,9.06,9.06,0,0,0,8.1-4.36h3.5Z" style="fill:#fff"/><path d="M194.08,308.31h-.14a13.18,13.18,0,0,1-9.22-3.75,12.65,12.65,0,0,1-.14-18.21,13.44,13.44,0,0,1,16.59-1.89,11.48,11.48,0,0,1,4.61,5.05l.91,2.07h-5.08l-.22-.37a8.11,8.11,0,0,0-7.34-4.22h-.15a8.13,8.13,0,0,0-5.75,2.41,7.88,7.88,0,0,0-2.74,6A8.5,8.5,0,0,0,194,303.8a8.31,8.31,0,0,0,7.48-4l.22-.35h5.09l-.84,1.8A12.65,12.65,0,0,1,194.08,308.31Zm.07-24.38H194a11.68,11.68,0,0,0-8.32,3.5,10.62,10.62,0,0,0-3.35,8.07,10.86,10.86,0,0,0,3.47,8,11.63,11.63,0,0,0,8.2,3.33h.14a11,11,0,0,0,10.27-5.87h-1.87a9.81,9.81,0,0,1-8.5,4.36h-.18a9.57,9.57,0,0,1-6.9-2.86,9.69,9.69,0,0,1-3-7.05,9.31,9.31,0,0,1,3.22-7.1,10,10,0,0,1,15.33,1.79h1.93a10.1,10.1,0,0,0-4-4.35A11.79,11.79,0,0,0,194.15,283.93Z" style="fill:#fff"/><path d="M227.39,304.1a11.21,11.21,0,0,1-8.62,3.46,11.34,11.34,0,0,1-8.22-3.66,11.81,11.81,0,0,1-3.34-8.43,11.94,11.94,0,0,1,3.62-8.71,11.12,11.12,0,0,1,8.63-3.5,11.49,11.49,0,0,1,8.22,3.75,12.13,12.13,0,0,1-.29,17.09Zm-8.58.41a8,8,0,0,0,6.51-2.65,9,9,0,0,0,2.64-6.67,9.23,9.23,0,0,0-2.64-6.27,8,8,0,0,0-6-2.6,8.38,8.38,0,0,0-6.31,2.6,8.75,8.75,0,0,0-2.65,6.31,9,9,0,0,0,2.4,6.43A8.27,8.27,0,0,0,218.81,304.51Z" style="fill:#0b9a96"/><path d="M219.24,308.32h-.5a12.11,12.11,0,0,1-8.74-3.9,13,13,0,0,1,.3-18.18,11.89,11.89,0,0,1,9.19-3.72,12.23,12.23,0,0,1,8.74,4,12.87,12.87,0,0,1-.31,18.13h0A11.9,11.9,0,0,1,219.24,308.32ZM219,284a10.38,10.38,0,0,0-7.63,3.28,11.16,11.16,0,0,0-3.41,8.18,11,11,0,0,0,3.13,7.91,10.67,10.67,0,0,0,7.7,3.43,10.48,10.48,0,0,0,8.07-3.24h0a11,11,0,0,0,3.45-8.14,11.18,11.18,0,0,0-3.17-7.91,10.8,10.8,0,0,0-7.71-3.51Zm.27,21.26h-.49a9,9,0,0,1-6.59-3.1,9.77,9.77,0,0,1-2.6-6.94,9.46,9.46,0,0,1,2.87-6.83,9.15,9.15,0,0,1,6.68-2.83h.17a8.75,8.75,0,0,1,6.55,2.83,10,10,0,0,1,2.85,6.76,9.71,9.71,0,0,1-2.85,7.22A8.7,8.7,0,0,1,219.27,305.27Zm-.12-18.2a7.63,7.63,0,0,0-5.63,2.38,8,8,0,0,0-2.43,5.79,8.19,8.19,0,0,0,2.21,5.91,7.53,7.53,0,0,0,5.53,2.61h0a7.3,7.3,0,0,0,5.93-2.41,8.29,8.29,0,0,0,2.44-6.15,8.43,8.43,0,0,0-2.43-5.76A7.39,7.39,0,0,0,219.15,287.07Z" style="fill:#0b9a96"/><path d="M267.56,307h-3.21V292.79a7.12,7.12,0,0,0-1.55-4.6,5,5,0,0,0-4.07-1.91,6.55,6.55,0,0,0-4.43,1.66,5.38,5.38,0,0,0-1.84,4.16V307h-3.25V292.1a5.27,5.27,0,0,0-1.87-4.16,6.4,6.4,0,0,0-4.4-1.66,4.94,4.94,0,0,0-4,1.91,7.07,7.07,0,0,0-1.5,4.6V307h-3.22V293.15a9.79,9.79,0,0,1,2.48-7,9,9,0,0,1,6.11-2.8c3.38-.29,6.06,1.18,8.06,4.31,2-3.13,4.68-4.6,8-4.31a9.17,9.17,0,0,1,6.15,2.8,9.77,9.77,0,0,1,2.52,7Z" style="fill:#fff"/><path d="M268.31,307.78H263.6v-15a6.43,6.43,0,0,0-1.38-4.13,4.3,4.3,0,0,0-3.49-1.63,5.74,5.74,0,0,0-3.94,1.48,4.58,4.58,0,0,0-1.58,3.59v15.68h-4.75V292.1a4.51,4.51,0,0,0-1.62-3.59,5.57,5.57,0,0,0-3.9-1.48,4.16,4.16,0,0,0-3.44,1.63,6.33,6.33,0,0,0-1.34,4.13v15h-4.72V293.15a10.5,10.5,0,0,1,2.69-7.51,9.73,9.73,0,0,1,6.59-3,8.77,8.77,0,0,1,8.12,3.74A8.76,8.76,0,0,1,259,282.6a10,10,0,0,1,6.62,3,10.47,10.47,0,0,1,2.73,7.51Zm-3.21-1.5h1.71V293.15a9.06,9.06,0,0,0-2.31-6.48,8.43,8.43,0,0,0-5.67-2.58c-3.07-.25-5.49,1-7.36,4l-.63,1-.64-1c-1.86-2.93-4.26-4.23-7.36-4a8.2,8.2,0,0,0-5.62,2.57,9.07,9.07,0,0,0-2.28,6.49v13.13h1.72V292.79a7.71,7.71,0,0,1,1.67-5.07,5.64,5.64,0,0,1,4.61-2.19,7.08,7.08,0,0,1,4.9,1.86A6,6,0,0,1,250,292.1v14.18h1.75V292.1a6.08,6.08,0,0,1,2.08-4.71,7.31,7.31,0,0,1,4.94-1.86,5.75,5.75,0,0,1,4.65,2.19,7.84,7.84,0,0,1,1.72,5.07Z" style="fill:#fff"/><circle cx="135.83" cy="125" r="125" style="fill:#b33d90"/><path d="M141.73,59.31l-75,19.57,32.74,34.31-1.16,62.1-4.25,13.06,59.63,60.38s34.89-3.18,65.14-30.26c33.55-30,39.31-67.51,39.31-67.51L213,104,176.45,93.81Z" style="fill:#8e126d;fill-rule:evenodd"/><circle cx="135.41" cy="124.88" r="95" style="fill:none"/><path d="M66.72,59.31h75V78.88H114.25V188.35H94.05V78.88H66.72" style="fill:#fff"/><path d="M203.29,125.84l-1.19-2.06c-6-10.38-14.95-15.56-27.37-15.85-8.19-.17-15.35,2.75-21.93,8.95-6.87,6.4-10.19,13.7-10.19,22.34a29.66,29.66,0,0,0,9.45,22.16,30.15,30.15,0,0,0,22.41,9.13c12.56-.19,21.68-5,27.87-14.88l1.21-1.93h22.32l-4.13,8.77C211.69,181,196,190.4,175.15,190.4h-.75A51.76,51.76,0,0,1,138,175.59a48.42,48.42,0,0,1-15.57-35.78c-.23-14.08,4.87-26.32,15.14-36.37a52.34,52.34,0,0,1,36.83-15.39,52.92,52.92,0,0,1,28.62,8c8.42,5.24,14.55,12,18.24,20l4.3,9.78" style="fill:#fff"/><path d="M139,316.54V315h-1.78v-2.71h-1.66v8.55c0,1.24.54,2.72,3.14,2.72h.3v-1.47h-.3c-1,0-1.48-.44-1.48-1.42v-4.09Z" style="fill:#fff"/><path d="M145.08,315v4.86a2.08,2.08,0,0,1-4.16,0V315h-1.66v4.73a3.82,3.82,0,0,0,1.06,2.74,3.61,3.61,0,0,0,2.68,1.1,3.57,3.57,0,0,0,2.68-1.1,3.8,3.8,0,0,0,1.06-2.74V315Z" style="fill:#0b9a96"/><path d="M165,315.85a3.47,3.47,0,0,0-2.26-1A3,3,0,0,0,160,316a3,3,0,0,0-2.72-1.22,3.33,3.33,0,0,0-2.24,1,3.56,3.56,0,0,0-.92,2.55v5h1.69v-5.08a2,2,0,0,1,.44-1.35,1.35,1.35,0,0,1,1.11-.52,1.8,1.8,0,0,1,1.27.48,1.44,1.44,0,0,1,.52,1.16v5.31h1.7v-5.31a1.5,1.5,0,0,1,.51-1.16,1.88,1.88,0,0,1,1.29-.48,1.4,1.4,0,0,1,1.13.52,2.15,2.15,0,0,1,.45,1.35v5.08h1.68v-5A3.56,3.56,0,0,0,165,315.85Z" style="fill:#fff"/><path d="M175.05,319a4,4,0,0,0-1.19-2.83,4.31,4.31,0,0,0-2.9-1.37,4.09,4.09,0,0,0-3.25,1.26,4.24,4.24,0,0,0-1.32,3.22,4.3,4.3,0,0,0,1.35,3.07,4.21,4.21,0,0,0,3,1.24h.06a4.4,4.4,0,0,0,2.48-.81,4.23,4.23,0,0,0,1.58-2.14l.14-.4h-1.72l-.09.17a2.44,2.44,0,0,1-2.36,1.53,2.68,2.68,0,0,1-1.85-.67,2.49,2.49,0,0,1-.84-1.4h6.93Zm-1.73-.7h-5.16A2.51,2.51,0,0,1,169,317a2.57,2.57,0,0,1,1.77-.6,2.65,2.65,0,0,1,2.55,1.84Z" style="fill:#fff"/><path d="M176.24,323.05a2,2,0,0,1-.1.83.54.54,0,0,1-.49.27l-.28,0v1.68l.65-.12a2.32,2.32,0,0,0,1.42-.78,2.51,2.51,0,0,0,.46-1.72V315h-1.66Z" style="fill:#fff"/><rect x="176.24" y="312.24" width="1.69" height="2.45" style="fill:#fff"/><path d="M185.84,316.14a4.13,4.13,0,0,0-3-1.35,4,4,0,0,0-3.11,1.26,4.41,4.41,0,0,0-.11,6.16,4.13,4.13,0,0,0,3,1.33h.17a4.06,4.06,0,0,0,3-1.25,4.38,4.38,0,0,0,.1-6.15Zm-3.08.28a2.31,2.31,0,0,1,1.84.78,2.78,2.78,0,0,1,.81,1.89,2.73,2.73,0,0,1-.81,2,2.4,2.4,0,0,1-1.94.79h0a2.43,2.43,0,0,1-1.81-.85,2.72,2.72,0,0,1-.73-1.95,2.61,2.61,0,0,1,.8-1.9A2.5,2.5,0,0,1,182.76,316.42Z" style="fill:#e78f25"/><path d="M190.86,314.83a2.65,2.65,0,0,0-1.36.32,2.68,2.68,0,0,0-.52.36V315H187.4v8.38h1.71v-5a2.13,2.13,0,0,1,.21-1,2.72,2.72,0,0,1,.55-.56,1.54,1.54,0,0,1,1-.33h.3v-1.62Z" style="fill:#fff"/><path d="M205.56,316.12a4.09,4.09,0,0,0-2.95-1.32,4.14,4.14,0,0,0-3.14,1.26,4.32,4.32,0,0,0-1.3,3.16v6.87h1.62v-3.5a4.21,4.21,0,0,0,2.56,1,4.15,4.15,0,0,0,3.12-1.25,4.38,4.38,0,0,0,1.3-3.15A4.3,4.3,0,0,0,205.56,316.12Zm-3.13,5.8a2.43,2.43,0,0,1-1.83-.78,2.85,2.85,0,0,1,0-3.92,2.44,2.44,0,0,1,1.82-.79h.15a2.53,2.53,0,0,1,1.82.87,2.68,2.68,0,0,1,.73,1.93,2.59,2.59,0,0,1-.81,1.9A2.52,2.52,0,0,1,202.43,321.92Z" style="fill:#fff"/><path d="M210.53,314.83a2.66,2.66,0,0,0-1.35.32,2.41,2.41,0,0,0-.52.36V315h-1.58v8.38h1.7v-5a2,2,0,0,1,.22-1,2.55,2.55,0,0,1,.54-.56,1.57,1.57,0,0,1,1-.33h.3v-1.62Z" style="fill:#fff"/><path d="M218.41,316.14a4.15,4.15,0,0,0-3-1.35,4,4,0,0,0-3.12,1.26,4.3,4.3,0,0,0-1.3,3.13,4.25,4.25,0,0,0,1.2,3,4.11,4.11,0,0,0,3,1.33h.17a4,4,0,0,0,2.94-1.25,4.37,4.37,0,0,0,.11-6.15Zm-3.08.28a2.32,2.32,0,0,1,1.84.78,2.79,2.79,0,0,1,0,3.91,2.41,2.41,0,0,1-1.94.79h0a2.47,2.47,0,0,1-1.82-.85,2.72,2.72,0,0,1-.72-1.95,2.61,2.61,0,0,1,.8-1.9A2.48,2.48,0,0,1,215.33,316.42Z" style="fill:#fff"/><polygon points="226.52 314.98 224.09 320.89 221.65 314.98 219.9 314.98 223.34 323.36 224.83 323.36 228.33 314.98 226.52 314.98" style="fill:#fff"/><path d="M237.09,319a4,4,0,0,0-1.19-2.83,4.31,4.31,0,0,0-2.9-1.37,4.09,4.09,0,0,0-3.25,1.26,4.24,4.24,0,0,0-1.32,3.22,4.3,4.3,0,0,0,1.35,3.07,4.21,4.21,0,0,0,3,1.24h.06a4.4,4.4,0,0,0,2.48-.81,4.23,4.23,0,0,0,1.58-2.14l.14-.4H235.3l-.09.17a2.44,2.44,0,0,1-2.36,1.53,2.65,2.65,0,0,1-1.85-.67,2.55,2.55,0,0,1-.84-1.4h6.93Zm-1.73-.7H230.2A2.51,2.51,0,0,1,231,317a2.69,2.69,0,0,1,1.72-.6h.05a2.65,2.65,0,0,1,2.55,1.84Z" style="fill:#fff"/><path d="M246.05,319a4,4,0,0,0-1.18-2.83,4.32,4.32,0,0,0-2.91-1.37,4.1,4.1,0,0,0-3.24,1.26,4.2,4.2,0,0,0-1.32,3.22,4.26,4.26,0,0,0,1.35,3.07,4.19,4.19,0,0,0,3,1.24h.06a4.36,4.36,0,0,0,2.47-.81,4.19,4.19,0,0,0,1.59-2.14l.14-.4h-1.73l-.08.17a2.46,2.46,0,0,1-2.36,1.53,2.69,2.69,0,0,1-1.86-.67,2.53,2.53,0,0,1-.83-1.4h6.92Zm-1.72-.7h-5.17a2.67,2.67,0,0,1,2.62-1.84,2.65,2.65,0,0,1,2.55,1.84Z" style="fill:#fff"/><path d="M253.48,312.29v3.49a4.2,4.2,0,0,0-5.66.31,4.42,4.42,0,0,0-.1,6.16,4.09,4.09,0,0,0,3,1.33h.17a4.18,4.18,0,0,0,3-1.25,4.12,4.12,0,0,0,1.29-3.13v-6.91Zm-2.67,4.17a2.38,2.38,0,0,1,1.86.78,2.81,2.81,0,0,1,0,3.91,2.43,2.43,0,0,1-1.95.79h0a2.45,2.45,0,0,1-1.82-.85,2.75,2.75,0,0,1-.74-1.95,2.65,2.65,0,0,1,.8-1.9A2.53,2.53,0,0,1,250.81,316.46Z" style="fill:#fff"/><path d="M263,316.14a4.11,4.11,0,0,0-3-1.35,4,4,0,0,0-3.12,1.26,4.42,4.42,0,0,0-.1,6.16,4.09,4.09,0,0,0,3,1.33h.17a4,4,0,0,0,2.95-1.25,4.32,4.32,0,0,0,1.32-3.12A4.26,4.26,0,0,0,263,316.14Zm-3.08.28a2.35,2.35,0,0,1,1.85.78,2.82,2.82,0,0,1,.8,1.89,2.76,2.76,0,0,1-.8,2,2.42,2.42,0,0,1-1.95.79h0a2.45,2.45,0,0,1-1.82-.85,2.67,2.67,0,0,1-.72-1.95,2.65,2.65,0,0,1,.79-1.9A2.5,2.5,0,0,1,259.91,316.42Z" style="fill:#0b9a96"/><path d="M268,314.83a2.67,2.67,0,0,0-1.36.32,2.34,2.34,0,0,0-.51.36V315h-1.58v8.38h1.7v-5a2.13,2.13,0,0,1,.21-1,3.06,3.06,0,0,1,.55-.56,1.55,1.55,0,0,1,1-.33h.29v-1.62Z" style="fill:#fff"/></g></g></svg>