<svg xmlns="http://www.w3.org/2000/svg" viewBox="0 0 1144.78 259.51"><title>Recurso 5</title><g id="Capa_2" data-name="Capa 2"><g id="Capa_1-2" data-name="Capa 1"><circle cx="125" cy="125" r="125" style="fill:#b33d90"/><path d="M130.91,59.31l-75,19.57L88.63,113.2l-1.15,62.09-4.26,13.06,59.63,60.39s34.9-3.19,65.15-30.27c33.55-30,39.3-67.51,39.3-67.51L202.16,104,165.63,93.81Z" style="fill:#8e126d;fill-rule:evenodd"/><circle cx="124.58" cy="124.88" r="95" style="fill:none"/><path d="M55.89,59.31h75V78.88H103.42V188.35H83.22V78.88H55.89" style="fill:#fff"/><path d="M192.47,125.84l-1.2-2.06c-6-10.38-14.94-15.56-27.36-15.85-8.19-.17-15.36,2.75-21.94,8.95-6.86,6.4-10.19,13.7-10.19,22.34a29.67,29.67,0,0,0,9.46,22.16,30.15,30.15,0,0,0,22.41,9.13c12.55-.18,21.67-5,27.86-14.87l1.22-1.93h22.32l-4.13,8.77c-10,18.53-25.72,27.92-46.59,27.92h-.75a51.81,51.81,0,0,1-36.43-14.81,48.42,48.42,0,0,1-15.57-35.78c-.22-14.07,4.87-26.32,15.15-36.37a52.33,52.33,0,0,1,36.82-15.39,52.87,52.87,0,0,1,28.62,8c8.43,5.24,14.56,12,18.24,20l4.3,9.77" style="fill:#fff"/><path d="M355.88,104a47.77,47.77,0,0,0-34.25-15.61c-13.89-.49-26,4.41-36,14.57a51.09,51.09,0,0,0-1.17,71.22,47.34,47.34,0,0,0,34.23,15.27l1.94,0c13,0,24.45-4.85,34-14.44,10.1-10.09,15.21-22.22,15.21-36A49.37,49.37,0,0,0,355.88,104Zm-4,34.09a32.6,32.6,0,0,1-9.57,24.09,28.44,28.44,0,0,1-23.22,9.44h-.05a29.47,29.47,0,0,1-21.68-10.2,32.16,32.16,0,0,1-8.64-23.17,31.41,31.41,0,0,1,9.5-22.68c6.29-6.29,13.49-9.35,22.06-9.35a28.93,28.93,0,0,1,22.05,9.3A33.06,33.06,0,0,1,351.91,138.07Z" style="fill:#303030"/><path d="M502.22,100.61c-6.7-7-15.44-11.06-26-11.91-13-1.08-23.62,3.85-31.82,14.68-8.19-10.84-18.91-15.77-31.8-14.68-10.6.86-19.29,4.87-25.81,11.9-7,7.33-10.53,17.24-10.53,29.45v57.3h18.47V128.62c0-6.51,1.72-11.8,5.25-16.18a16.37,16.37,0,0,1,13.49-6.39,21.88,21.88,0,0,1,15.29,5.81,17.65,17.65,0,0,1,6.33,14v61.44h18.63V125.91a18,18,0,0,1,6.16-14,22.63,22.63,0,0,1,15.45-5.81A16.75,16.75,0,0,1,489,112.44a25.1,25.1,0,0,1,5.41,16.18v58.73h18.47v-57.3C512.92,118,509.32,108,502.22,100.61Z" style="fill:#303030"/><path d="M605.54,103.8a47.14,47.14,0,0,0-34.06-15.27c-13.84-.5-26,4.4-36.15,14.57-10,10-15.05,22.06-15.05,35.88v80.26H538V177.59a48,48,0,0,0,30.6,12c13.85.51,25.91-4.35,36-14.43a50.3,50.3,0,0,0,15-36.34A49.37,49.37,0,0,0,605.54,103.8Zm-3.95,35.93a31.41,31.41,0,0,1-9.66,22.68,30.37,30.37,0,0,1-22.47,9.34,28.69,28.69,0,0,1-21.79-9.29,32.17,32.17,0,0,1-9.39-22.57,33,33,0,0,1,9.38-24.07c6.11-6.38,13.23-9.5,21.7-9.5.57,0,1.14,0,1.71,0h0c8.5.29,15.59,3.68,21.68,10.37A31.93,31.93,0,0,1,601.59,139.73Z" style="fill:#e78f25"/><path d="M664.26,88.85a31,31,0,0,0-15.54,3.71,32.41,32.41,0,0,0-7,5.06v-7H624.56v96.75h18.63v-57.3c0-5.45.85-9.55,2.59-12.49.8-1.3,2.58-3.52,6.53-6.76,3-2.49,7.06-3.82,11.93-4l2.86-.08V89Z" style="fill:#303030"/><path d="M756.21,104a48.64,48.64,0,0,0-34.54-15.59,46.56,46.56,0,0,0-36.15,14.41,50.88,50.88,0,0,0-1,71.22,48,48,0,0,0,34.08,15.43l1.82,0a46.31,46.31,0,0,0,31.69-12.08v10h17.68V138.93C770.28,125.57,765.71,113.79,756.21,104Zm-4.43,34a32.7,32.7,0,0,1-9.55,24.23c-6.5,6.8-14.14,9.88-23.23,9.46a30.23,30.23,0,0,1-21.73-10.37,32,32,0,0,1-8.64-23.16h0a31.33,31.33,0,0,1,9.5-22.68,30.55,30.55,0,0,1,22.63-9.34,28.51,28.51,0,0,1,21.63,9.29A32.13,32.13,0,0,1,751.78,137.91Z" style="fill:#303030"/><rect x="776.66" y="161.87" width="17.99" height="27.08" style="fill:#303030"/><path d="M883.68,154.69l-.87,1.38c-6.54,10.41-16.11,15.54-29.28,15.68a31.6,31.6,0,0,1-23.55-9.5c-6.71-6.72-10-14.38-10-23.43s3.59-17,10.7-23.52c6.76-6.34,14.14-9.42,22.53-9.42h.59c13,.29,22.39,5.71,28.78,16.57l.85,1.44h19.89l-3.57-8.12c-3.51-7.86-9.4-14.33-18-19.8a52.21,52.21,0,0,0-28.36-7.93c-13.94.17-26.25,5.33-36.62,15.36a49.53,49.53,0,0,0,.51,71.34,51.84,51.84,0,0,0,36.12,14.68H854c20.83,0,36.43-9.31,46.37-27.69l3.31-7.05Z" style="fill:#303030"/><path d="M987.74,104a47.77,47.77,0,0,0-34.25-15.61c-13.88-.49-26,4.41-36,14.57a51.09,51.09,0,0,0-1.17,71.22,47.34,47.34,0,0,0,34.23,15.27l1.94,0c13,0,24.45-4.85,34-14.44,10.09-10.09,15.21-22.22,15.21-36A49.37,49.37,0,0,0,987.74,104Zm-4,34.09a32.6,32.6,0,0,1-9.57,24.09A28.51,28.51,0,0,1,951,171.6h-.05a29.47,29.47,0,0,1-21.68-10.2,32.16,32.16,0,0,1-8.64-23.17,31.41,31.41,0,0,1,9.5-22.68c6.29-6.29,13.49-9.35,22.06-9.35a28.89,28.89,0,0,1,22.05,9.3A33.06,33.06,0,0,1,983.77,138.07Z" style="fill:#0b9a96"/><path d="M1134.08,100.61c-6.7-7-15.44-11.06-25.95-11.91-13-1.08-23.62,3.85-31.82,14.68-8.19-10.84-18.9-15.77-31.8-14.68-10.6.86-19.29,4.87-25.81,11.9-7,7.33-10.53,17.24-10.53,29.45v57.3h18.47V128.62c0-6.51,1.72-11.8,5.25-16.18a16.37,16.37,0,0,1,13.49-6.39,21.88,21.88,0,0,1,15.29,5.81,17.65,17.65,0,0,1,6.33,14v61.44h18.63V125.91a18,18,0,0,1,6.16-14,22.63,22.63,0,0,1,15.45-5.81,16.75,16.75,0,0,1,13.66,6.39,25.15,25.15,0,0,1,5.41,16.18v58.73h18.47v-57.3C1144.78,118,1141.18,108,1134.08,100.61Z" style="fill:#303030"/><path d="M638,222.12v-6.19h-7V205.3h-6.51v33.52c0,4.86,2.13,10.65,12.31,10.65H638v-5.76H636.8c-4,0-5.8-1.72-5.8-5.58v-16Z" style="fill:#303030"/><path d="M662,216v19a8.15,8.15,0,0,1-16.3,0V216h-6.51v18.56a14.91,14.91,0,0,0,4.14,10.72,14.16,14.16,0,0,0,10.52,4.32,14,14,0,0,0,10.47-4.32,14.74,14.74,0,0,0,4.19-10.72V216Z" style="fill:#0b9a96"/><path d="M739.88,219.4a13.27,13.27,0,0,0-8.84-4.05,11.73,11.73,0,0,0-10.68,4.78,11.57,11.57,0,0,0-10.67-4.78,13,13,0,0,0-8.78,4.05,14,14,0,0,0-3.59,10v19.42h6.61V228.94a8.1,8.1,0,0,1,1.71-5.29,5.29,5.29,0,0,1,4.36-2.06,7.12,7.12,0,0,1,5,1.89,5.69,5.69,0,0,1,2,4.55v20.8h6.66V228a5.8,5.8,0,0,1,2-4.55,7.36,7.36,0,0,1,5-1.89,5.4,5.4,0,0,1,4.41,2.06,8.19,8.19,0,0,1,1.76,5.29v19.89h6.62V229.41A14,14,0,0,0,739.88,219.4Z" style="fill:#303030"/><path d="M779.39,231.6a15.79,15.79,0,0,0-4.66-11.08,17,17,0,0,0-11.37-5.39,16.08,16.08,0,0,0-12.72,4.94,17.14,17.14,0,0,0,.11,24.63,16.4,16.4,0,0,0,11.7,4.88h.22a17,17,0,0,0,9.7-3.16,16.63,16.63,0,0,0,6.2-8.39l.55-1.58h-6.76l-.32.68a9.64,9.64,0,0,1-9.25,6,10.45,10.45,0,0,1-7.27-2.66,9.85,9.85,0,0,1-3.28-5.48h27.15Zm-6.76-2.74H752.38a10.42,10.42,0,0,1,10.25-7.22,10.31,10.31,0,0,1,6.78,2.44A10.44,10.44,0,0,1,772.63,228.86Z" style="fill:#303030"/><path d="M784.07,247.64c0,2.33-.32,3.07-.42,3.24a2.18,2.18,0,0,1-1.9,1.07l-1.1.09v6.6l2.54-.48a9.25,9.25,0,0,0,5.59-3.05c1.21-1.34,1.8-3.54,1.8-6.73V215.93h-6.51Z" style="fill:#303030"/><rect x="784.07" y="205.25" width="6.61" height="9.6" style="fill:#303030"/><path d="M821.67,220.53A16.29,16.29,0,0,0,810,215.24a15.7,15.7,0,0,0-12.21,4.94,17.32,17.32,0,0,0-.4,24.16A16,16,0,0,0,809,249.52h.68a15.81,15.81,0,0,0,11.54-4.9,17.14,17.14,0,0,0,.41-24.1Zm-12.07,1.1a9.19,9.19,0,0,1,7.23,3.05,10.94,10.94,0,0,1,3.14,7.43,10.72,10.72,0,0,1-3.15,7.92,9.5,9.5,0,0,1-7.62,3.1h0a9.66,9.66,0,0,1-7.12-3.35,10.58,10.58,0,0,1-2.84-7.62,10.31,10.31,0,0,1,3.12-7.45A9.82,9.82,0,0,1,809.6,221.63Z" style="fill:#e78f25"/><path d="M841.33,215.4a10.44,10.44,0,0,0-5.32,1.27,11.44,11.44,0,0,0-2,1.41V216H827.8v32.85h6.66V229.41a8,8,0,0,1,.84-4.07,10,10,0,0,1,2.14-2.21,6.27,6.27,0,0,1,3.88-1.28l1.16,0v-6.38Z" style="fill:#303030"/><path d="M898.92,220.47a16.55,16.55,0,0,0-23.84-.23,16.84,16.84,0,0,0-5.1,12.38v26.89h6.35V245.8a16.49,16.49,0,0,0,22.25-1.12,17,17,0,0,0,5.1-12.32A16.76,16.76,0,0,0,898.92,220.47Zm-12.25,22.71a9.42,9.42,0,0,1-7.15-3.05,10.61,10.61,0,0,1-3.09-7.42,10.87,10.87,0,0,1,3.09-7.92,9.48,9.48,0,0,1,7.12-3.12l.56,0h0a9.7,9.7,0,0,1,7.12,3.4,10.5,10.5,0,0,1,2.9,7.56,10.35,10.35,0,0,1-3.18,7.46A10,10,0,0,1,886.67,243.18Z" style="fill:#303030"/><path d="M918.42,215.4a10.37,10.37,0,0,0-5.31,1.27,11.09,11.09,0,0,0-2,1.41V216h-6.19v32.85h6.67V229.41a8,8,0,0,1,.84-4.07,9.71,9.71,0,0,1,2.14-2.21,6.26,6.26,0,0,1,3.87-1.28l1.17,0v-6.38Z" style="fill:#303030"/><path d="M949.27,220.53a16.25,16.25,0,0,0-11.62-5.29,15.62,15.62,0,0,0-12.22,4.94,17.34,17.34,0,0,0-.39,24.16,16,16,0,0,0,11.61,5.18h.67a15.85,15.85,0,0,0,11.55-4.9,17.15,17.15,0,0,0,.4-24.1Zm-12.07,1.1a9.21,9.21,0,0,1,7.23,3.05,10.85,10.85,0,0,1,3.14,7.43,10.68,10.68,0,0,1-3.14,7.92,9.57,9.57,0,0,1-7.62,3.1h0a9.69,9.69,0,0,1-7.12-3.35,10.58,10.58,0,0,1-2.84-7.62,10.31,10.31,0,0,1,3.12-7.45A9.83,9.83,0,0,1,937.2,221.63Z" style="fill:#303030"/><polygon points="981.07 215.98 971.55 239.15 961.99 215.98 955.14 215.98 968.62 248.83 974.44 248.83 988.15 215.98 981.07 215.98" style="fill:#303030"/><path d="M1022.47,231.6a15.79,15.79,0,0,0-4.66-11.08,17,17,0,0,0-11.37-5.39,16.08,16.08,0,0,0-12.72,4.94,17.13,17.13,0,0,0,.12,24.63,16.37,16.37,0,0,0,11.69,4.88h.22a17,17,0,0,0,9.7-3.16,16.71,16.71,0,0,0,6.21-8.39l.54-1.58h-6.76l-.32.68a9.63,9.63,0,0,1-9.25,6,10.3,10.3,0,0,1-7.27-2.66,9.91,9.91,0,0,1-3.28-5.48h27.15Zm-6.76-2.74H995.47a10.09,10.09,0,0,1,3.31-4.87,10.51,10.51,0,0,1,6.72-2.36h.21a10.43,10.43,0,0,1,10,7.22Z" style="fill:#303030"/><path d="M1057.6,231.6a15.75,15.75,0,0,0-4.66-11.08,17,17,0,0,0-11.37-5.39,16.16,16.16,0,0,0-12.72,4.94,17.13,17.13,0,0,0,.12,24.63,16.37,16.37,0,0,0,11.69,4.88h.22a17,17,0,0,0,9.7-3.16,16.71,16.71,0,0,0,6.21-8.39l.54-1.58h-6.75l-.33.68a9.64,9.64,0,0,1-9.25,6,10.35,10.35,0,0,1-7.27-2.66,9.91,9.91,0,0,1-3.28-5.48h27.15Zm-6.75-2.74H1030.6a10.39,10.39,0,0,1,10.24-7.22,10.31,10.31,0,0,1,6.78,2.44A10.43,10.43,0,0,1,1050.85,228.86Z" style="fill:#303030"/><path d="M1086.71,205.46v13.69a16.11,16.11,0,0,0-10-3.75,15.86,15.86,0,0,0-12.22,4.94,17.34,17.34,0,0,0-.39,24.16,16.09,16.09,0,0,0,11.61,5.19h.65a16.39,16.39,0,0,0,11.67-4.9,16.1,16.1,0,0,0,5.06-12.25V205.46Zm-10.48,16.33a9.48,9.48,0,0,1,7.29,3.05,10.68,10.68,0,0,1,3.08,7.45,10.44,10.44,0,0,1-3.09,7.9,9.56,9.56,0,0,1-7.62,3.1h0a9.69,9.69,0,0,1-7.12-3.35,10.69,10.69,0,0,1-2.89-7.62,10.35,10.35,0,0,1,3.12-7.46A10,10,0,0,1,1076.23,221.79Z" style="fill:#303030"/><path d="M1124,220.53a16.25,16.25,0,0,0-11.62-5.29,15.7,15.7,0,0,0-12.21,4.94,17.32,17.32,0,0,0-.4,24.16,16,16,0,0,0,11.61,5.18h.67a15.84,15.84,0,0,0,11.55-4.9,17.13,17.13,0,0,0,.4-24.1Zm-12.06,1.1a9.36,9.36,0,0,1,7.23,3.05,10.94,10.94,0,0,1,3.14,7.43,10.72,10.72,0,0,1-3.15,7.92,9.5,9.5,0,0,1-7.62,3.1h0a9.66,9.66,0,0,1-7.12-3.35,10.58,10.58,0,0,1-2.84-7.62,10.23,10.23,0,0,1,3.12-7.45A9.8,9.8,0,0,1,1111.9,221.63Z" style="fill:#0b9a96"/><path d="M1143.62,215.4a10.33,10.33,0,0,0-5.31,1.27,11.09,11.09,0,0,0-2,1.41V216h-6.18v32.85h6.66V229.41a8,8,0,0,1,.84-4.07,9.71,9.71,0,0,1,2.14-2.21,6.26,6.26,0,0,1,3.87-1.28l1.17,0v-6.38Z" style="fill:#303030"/></g></g></svg>