<svg xmlns="http://www.w3.org/2000/svg" viewBox="0 0 1144.78 257.59"><title>Recurso 2</title><g id="Capa_2" data-name="Capa 2"><g id="Capa_1-2" data-name="Capa 1"><circle cx="125" cy="125" r="125" style="fill:#b33d90"/><path d="M130.91,59.31l-75,19.57,32.74,34.31-1.16,62.1-4.25,13.06,59.63,60.38s34.9-3.18,65.15-30.26c33.55-30,39.3-67.51,39.3-67.51L202.15,104,165.63,93.81Z" style="fill:#8e126d;fill-rule:evenodd"/><circle cx="124.58" cy="124.88" r="95" style="fill:none"/><path d="M55.89,59.31h75V78.88H103.42V188.35H83.22V78.88H55.89" style="fill:#fff"/><path d="M192.46,125.84l-1.19-2.06c-6-10.38-15-15.56-27.36-15.85-8.2-.17-15.36,2.75-21.94,8.95-6.86,6.4-10.19,13.7-10.19,22.34a29.64,29.64,0,0,0,9.46,22.16,30.13,30.13,0,0,0,22.4,9.13c12.56-.19,21.68-5,27.87-14.88l1.21-1.93h22.33l-4.14,8.77c-10,18.53-25.72,27.93-46.58,27.93h-.76a51.8,51.8,0,0,1-36.42-14.8,48.42,48.42,0,0,1-15.57-35.78c-.22-14.08,4.87-26.32,15.14-36.37a52.35,52.35,0,0,1,36.83-15.39,52.9,52.9,0,0,1,28.62,8c8.43,5.24,14.56,12,18.24,20l4.3,9.78" style="fill:#fff"/><path d="M352.61,172.94c-9.4,9.4-20.72,14-33.8,13.55a44.51,44.51,0,0,1-32.2-14.35,46.25,46.25,0,0,1-13.08-33A46.75,46.75,0,0,1,287.72,105c9.41-9.57,20.73-14.19,33.8-13.71A44.81,44.81,0,0,1,353.73,106,46.36,46.36,0,0,1,367,139Q367,158.59,352.61,172.94ZM319,174.53a31.24,31.24,0,0,0,25.51-10.36A35.48,35.48,0,0,0,354.84,138a36.14,36.14,0,0,0-10.36-24.55,31.27,31.27,0,0,0-23.59-10.21c-9.73-.15-17.86,3.35-24.72,10.21a34.22,34.22,0,0,0-10.36,24.71,35.22,35.22,0,0,0,9.41,25.19A32.32,32.32,0,0,0,319,174.53Z" style="fill:#303030"/><path d="M320.65,189.46c-.64,0-1.29,0-1.94,0a47.32,47.32,0,0,1-34.23-15.26,51.09,51.09,0,0,1,1.17-71.22c10-10.17,22.08-15.06,36-14.57A47.8,47.8,0,0,1,355.88,104a49.44,49.44,0,0,1,14,35c0,13.82-5.12,25.94-15.21,36h0C345.1,184.6,333.65,189.46,320.65,189.46Zm-.93-95.25c-11.45,0-21.51,4.33-29.9,12.87a43.9,43.9,0,0,0-13.35,32.06,43.1,43.1,0,0,0,12.27,31,41.69,41.69,0,0,0,30.15,13.43q18.35.63,31.64-12.69h0C359.61,161.78,364,151.36,364,139a43.74,43.74,0,0,0-12.42-31,42.1,42.1,0,0,0-30.19-13.75C320.84,94.22,320.28,94.21,319.72,94.21Zm1.07,83.3c-.64,0-1.28,0-1.94,0-10.26-.36-18.7-4.32-25.81-12.12a38.26,38.26,0,0,1-10.17-27.22,37,37,0,0,1,11.22-26.74c7.51-7.51,16.7-11.31,26.84-11.06a34.37,34.37,0,0,1,25.68,11.11,39.27,39.27,0,0,1,11.17,26.48A38.23,38.23,0,0,1,346.6,166.2,34.15,34.15,0,0,1,320.79,177.51Zm-.49-71.31c-8.56,0-15.77,3.06-22.05,9.35a31.35,31.35,0,0,0-9.5,22.68,32.08,32.08,0,0,0,8.64,23.16,29.48,29.48,0,0,0,21.68,10.21h0a28.44,28.44,0,0,0,23.22-9.44,32.61,32.61,0,0,0,9.58-24.09,33.07,33.07,0,0,0-9.56-22.57A28.93,28.93,0,0,0,320.3,106.2Z" style="fill:#303030"/><path d="M510,184.41H497.38v-55.8a28,28,0,0,0-6.06-18,19.67,19.67,0,0,0-15.95-7.49A25.6,25.6,0,0,0,458,109.64a21,21,0,0,0-7.18,16.27v58.5H438.07v-58.5a20.6,20.6,0,0,0-7.33-16.27,25,25,0,0,0-17.22-6.53,19.36,19.36,0,0,0-15.79,7.49c-4,4.94-5.89,10.84-5.89,18v55.8h-12.6V130.05c0-11.32,3.19-20.57,9.73-27.42q9.09-9.81,23.91-11c13.23-1.12,23.76,4.62,31.57,16.9,7.81-12.28,18.33-18,31.56-16.9,9.89.8,17.86,4.46,24.08,11,6.53,6.85,9.88,16.1,9.88,27.42Z" style="fill:#303030"/><path d="M512.91,187.35H494.44V128.61A25,25,0,0,0,489,112.44a16.75,16.75,0,0,0-13.66-6.39,22.61,22.61,0,0,0-15.44,5.81,17.94,17.94,0,0,0-6.17,14v61.44H435.13V125.91a17.66,17.66,0,0,0-6.32-14,21.9,21.9,0,0,0-15.29-5.81,16.38,16.38,0,0,0-13.5,6.39c-3.53,4.38-5.25,9.67-5.25,16.17v58.74H376.3v-57.3c0-12.21,3.55-22.12,10.54-29.45,6.52-7,15.21-11,25.8-11.9,12.89-1.1,23.61,3.84,31.81,14.67,8.19-10.83,18.84-15.75,31.81-14.67,10.52.85,19.25,4.85,26,11.91,7.09,7.43,10.69,17.34,10.69,29.44Zm-12.59-5.87H507V130.05c0-10.54-3-19.08-9.07-25.39-5.76-6.06-13-9.36-22.18-10.1-12-1-21.54,4.06-28.85,15.54l-2.48,3.9L442,110.1c-7.31-11.48-16.74-16.58-28.84-15.54-9.22.74-16.42,4-22,10.07-5.94,6.23-8.94,14.77-8.94,25.42v51.43h6.72V128.61c0-7.89,2.14-14.39,6.55-19.86a22.21,22.21,0,0,1,18.07-8.58,27.82,27.82,0,0,1,19.18,7.29A23.49,23.49,0,0,1,441,125.91v55.57h6.88V125.91A23.87,23.87,0,0,1,456,107.46a28.66,28.66,0,0,1,19.34-7.29,22.65,22.65,0,0,1,18.23,8.58,30.79,30.79,0,0,1,6.72,19.86Z" style="fill:#303030"/><path d="M535,216.3h-11.8V139c0-13.07,4.78-24.39,14.19-33.8,9.57-9.57,20.88-14.19,34-13.71a44.11,44.11,0,0,1,32,14.35,46.36,46.36,0,0,1,13.23,33,47.38,47.38,0,0,1-14.18,34.28c-9.41,9.4-20.73,14-33.8,13.55-13.39-.48-24.55-5.9-33.64-16.11ZM571.2,103.43c-10-.48-18.49,2.86-25.67,10.36a35.93,35.93,0,0,0-10.2,26.14,35.27,35.27,0,0,0,10.2,24.55,31.72,31.72,0,0,0,23.92,10.21A33.35,33.35,0,0,0,594,164.48a34.37,34.37,0,0,0,10.52-24.71,35,35,0,0,0-9.57-25C588.42,107.57,580.61,103.74,571.2,103.43Z" style="fill:#e78f25"/><path d="M538,219.24H520.27V139c0-13.82,5.07-25.89,15.05-35.88C545.49,92.93,557.63,88,571.47,88.53a47.17,47.17,0,0,1,34.07,15.26,49.44,49.44,0,0,1,14,35,50.32,50.32,0,0,1-15,36.34c-10.08,10.08-22.15,14.94-36,14.42a47.93,47.93,0,0,1-30.59-12Zm-11.8-5.88h5.92V162.83l5.13,5.76c8.66,9.73,19,14.67,31.55,15.12,12.11.45,22.75-3.82,31.62-12.69a44.57,44.57,0,0,0,13.33-32.2,43.71,43.71,0,0,0-12.43-31,40.91,40.91,0,0,0-30-13.43C559,94,548.58,98.16,539.48,107.26A43.47,43.47,0,0,0,526.15,139Zm43.3-35.73a34.72,34.72,0,0,1-26.05-11.12,39.5,39.5,0,0,1,0-54.73c7.78-8.13,17-11.81,27.93-11.29,10,.34,18.7,4.47,25.81,12.28a38.11,38.11,0,0,1,10.33,27.05,37.52,37.52,0,0,1-11.39,26.74A36.46,36.46,0,0,1,569.45,177.63Zm-.09-71.31c-8.48,0-15.59,3.12-21.7,9.5a33,33,0,0,0-9.39,24.07,32.17,32.17,0,0,0,9.39,22.57,28.69,28.69,0,0,0,21.79,9.29,30.41,30.41,0,0,0,22.47-9.34,31.41,31.41,0,0,0,9.66-22.68,31.93,31.93,0,0,0-8.8-23c-6.09-6.69-13.18-10.08-21.68-10.37h0C570.49,106.33,569.92,106.32,569.36,106.32Z" style="fill:#e78f25"/><path d="M640.24,184.41H627.48V93.54H638.8v12.92a26.73,26.73,0,0,1,11.32-11.33,28,28,0,0,1,14-3.34V103.9c-5.58.16-10.2,1.76-13.71,4.63a33.07,33.07,0,0,0-7.17,7.49c-2.07,3.51-3,8.13-3,14Z" style="fill:#303030"/><path d="M643.18,187.35H624.55V90.6h17.19v7a32.41,32.41,0,0,1,7-5.06,30.84,30.84,0,0,1,15.54-3.71l2.84.1v17.81l-2.86.08c-4.87.14-8.89,1.47-11.93,4-3.95,3.24-5.73,5.46-6.53,6.76-1.74,2.94-2.59,7-2.59,12.49Zm-12.76-5.87h6.88V130.05c0-6.53,1.13-11.61,3.44-15.52a35.7,35.7,0,0,1,7.84-8.28,23.87,23.87,0,0,1,12.63-5.08V94.8a26,26,0,0,0-9.74,2.94,23.67,23.67,0,0,0-10.05,10.06l-5.55,10.77V96.48h-5.45Z" style="fill:#303030"/><path d="M766.83,184.41H755V170.22q-14.82,17-36.35,16.27a44.91,44.91,0,0,1-32-14.51,47.95,47.95,0,0,1,1-67.12,43.5,43.5,0,0,1,34-13.55A45.49,45.49,0,0,1,754.07,106c8.93,9.24,13.23,20.24,12.76,32.84v45.59ZM685.68,138a35.2,35.2,0,0,0,9.41,25.19,33.35,33.35,0,0,0,23.75,11.32c10,.48,18.49-3,25.51-10.36a35.84,35.84,0,0,0,10.36-26.31,35.29,35.29,0,0,0-10.2-24.55,31.64,31.64,0,0,0-23.76-10.2A33.48,33.48,0,0,0,696,113.31,34.24,34.24,0,0,0,685.68,138Z" style="fill:#303030"/><path d="M720.4,189.45l-1.82,0A48,48,0,0,1,684.5,174a50.88,50.88,0,0,1,1-71.22,46.56,46.56,0,0,1,36.15-14.41A48.56,48.56,0,0,1,756.2,104c9.5,9.83,14.07,21.61,13.56,35v48.42H752.09v-10A46.26,46.26,0,0,1,720.4,189.45Zm-.8-95.24c-11.71,0-21.52,4.17-29.91,12.71a45,45,0,0,0-.92,63,41.73,41.73,0,0,0,30,13.59c13.67.49,24.67-4.54,34-15.26l5.16-5.9v19.09h5.92V138.82A40.62,40.62,0,0,0,752,108a42.38,42.38,0,0,0-30.52-13.77C720.82,94.22,720.21,94.21,719.6,94.21Zm1,83.3c-.63,0-1.27,0-1.91,0a36.39,36.39,0,0,1-25.79-12.28A38.22,38.22,0,0,1,682.74,138,37,37,0,0,1,694,111.23a36.2,36.2,0,0,1,26.79-11.06,34.55,34.55,0,0,1,25.88,11.11,38.32,38.32,0,0,1,11,26.53,38.89,38.89,0,0,1-11.18,28.39C739.28,173.71,730.6,177.51,720.61,177.51Zm.14-71.46a30.55,30.55,0,0,0-22.63,9.34,31.33,31.33,0,0,0-9.5,22.68h0a32,32,0,0,0,8.64,23.16A30.23,30.23,0,0,0,719,171.6c9.09.42,16.73-2.66,23.23-9.46a32.71,32.71,0,0,0,9.55-24.23,32.17,32.17,0,0,0-9.39-22.57A28.51,28.51,0,0,0,720.75,106.05Z" style="fill:#303030"/><path d="M791.71,186H779.59v-21.2h12.12Z" style="fill:#303030"/><path d="M794.64,189h-18V161.87h18Zm-12.11-5.88h6.24V167.74h-6.24Z" style="fill:#303030"/><path d="M897.73,160.34c-9.57,17.7-24.4,26.31-44.33,26.15a48.67,48.67,0,0,1-34.11-13.87,45,45,0,0,1-14.51-33.32c-.16-13.24,4.46-24.4,14-33.8C828.53,96.09,840,91.15,853.4,91a48.69,48.69,0,0,1,26.79,7.49c7.81,5,13.55,11,16.9,18.5l1.75,4H885.13c-6.85-11.64-17.22-17.7-31.25-18-9.41-.16-17.7,3.18-25.19,10.2-7.81,7.17-11.63,15.78-11.63,25.67s3.66,18.33,10.83,25.51a34.78,34.78,0,0,0,25.67,10.36c14.19-.16,24.72-5.9,31.73-17.06H899Z" style="fill:#303030"/><path d="M854,189.43h-.57a51.82,51.82,0,0,1-36.12-14.68,49.54,49.54,0,0,1-.51-71.35c10.36-10,22.68-15.18,36.62-15.35A52.23,52.23,0,0,1,881.73,96c8.63,5.47,14.53,11.93,18,19.8l3.57,8.12H883.45l-.85-1.45c-6.39-10.85-15.81-16.27-28.78-16.56h-.59c-8.39,0-15.77,3.08-22.53,9.41-7.11,6.54-10.71,14.44-10.71,23.53s3.27,16.71,10,23.43a31.6,31.6,0,0,0,23.55,9.5c13.17-.15,22.74-5.28,29.28-15.68l.87-1.38h20l-3.31,7.05C890.38,180.11,874.77,189.43,854,189.43Zm.29-95.51h-.79c-12.58.15-23.23,4.62-32.6,13.68-9,8.83-13.29,19.19-13.13,31.65a42.34,42.34,0,0,0,13.59,31.23,45.53,45.53,0,0,0,32.13,13.06H854c18.12,0,31.32-7.53,40.26-23h-7.35c-7.58,11.16-18.77,16.9-33.28,17.06h-.7a37.57,37.57,0,0,1-27.06-11.2c-7.79-7.79-11.72-17.07-11.72-27.61,0-10.8,4.23-20.16,12.59-27.83,8.06-7.56,17-11.18,27.22-11,14.4.33,25.43,6.38,32.85,18h7.56c-3-6.69-8.18-12.28-15.72-17A46,46,0,0,0,854.24,93.92Z" style="fill:#303030"/><path d="M984.46,172.94c-9.4,9.4-20.72,14-33.8,13.55a44.51,44.51,0,0,1-32.2-14.35,46.25,46.25,0,0,1-13.08-33A46.75,46.75,0,0,1,919.57,105c9.41-9.57,20.73-14.19,33.8-13.71A44.81,44.81,0,0,1,985.58,106a46.36,46.36,0,0,1,13.23,33Q998.81,158.59,984.46,172.94Zm-33.64,1.59a31.24,31.24,0,0,0,25.51-10.36A35.48,35.48,0,0,0,986.69,138a36.14,36.14,0,0,0-10.36-24.55,31.27,31.27,0,0,0-23.59-10.21c-9.73-.15-17.86,3.35-24.72,10.21a34.22,34.22,0,0,0-10.36,24.71,35.22,35.22,0,0,0,9.41,25.19A32.32,32.32,0,0,0,950.82,174.53Z" style="fill:#0b9a96"/><path d="M952.5,189.46c-.64,0-1.29,0-1.94,0a47.32,47.32,0,0,1-34.23-15.26,51.09,51.09,0,0,1,1.17-71.22c10-10.17,22.09-15.06,36-14.57A47.8,47.8,0,0,1,987.73,104a49.44,49.44,0,0,1,14,35c0,13.82-5.12,25.94-15.21,36h0C977,184.6,965.5,189.46,952.5,189.46Zm-.93-95.25c-11.45,0-21.51,4.33-29.9,12.87a43.9,43.9,0,0,0-13.35,32.06,43.1,43.1,0,0,0,12.27,31,41.69,41.69,0,0,0,30.15,13.43q18.33.63,31.64-12.69h0c9.08-9.08,13.49-19.5,13.49-31.88a43.74,43.74,0,0,0-12.42-31,42.1,42.1,0,0,0-30.19-13.75C952.69,94.22,952.13,94.21,951.57,94.21Zm1.07,83.3c-.64,0-1.28,0-1.94,0-10.26-.36-18.7-4.32-25.81-12.12a38.26,38.26,0,0,1-10.17-27.22,37,37,0,0,1,11.22-26.74,36,36,0,0,1,26.18-11.07h.66a34.37,34.37,0,0,1,25.68,11.11,39.27,39.27,0,0,1,11.17,26.48,38.23,38.23,0,0,1-11.18,28.28A34.15,34.15,0,0,1,952.64,177.51Zm-.49-71.31c-8.56,0-15.77,3.06-22,9.35a31.35,31.35,0,0,0-9.5,22.68,32.08,32.08,0,0,0,8.64,23.16,29.48,29.48,0,0,0,21.68,10.21h0a28.5,28.5,0,0,0,23.22-9.44,32.61,32.61,0,0,0,9.58-24.09,33.07,33.07,0,0,0-9.56-22.57A28.89,28.89,0,0,0,952.15,106.2Z" style="fill:#0b9a96"/><path d="M1141.82,184.41h-12.59v-55.8a28,28,0,0,0-6.06-18,19.67,19.67,0,0,0-16-7.49,25.6,25.6,0,0,0-17.37,6.53,21,21,0,0,0-7.18,16.27v58.5h-12.75v-58.5a20.6,20.6,0,0,0-7.33-16.27,25,25,0,0,0-17.22-6.53,19.36,19.36,0,0,0-15.79,7.49c-4,4.94-5.89,10.84-5.89,18v55.8h-12.6V130.05c0-11.32,3.19-20.57,9.73-27.42q9.09-9.81,23.91-11c13.23-1.12,23.76,4.62,31.57,16.9,7.81-12.28,18.33-18,31.56-16.9,9.89.8,17.86,4.46,24.08,11,6.53,6.85,9.88,16.1,9.88,27.42Z" style="fill:#303030"/><path d="M1144.76,187.35h-18.47V128.61a25,25,0,0,0-5.41-16.17,16.75,16.75,0,0,0-13.66-6.39,22.61,22.61,0,0,0-15.44,5.81,17.94,17.94,0,0,0-6.17,14v61.44H1067V125.91a17.66,17.66,0,0,0-6.32-14,21.9,21.9,0,0,0-15.29-5.81,16.38,16.38,0,0,0-13.5,6.39c-3.53,4.38-5.25,9.67-5.25,16.17v58.74h-18.47v-57.3c0-12.21,3.55-22.12,10.54-29.45,6.52-7,15.21-11,25.8-11.9,12.9-1.1,23.61,3.84,31.81,14.67,8.19-10.83,18.85-15.75,31.81-14.67,10.52.85,19.25,4.85,26,11.91,7.09,7.43,10.69,17.34,10.69,29.44Zm-12.59-5.87h6.71V130.05c0-10.54-3.05-19.08-9.07-25.39-5.76-6.06-13-9.36-22.18-10.1-12.05-1-21.54,4.06-28.85,15.54l-2.48,3.9-2.48-3.9c-7.31-11.48-16.71-16.58-28.84-15.54-9.22.74-16.42,4-22,10.07-5.94,6.23-8.94,14.77-8.94,25.42v51.43h6.72V128.61c0-7.89,2.14-14.39,6.55-19.86a22.21,22.21,0,0,1,18.07-8.58,27.82,27.82,0,0,1,19.18,7.29,23.49,23.49,0,0,1,8.31,18.45v55.57h6.88V125.91a23.87,23.87,0,0,1,8.14-18.45,28.66,28.66,0,0,1,19.34-7.29,22.65,22.65,0,0,1,18.23,8.58,30.79,30.79,0,0,1,6.72,19.86Z" style="fill:#303030"/><path d="M634.56,248.38c-6.08,0-9.1-2.58-9.1-7.74V214.16h3.37v8.71h5.73V226h-5.73v14.09c0,3.72,1.93,5.55,5.73,5.55Z" style="fill:#303030"/><path d="M635.54,249.36h-1c-8.33,0-10.08-4.74-10.08-8.72V213.18h5.33v8.71h5.73V227h-5.73v13.11c0,3.16,1.47,4.57,4.75,4.57h1Zm-9.1-34.22v25.5c0,4.33,2.28,6.49,7.14,6.74v-.82c-3.75-.32-5.73-2.55-5.73-6.49V225h5.73v-1.15h-5.73v-8.71Z" style="fill:#303030"/><path d="M659.54,237.13a11.12,11.12,0,0,1-3.15,8.1,10.49,10.49,0,0,1-7.88,3.24,10.64,10.64,0,0,1-7.92-3.24,11.26,11.26,0,0,1-3.11-8.1V222.91h3.38v14.62a7.4,7.4,0,0,0,2.27,5.43,7.51,7.51,0,0,0,5.38,2.23,7.77,7.77,0,0,0,7.66-7.66V222.91h3.37Z" style="fill:#0b9a96"/><path d="M648.51,249.45a11.62,11.62,0,0,1-8.62-3.54,12.21,12.21,0,0,1-3.38-8.78v-15.2h5.32v15.6a6.68,6.68,0,0,0,13.36,0v-15.6h5.33v15.2a12.1,12.1,0,0,1-3.43,8.78A11.42,11.42,0,0,1,648.51,249.45Zm-10-25.56v13.24a10.33,10.33,0,0,0,2.84,7.42,9.57,9.57,0,0,0,7.21,2.94,9.4,9.4,0,0,0,7.17-2.94,10.2,10.2,0,0,0,2.88-7.42V223.89h-1.41v13.64a8.44,8.44,0,0,1-2.61,6.12,8.32,8.32,0,0,1-6,2.52,8.67,8.67,0,0,1-8.63-8.64V223.89Z" style="fill:#0b9a96"/><path d="M721,247.86h-3.46V232.54a7.66,7.66,0,0,0-1.66-4.94,5.38,5.38,0,0,0-4.38-2.06,7,7,0,0,0-4.77,1.79,5.76,5.76,0,0,0-2,4.47v16.06h-3.5V231.8a5.64,5.64,0,0,0-2-4.47,6.84,6.84,0,0,0-4.72-1.79,5.32,5.32,0,0,0-4.34,2.06,7.55,7.55,0,0,0-1.61,4.94v15.32h-3.46V232.93a10.46,10.46,0,0,1,2.67-7.52,9.62,9.62,0,0,1,6.56-3c3.63-.31,6.52,1.27,8.66,4.64,2.15-3.37,5-4.95,8.67-4.64a9.84,9.84,0,0,1,6.61,3,10.52,10.52,0,0,1,2.71,7.52Z" style="fill:#303030"/><path d="M722,248.84h-5.42v-16.3a6.71,6.71,0,0,0-1.44-4.33,4.44,4.44,0,0,0-3.62-1.69,6.06,6.06,0,0,0-4.12,1.55,4.76,4.76,0,0,0-1.64,3.73v17h-5.46v-17a4.67,4.67,0,0,0-1.67-3.73,5.84,5.84,0,0,0-4.08-1.55,4.31,4.31,0,0,0-3.57,1.69,6.59,6.59,0,0,0-1.4,4.33v16.3h-5.42V232.93a11.46,11.46,0,0,1,2.94-8.2,10.62,10.62,0,0,1,7.19-3.32,9.5,9.5,0,0,1,8.74,3.92,9.62,9.62,0,0,1,8.75-3.92,10.92,10.92,0,0,1,7.24,3.32,11.45,11.45,0,0,1,3,8.2Zm-3.46-2H720V232.93a9.57,9.57,0,0,0-2.44-6.85,8.86,8.86,0,0,0-6-2.72c-3.23-.28-5.8,1.1-7.76,4.19l-.83,1.3-.82-1.3c-2-3.09-4.51-4.48-7.76-4.19a8.63,8.63,0,0,0-5.92,2.71,9.54,9.54,0,0,0-2.41,6.86v13.95h1.5V232.54a8.52,8.52,0,0,1,1.83-5.56,6.26,6.26,0,0,1,5.1-2.42,7.8,7.8,0,0,1,5.37,2,6.62,6.62,0,0,1,2.34,5.2v15.08h1.54V231.8a6.75,6.75,0,0,1,2.3-5.2,8,8,0,0,1,5.42-2,6.4,6.4,0,0,1,5.14,2.42,8.62,8.62,0,0,1,1.88,5.56Z" style="fill:#303030"/><path d="M749.76,239.67a12.66,12.66,0,0,1-4.73,6.39,12.86,12.86,0,0,1-7.39,2.41,12.38,12.38,0,0,1-9.06-3.72,13,13,0,0,1-.09-18.77,12.21,12.21,0,0,1,9.67-3.77,13,13,0,0,1,8.67,4.11,12,12,0,0,1,3.54,8.41v1.79H728a9.19,9.19,0,0,0,3.2,6.21,9.48,9.48,0,0,0,6.61,2.41,8.82,8.82,0,0,0,8.44-5.47Zm-2.67-6.21a9.83,9.83,0,0,0-3.29-5.65A9.72,9.72,0,0,0,728,233.46Z" style="fill:#303030"/><path d="M737.47,249.45a13.37,13.37,0,0,1-9.57-4,14,14,0,0,1-.1-20.17,13.18,13.18,0,0,1,10.42-4.05,14,14,0,0,1,9.31,4.41,12.94,12.94,0,0,1,3.82,9.09v2.77H729.11A8.11,8.11,0,0,0,731.8,242a8.57,8.57,0,0,0,6,2.17,7.87,7.87,0,0,0,7.58-4.91l.26-.56h5.54l-.45,1.3a13.72,13.72,0,0,1-5.08,6.87,14,14,0,0,1-8,2.59Zm-.13-26.28a11.25,11.25,0,0,0-8.17,3.51,12.17,12.17,0,0,0,8.45,20.81,11.79,11.79,0,0,0,6.84-2.23,11.51,11.51,0,0,0,3.85-4.61h-1.49a9.71,9.71,0,0,1-9,5.47,10.58,10.58,0,0,1-10.79-9.5l-.12-1.08h22.52v-.81a10.88,10.88,0,0,0-3.28-7.73,11.87,11.87,0,0,0-8-3.81C737.84,223.17,737.59,223.17,737.34,223.17Zm10.95,11.27H726.77l.23-1.18a10.6,10.6,0,0,1,3.72-6.3,10.15,10.15,0,0,1,6.93-2.36,10.48,10.48,0,0,1,6.78,2.47,10.78,10.78,0,0,1,3.62,6.19Zm-19.06-2h16.58a8.55,8.55,0,0,0-8.19-5.92,8.55,8.55,0,0,0-8.39,5.92Z" style="fill:#303030"/><path d="M753.36,255.69v-3.33a2.76,2.76,0,0,0,2.33-1.35,7.2,7.2,0,0,0,.47-3.15v-25h3.37v25.6c0,2.32-.39,3.94-1.22,4.85a6.59,6.59,0,0,1-4,2.19ZM759.62,220h-3.46v-5.9h3.46Z" style="fill:#303030"/><path d="M752.38,256.87v-5.41l.9-.07a1.79,1.79,0,0,0,1.56-.87,6.15,6.15,0,0,0,.34-2.66v-26h5.33v26.58c0,2.61-.48,4.41-1.47,5.51a7.59,7.59,0,0,1-4.58,2.5Zm2-3.69v1.32a5.54,5.54,0,0,0,3.22-1.81c.67-.74,1-2.15,1-4.22V223.85h-1.42v24a7.72,7.72,0,0,1-.61,3.64A3.55,3.55,0,0,1,754.34,253.18ZM760.6,221h-5.42v-7.86h5.42Zm-3.46-2h1.5V215.1h-1.5Z" style="fill:#303030"/><path d="M785,244.7a12,12,0,0,1-9.27,3.72,12.23,12.23,0,0,1-8.84-3.93,12.69,12.69,0,0,1-3.59-9.06,12.86,12.86,0,0,1,3.89-9.37,12,12,0,0,1,9.28-3.76,12.33,12.33,0,0,1,8.84,4A13.06,13.06,0,0,1,785,244.7Zm-9.23.44a8.56,8.56,0,0,0,7-2.84,9.75,9.75,0,0,0,2.85-7.18,10,10,0,0,0-2.85-6.74,8.58,8.58,0,0,0-6.47-2.8,9.05,9.05,0,0,0-6.79,2.8,9.41,9.41,0,0,0-2.84,6.79,9.66,9.66,0,0,0,2.58,6.91A8.83,8.83,0,0,0,775.72,245.14Z" style="fill:#e78f25"/><path d="M776.19,249.41h-.55a13.13,13.13,0,0,1-9.51-4.24,14.19,14.19,0,0,1,.32-19.79,12.92,12.92,0,0,1,10-4.05,13.3,13.3,0,0,1,9.51,4.34,14,14,0,0,1-.32,19.74A13,13,0,0,1,776.19,249.41Zm-.26-26.14a11,11,0,0,0-8.09,3.48,11.88,11.88,0,0,0-3.61,8.68,11.66,11.66,0,0,0,3.32,8.38,11.65,11.65,0,0,0,16.71.2,11.68,11.68,0,0,0,3.65-8.63,11.82,11.82,0,0,0-3.36-8.38,11.36,11.36,0,0,0-8.17-3.72Zm.29,22.86h-.54a9.86,9.86,0,0,1-7.2-3.38,10.64,10.64,0,0,1-2.84-7.59,10.62,10.62,0,0,1,10.62-10.55,9.59,9.59,0,0,1,7.17,3.11,10.9,10.9,0,0,1,3.11,7.38,10.62,10.62,0,0,1-3.11,7.88A9.53,9.53,0,0,1,776.22,246.13Zm-.13-19.57a8,8,0,0,0-5.94,2.52,8.42,8.42,0,0,0-2.55,6.1,8.69,8.69,0,0,0,2.32,6.24,7.88,7.88,0,0,0,5.84,2.74h0a7.82,7.82,0,0,0,6.24-2.54,8.78,8.78,0,0,0,2.58-6.49,8.91,8.91,0,0,0-2.58-6.08A7.49,7.49,0,0,0,776.09,226.56Z" style="fill:#e78f25"/><path d="M795.48,247.86H792v-25h3.1v3.55a7.35,7.35,0,0,1,3.11-3.11,7.69,7.69,0,0,1,3.85-.92v3.33a6,6,0,0,0-3.76,1.27,9,9,0,0,0-2,2.05,7.51,7.51,0,0,0-.83,3.85Z" style="fill:#303030"/><path d="M796.46,248.84H791V221.93h5.06v1.72a9.46,9.46,0,0,1,1.66-1.16,8.68,8.68,0,0,1,4.36-1l.94,0v5.22l-.95,0a5.12,5.12,0,0,0-3.17,1,7.91,7.91,0,0,0-1.75,1.81,6.63,6.63,0,0,0-.69,3.34Zm-3.5-2h1.54V232.93a8.47,8.47,0,0,1,1-4.35,9.86,9.86,0,0,1,2.19-2.31,6.68,6.68,0,0,1,3.4-1.42v-1.4a7.1,7.1,0,0,0-2.42.77,6.32,6.32,0,0,0-2.68,2.69l-1.86,3.59v-6.61H793Z" style="fill:#303030"/><path d="M829.76,256.61h-3.24V235.38a12.71,12.71,0,0,1,3.9-9.27,12.59,12.59,0,0,1,18.12.17,12.77,12.77,0,0,1,3.63,9.06,13,13,0,0,1-3.9,9.41,12.06,12.06,0,0,1-9.27,3.72,12.57,12.57,0,0,1-9.24-4.42Zm9.94-31a8.72,8.72,0,0,0-7.05,2.85,9.87,9.87,0,0,0-2.8,7.18,9.72,9.72,0,0,0,2.8,6.74,8.71,8.71,0,0,0,6.56,2.8,9.15,9.15,0,0,0,6.74-2.8,9.46,9.46,0,0,0,2.89-6.79,9.6,9.6,0,0,0-2.62-6.87A8.94,8.94,0,0,0,839.7,225.62Z" style="fill:#303030"/><path d="M830.74,257.59h-5.2v-22a13.8,13.8,0,0,1,4.19-10.15,13.56,13.56,0,0,1,19.52.2,13.71,13.71,0,0,1,3.9,9.73,14,14,0,0,1-4.18,10.1,13.23,13.23,0,0,1-10,4,13.39,13.39,0,0,1-8.22-3.09Zm-3.24-2h1.28V241.48l1.72,1.92a11.47,11.47,0,0,0,8.53,4.09,11,11,0,0,0,8.55-3.43,12.09,12.09,0,0,0,3.61-8.72,11.82,11.82,0,0,0-3.36-8.38,11.1,11.1,0,0,0-8.11-3.63,11.23,11.23,0,0,0-8.61,3.47,11.8,11.8,0,0,0-3.61,8.58Zm11.71-9.46a9.71,9.71,0,0,1-7.27-3.11,10.72,10.72,0,0,1-3.07-7.4,10.91,10.91,0,0,1,3.07-7.86,9.81,9.81,0,0,1,7.8-3.15,10,10,0,0,1,7.2,3.42,10.61,10.61,0,0,1,2.88,7.55,10.48,10.48,0,0,1-3.17,7.46A10.18,10.18,0,0,1,839.21,246.17Zm0-19.58a7.72,7.72,0,0,0-5.83,2.56,8.87,8.87,0,0,0-2.53,6.48,8.72,8.72,0,0,0,2.53,6.08,7.71,7.71,0,0,0,5.85,2.5,8.19,8.19,0,0,0,6-2.52,8.47,8.47,0,0,0,2.6-6.1,8.6,8.6,0,0,0-2.37-6.2,7.94,7.94,0,0,0-5.83-2.79h-.47Z" style="fill:#303030"/><path d="M858.62,247.86h-3.5v-25h3.11v3.55a7.29,7.29,0,0,1,3.11-3.11,7.64,7.64,0,0,1,3.85-.92v3.33a6.08,6.08,0,0,0-3.77,1.27,8.7,8.7,0,0,0-2,2.05,7.5,7.5,0,0,0-.84,3.85Z" style="fill:#303030"/><path d="M859.6,248.84h-5.46V221.93h5.07v1.72a9.1,9.1,0,0,1,1.66-1.16,8.61,8.61,0,0,1,4.35-1l.95,0v5.22l-1,0a5.14,5.14,0,0,0-3.17,1,8.16,8.16,0,0,0-1.75,1.81,6.63,6.63,0,0,0-.69,3.34Zm-3.5-2h1.54V232.93a8.47,8.47,0,0,1,1-4.35,10.08,10.08,0,0,1,2.19-2.31,6.67,6.67,0,0,1,3.41-1.42v-1.4a7.1,7.1,0,0,0-2.42.77,6.34,6.34,0,0,0-2.69,2.69l-1.85,3.59v-6.61H856.1Z" style="fill:#303030"/><path d="M889.47,244.7a12,12,0,0,1-9.28,3.72,12.24,12.24,0,0,1-8.84-3.93,12.69,12.69,0,0,1-3.59-9.06,12.83,12.83,0,0,1,3.9-9.37,12,12,0,0,1,9.27-3.76,12.32,12.32,0,0,1,8.84,4,13.07,13.07,0,0,1-.3,18.38Zm-9.24.44a8.58,8.58,0,0,0,7-2.84,9.78,9.78,0,0,0,2.84-7.18,10,10,0,0,0-2.84-6.74,8.62,8.62,0,0,0-6.48-2.8,9.07,9.07,0,0,0-6.79,2.8,9.41,9.41,0,0,0-2.84,6.79,9.7,9.7,0,0,0,2.58,6.91A8.85,8.85,0,0,0,880.23,245.14Z" style="fill:#303030"/><path d="M880.7,249.41h-.55a13.13,13.13,0,0,1-9.51-4.24,14.19,14.19,0,0,1,.32-19.79,12.85,12.85,0,0,1,10-4.05,13.32,13.32,0,0,1,9.52,4.34,14,14,0,0,1-.33,19.74A13,13,0,0,1,880.7,249.41Zm-.26-26.14a11,11,0,0,0-8.09,3.48,11.88,11.88,0,0,0-3.61,8.68,11.66,11.66,0,0,0,3.32,8.38,11.25,11.25,0,0,0,8.15,3.63,11.12,11.12,0,0,0,8.56-3.43,11.68,11.68,0,0,0,3.65-8.63,11.82,11.82,0,0,0-3.36-8.38,11.36,11.36,0,0,0-8.16-3.72Zm.29,22.86h-.53a9.86,9.86,0,0,1-7.21-3.38,10.69,10.69,0,0,1-2.84-7.59,10.32,10.32,0,0,1,3.13-7.46,10.47,10.47,0,0,1,7.49-3.09,9.59,9.59,0,0,1,7.17,3.11,11,11,0,0,1,3.12,7.38,10.62,10.62,0,0,1-3.12,7.88A9.53,9.53,0,0,1,880.73,246.13Zm-.12-19.57a8,8,0,0,0-5.94,2.52,8.39,8.39,0,0,0-2.56,6.1,8.69,8.69,0,0,0,2.32,6.24,7.88,7.88,0,0,0,5.84,2.74h0a7.84,7.84,0,0,0,6.24-2.54,8.78,8.78,0,0,0,2.58-6.49,8.9,8.9,0,0,0-2.57-6.08A7.55,7.55,0,0,0,880.61,226.56Z" style="fill:#303030"/><path d="M910.45,247.86H907l-10.24-25h3.5l8.49,20.57,8.45-20.57h3.67Z" style="fill:#303030"/><path d="M911.1,248.84h-4.77l-11-26.91h5.62l7.83,19,7.79-19h5.8Zm-3.45-2h2.15l9.59-23h-1.54l-9.1,22.16-9.15-22.16h-1.38Z" style="fill:#303030"/><path d="M948.85,239.67a12.66,12.66,0,0,1-4.73,6.39,12.86,12.86,0,0,1-7.39,2.41,12.4,12.4,0,0,1-9.06-3.72,13.06,13.06,0,0,1-.09-18.77,12.21,12.21,0,0,1,9.67-3.77,12.91,12.91,0,0,1,8.67,4.11,12,12,0,0,1,3.54,8.41v1.79h-22.4a9.14,9.14,0,0,0,3.19,6.21,9.48,9.48,0,0,0,6.61,2.41,8.84,8.84,0,0,0,8.45-5.47Zm-2.67-6.21a9.76,9.76,0,0,0-3.28-5.65,9.72,9.72,0,0,0-15.84,5.65Z" style="fill:#303030"/><path d="M936.56,249.45a13.37,13.37,0,0,1-9.57-4,14,14,0,0,1-.1-20.17,13.19,13.19,0,0,1,10.42-4.05,14,14,0,0,1,9.31,4.41,12.94,12.94,0,0,1,3.82,9.09v2.77H928.21a8.09,8.09,0,0,0,2.68,4.49,8.46,8.46,0,0,0,6,2.17,7.87,7.87,0,0,0,7.58-4.91l.27-.56h5.53l-.44,1.3a13.68,13.68,0,0,1-5.09,6.87,13.92,13.92,0,0,1-8,2.59Zm-.13-26.28a11.23,11.23,0,0,0-8.16,3.51,12,12,0,0,0,.09,17.37,11.76,11.76,0,0,0,15.2,1.21,11.57,11.57,0,0,0,3.84-4.61h-1.49a9.69,9.69,0,0,1-9,5.47,10.33,10.33,0,0,1-7.26-2.64,10.21,10.21,0,0,1-3.53-6.86l-.11-1.08h22.51v-.81a10.91,10.91,0,0,0-3.27-7.73,11.89,11.89,0,0,0-8-3.81C936.94,223.17,936.68,223.17,936.43,223.17Zm11,11.27H925.86l.24-1.18a10.54,10.54,0,0,1,3.71-6.3,10.22,10.22,0,0,1,6.93-2.36,10.53,10.53,0,0,1,6.79,2.47,10.77,10.77,0,0,1,3.61,6.19Zm-19.06-2H944.9a8.52,8.52,0,0,0-8.19-5.92h-.17a8.58,8.58,0,0,0-5.5,1.93A8.29,8.29,0,0,0,928.32,232.48Z" style="fill:#303030"/><path d="M977.62,239.67a12.64,12.64,0,0,1-4.72,6.39,12.89,12.89,0,0,1-7.4,2.41,12.42,12.42,0,0,1-9.06-3.72,13,13,0,0,1-.08-18.77,12.19,12.19,0,0,1,9.67-3.77,12.91,12.91,0,0,1,8.66,4.11,12,12,0,0,1,3.55,8.41v1.79H955.83a9.15,9.15,0,0,0,3.2,6.21,9.47,9.47,0,0,0,6.6,2.41,8.84,8.84,0,0,0,8.45-5.47ZM975,233.46a9.76,9.76,0,0,0-3.28-5.65,9.72,9.72,0,0,0-15.84,5.65Z" style="fill:#303030"/><path d="M965.34,249.45a13.41,13.41,0,0,1-9.58-4,13.68,13.68,0,0,1-4.32-9.84,13.55,13.55,0,0,1,4.23-10.33,13.22,13.22,0,0,1,10.41-4.05,14,14,0,0,1,9.32,4.41,13,13,0,0,1,3.81,9.09v2.77H957a8.15,8.15,0,0,0,2.68,4.49,8.5,8.5,0,0,0,6,2.17,7.89,7.89,0,0,0,7.58-4.91l.26-.56H979l-.45,1.3a13.68,13.68,0,0,1-5.09,6.87,13.91,13.91,0,0,1-7.94,2.59Zm-.13-26.28a11.25,11.25,0,0,0-8.17,3.51,12.07,12.07,0,0,0,.09,17.37,11.48,11.48,0,0,0,8.36,3.44,11.79,11.79,0,0,0,6.84-2.23,11.49,11.49,0,0,0,3.84-4.61h-1.49a9.69,9.69,0,0,1-9,5.47,10.58,10.58,0,0,1-10.78-9.5l-.12-1.08h22.52v-.81A10.92,10.92,0,0,0,974,227a11.87,11.87,0,0,0-8-3.81C965.71,223.17,965.46,223.17,965.21,223.17Zm10.94,11.27H954.63l.24-1.18a10.6,10.6,0,0,1,3.72-6.3,10.07,10.07,0,0,1,6.93-2.36,10.57,10.57,0,0,1,6.79,2.47,10.73,10.73,0,0,1,3.6,6.19Zm-19-2h16.58a8.55,8.55,0,0,0-8.19-5.92,8.36,8.36,0,0,0-5.68,1.93A8.21,8.21,0,0,0,957.1,232.48Z" style="fill:#303030"/><path d="M1007.31,235.51a12.21,12.21,0,0,1-3.84,9.33,12.39,12.39,0,0,1-9.37,3.72,12.21,12.21,0,0,1-8.84-3.94,12.73,12.73,0,0,1-3.59-9.06,12.87,12.87,0,0,1,3.9-9.37,12,12,0,0,1,9.27-3.76,12.34,12.34,0,0,1,9.19,4.42V214.29h3.28Zm-13.16,9.76a8.58,8.58,0,0,0,7-2.84,9.59,9.59,0,0,0,2.8-7.18,9.76,9.76,0,0,0-2.8-6.74,8.63,8.63,0,0,0-6.53-2.8,9.1,9.1,0,0,0-6.78,2.8A9.41,9.41,0,0,0,985,235.3a9.74,9.74,0,0,0,2.62,6.91A8.85,8.85,0,0,0,994.15,245.27Z" style="fill:#303030"/><path d="M994.59,249.55h-.52a13.2,13.2,0,0,1-9.52-4.25,14.21,14.21,0,0,1,.33-19.79,13,13,0,0,1,10-4.05,13.26,13.26,0,0,1,8.17,3.07V213.31h5.24V235.5a13.18,13.18,0,0,1-4.14,10A13.41,13.41,0,0,1,994.59,249.55Zm-.25-26.15a11,11,0,0,0-8.07,3.48,11.89,11.89,0,0,0-3.62,8.68,11.66,11.66,0,0,0,3.32,8.38,11.29,11.29,0,0,0,8.16,3.64,11.44,11.44,0,0,0,8.66-3.45,11.18,11.18,0,0,0,3.55-8.59V215.27H1005v14.19l-1.72-2a11.27,11.27,0,0,0-8.48-4.09Zm.3,22.86h-.54a9.91,9.91,0,0,1-7.2-3.38,10.64,10.64,0,0,1-2.88-7.59,10.32,10.32,0,0,1,3.13-7.46,10.1,10.1,0,0,1,7.49-3.09,9.66,9.66,0,0,1,7.22,3.11,10.76,10.76,0,0,1,3.07,7.4,10.55,10.55,0,0,1-3.07,7.86A9.57,9.57,0,0,1,994.64,246.26Zm-.16-19.57a8.19,8.19,0,0,0-6,2.52,8.44,8.44,0,0,0-2.55,6.1,8.76,8.76,0,0,0,2.37,6.24,7.88,7.88,0,0,0,5.83,2.74h0a7.85,7.85,0,0,0,6.24-2.54,8.56,8.56,0,0,0,2.54-6.48,8.7,8.7,0,0,0-2.53-6.09A7.71,7.71,0,0,0,994.48,226.69Z" style="fill:#303030"/><path d="M1032.55,244.7a12,12,0,0,1-9.28,3.72,12.24,12.24,0,0,1-8.84-3.93,12.69,12.69,0,0,1-3.59-9.06,12.83,12.83,0,0,1,3.9-9.37,12,12,0,0,1,9.27-3.76,12.32,12.32,0,0,1,8.84,4,13.07,13.07,0,0,1-.3,18.38Zm-9.24.44a8.58,8.58,0,0,0,7-2.84,9.78,9.78,0,0,0,2.84-7.18,10,10,0,0,0-2.84-6.74,8.62,8.62,0,0,0-6.48-2.8,9,9,0,0,0-6.78,2.8,9.38,9.38,0,0,0-2.85,6.79,9.67,9.67,0,0,0,2.59,6.91A8.81,8.81,0,0,0,1023.31,245.14Z" style="fill:#0b9a96"/><path d="M1023.78,249.41h-.55a13.13,13.13,0,0,1-9.51-4.24,14.19,14.19,0,0,1,.32-19.79,12.93,12.93,0,0,1,10-4.05,13.32,13.32,0,0,1,9.52,4.34,14,14,0,0,1-.33,19.74A13,13,0,0,1,1023.78,249.41Zm-.26-26.14a11,11,0,0,0-8.09,3.48,11.88,11.88,0,0,0-3.61,8.68,11.66,11.66,0,0,0,3.32,8.38,11.26,11.26,0,0,0,8.16,3.63,11.12,11.12,0,0,0,8.55-3.43,11.68,11.68,0,0,0,3.65-8.63,11.82,11.82,0,0,0-3.36-8.38,11.36,11.36,0,0,0-8.16-3.72Zm.29,22.86h-.53a9.86,9.86,0,0,1-7.21-3.38,10.67,10.67,0,0,1-2.84-7.59,10.32,10.32,0,0,1,3.13-7.46,10.47,10.47,0,0,1,7.49-3.09,9.59,9.59,0,0,1,7.17,3.11,11,11,0,0,1,3.12,7.38A10.62,10.62,0,0,1,1031,243,9.53,9.53,0,0,1,1023.81,246.13Zm-.12-19.57a8,8,0,0,0-5.94,2.52,8.39,8.39,0,0,0-2.56,6.1,8.66,8.66,0,0,0,2.33,6.24,7.84,7.84,0,0,0,5.83,2.74h0a7.8,7.8,0,0,0,6.24-2.54,8.78,8.78,0,0,0,2.58-6.49,8.9,8.9,0,0,0-2.57-6.08A7.63,7.63,0,0,0,1023.69,226.56Z" style="fill:#0b9a96"/><path d="M1043.07,247.86h-3.5v-25h3.11v3.55a7.29,7.29,0,0,1,3.11-3.11,7.64,7.64,0,0,1,3.85-.92v3.33a6.08,6.08,0,0,0-3.77,1.27,9,9,0,0,0-2,2.05,7.51,7.51,0,0,0-.83,3.85Z" style="fill:#303030"/><path d="M1044.05,248.84h-5.46V221.93h5.07v1.72a8.77,8.77,0,0,1,1.66-1.16,8.56,8.56,0,0,1,4.35-1l.94,0v5.22l-.95,0a5.14,5.14,0,0,0-3.17,1,8.16,8.16,0,0,0-1.75,1.81,6.63,6.63,0,0,0-.69,3.34Zm-3.5-2h1.54V232.93a8.47,8.47,0,0,1,1-4.35,10.08,10.08,0,0,1,2.19-2.31,6.67,6.67,0,0,1,3.41-1.42v-1.4a7.1,7.1,0,0,0-2.42.77,6.29,6.29,0,0,0-2.69,2.69l-1.85,3.59v-6.61h-1.15Z" style="fill:#303030"/><path d="M1074.07,247.86v-33.7h9.54a10.84,10.84,0,0,1,7,2.36,8.13,8.13,0,0,1-.74,13.31,9,9,0,0,1,5.42,8.44,8.33,8.33,0,0,1-3.06,6.83,10.89,10.89,0,0,1-7.4,2.76Zm9.63-19.3a7.32,7.32,0,0,0,4.59-1.53,4.88,4.88,0,0,0,2-4,5,5,0,0,0-2.1-4.24,7.43,7.43,0,0,0-4.69-1.45h-5.94v11.25Zm0,16.1c5.21,0,8.31-2.67,8.1-6.69a6,6,0,0,0-2.54-4.86,9.78,9.78,0,0,0-5.74-1.49h-5.94v13Z" style="fill:#303030"/><path d="M1084.79,248.84H1073.1V213.18h10.51a11.83,11.83,0,0,1,7.57,2.58,9.1,9.1,0,0,1,.45,13.94,10,10,0,0,1,4.6,8.54,9.31,9.31,0,0,1-3.39,7.59A11.87,11.87,0,0,1,1084.79,248.84Zm-9.74-2h9.74a9.89,9.89,0,0,0,6.76-2.52,7.33,7.33,0,0,0,2.72-6.05,8,8,0,0,0-4.86-7.6l-1.6-.75,1.49-1a7.15,7.15,0,0,0,.66-11.72,9.81,9.81,0,0,0-6.35-2.14h-8.56Zm8.65-1.24h-7.1v-15h6.92a10.72,10.72,0,0,1,6.3,1.66,7,7,0,0,1,3,5.61A6.67,6.67,0,0,1,1091,243C1089.37,244.74,1086.85,245.64,1083.7,245.64Zm-5.15-2h5.15c2.56,0,4.65-.71,5.87-2a4.73,4.73,0,0,0,1.25-3.66,5,5,0,0,0-2.12-4.11,8.88,8.88,0,0,0-5.18-1.31h-5Zm5.15-14.14h-7.1V216.33h6.92a8.36,8.36,0,0,1,5.28,1.65,5.92,5.92,0,0,1,2.49,5,5.8,5.8,0,0,1-2.4,4.8A8.31,8.31,0,0,1,1083.7,229.54Zm-5.15-2h5.15a6.34,6.34,0,0,0,4-1.33,3.89,3.89,0,0,0,1.63-3.25,4,4,0,0,0-1.69-3.45,6.58,6.58,0,0,0-4.12-1.26h-5Z" style="fill:#303030"/><path d="M1119.3,247.9h-20.87v-3.15l15.4-14.79a7.68,7.68,0,0,0,2.71-6.13,7.18,7.18,0,0,0-2.23-4.85,7.07,7.07,0,0,0-4.94-2,7.39,7.39,0,0,0-5.21,2.1,6.62,6.62,0,0,0-2.19,5v1.14h-3.32v-1.14a9.68,9.68,0,0,1,3.19-7.35,10.53,10.53,0,0,1,7.57-3,10.47,10.47,0,0,1,10.37,9.37,12.73,12.73,0,0,1,0,1.36,10.51,10.51,0,0,1-3.5,7.61L1103,244.79h16.28Z" style="fill:#303030"/><path d="M1120.28,248.88h-22.83v-4.55l15.7-15.08a6.67,6.67,0,0,0,2.42-5.36,6.22,6.22,0,0,0-1.94-4.21,6.1,6.1,0,0,0-4.29-1.74,6.43,6.43,0,0,0-4.51,1.84,5.61,5.61,0,0,0-1.88,4.27v2.12h-5.28v-2.12a10.68,10.68,0,0,1,3.5-8.06,11.66,11.66,0,0,1,8.26-3.25A11.45,11.45,0,0,1,1120.76,223c0,.53,0,1,0,1.47a11.46,11.46,0,0,1-3.8,8.31l-11.54,11.05h14.81Zm-20.87-2h18.91v-1.15h-17.74l15.07-14.42a9.44,9.44,0,0,0,3.2-6.9c0-.42,0-.82,0-1.28a9.49,9.49,0,0,0-9.41-8.47h-.16a9.58,9.58,0,0,0-6.73,2.71,8.7,8.7,0,0,0-2.88,6.64v.16H1101v-.16a7.55,7.55,0,0,1,2.5-5.7,8.36,8.36,0,0,1,5.88-2.37,8.11,8.11,0,0,1,5.63,2.29,8.2,8.2,0,0,1,2.52,5.5,8.64,8.64,0,0,1-3,6.9l-15.1,14.5Z" style="fill:#303030"/><path d="M1122.61,247.86v-33.7h9.54a10.84,10.84,0,0,1,7,2.36,8.13,8.13,0,0,1-.75,13.31,9,9,0,0,1,5.43,8.44,8.36,8.36,0,0,1-3.06,6.83,10.89,10.89,0,0,1-7.4,2.76Zm9.63-19.3a7.32,7.32,0,0,0,4.59-1.53,4.87,4.87,0,0,0,2-4,5,5,0,0,0-2.1-4.24,7.39,7.39,0,0,0-4.67-1.45h-6v11.25Zm0,16.1c5.2,0,8.31-2.67,8.09-6.69a6,6,0,0,0-2.53-4.86,9.77,9.77,0,0,0-5.73-1.49h-6v13Z" style="fill:#303030"/><path d="M1133.33,248.84h-11.7V213.18h10.52a11.83,11.83,0,0,1,7.57,2.58,9.11,9.11,0,0,1,.44,13.94,10,10,0,0,1,4.61,8.54,9.29,9.29,0,0,1-3.4,7.59A11.85,11.85,0,0,1,1133.33,248.84Zm-9.74-2h9.74a9.86,9.86,0,0,0,6.75-2.52,7.34,7.34,0,0,0,2.73-6.05,8,8,0,0,0-4.86-7.6l-1.61-.75,1.49-1a6.89,6.89,0,0,0,3.41-6.18,6.8,6.8,0,0,0-2.75-5.54,9.77,9.77,0,0,0-6.34-2.14h-8.56Zm8.65-1.24h-7.11v-15h6.94a10.71,10.71,0,0,1,6.29,1.66,7,7,0,0,1,3,5.61,6.71,6.71,0,0,1-1.78,5.12C1137.91,244.74,1135.39,245.64,1132.24,245.64Zm-5.15-2h5.15c2.56,0,4.65-.71,5.87-2a4.76,4.76,0,0,0,1.24-3.66,5,5,0,0,0-2.11-4.11,8.87,8.87,0,0,0-5.17-1.31h-5Zm5.15-14.14h-7.11V216.33h6.94a8.37,8.37,0,0,1,5.27,1.65,5.92,5.92,0,0,1,2.48,5,5.8,5.8,0,0,1-2.39,4.8A8.33,8.33,0,0,1,1132.24,229.54Zm-5.15-2h5.15a6.38,6.38,0,0,0,4-1.33,3.91,3.91,0,0,0,1.63-3.25,4,4,0,0,0-1.7-3.45,6.52,6.52,0,0,0-4.1-1.26h-5Z" style="fill:#303030"/></g></g></svg>