<svg xmlns="http://www.w3.org/2000/svg" viewBox="0 0 353.7 342.12"><title>orden de compraRecurso 5</title><g id="Capa_2" data-name="Capa 2"><g id="Capa_1-2" data-name="Capa 1"><ellipse cx="163.74" cy="247.58" rx="163.74" ry="94.53" style="fill:#740a51"/><path d="M242,4.54a3,3,0,0,0-3,.3L208,22.77A9.16,9.16,0,0,0,203.84,30l.19,68.6a2.9,2.9,0,0,0,1.22,2.66l3.91,2.27a2.88,2.88,0,0,1-1.22-2.66l-.19-68.6a9.12,9.12,0,0,1,4.14-7.17L243,7.11a3,3,0,0,1,3-.3Z" style="fill:#d1deff"/><path d="M243,7.11c2.3-1.33,4.17-.27,4.17,2.37l.2,68.6a9.16,9.16,0,0,1-4.15,7.18L212.11,103.2c-2.28,1.32-4.16.26-4.17-2.38l-.19-68.6a9.12,9.12,0,0,1,4.14-7.17Z" style="fill:#a4c5ff"/><polygon points="231.29 32.86 226.59 35.57 226.59 25.85 231.29 23.14 231.29 32.86" style="fill:#7b94c1"/><path d="M168.71,92.67s54,84.91,84.06-10.56" style="fill:none;stroke:#ffa81f;stroke-linecap:round;stroke-linejoin:round;stroke-width:19.3986895568655px"/><path d="M249.77,54.09h0A7.14,7.14,0,0,1,257.61,59l4.09,13.19a9.34,9.34,0,0,1-7.6,12h0a9.35,9.35,0,0,1-10.68-9.41L243.64,61A7.15,7.15,0,0,1,249.77,54.09Z" style="fill:#ffbfad"/><path d="M297.43,296.78s2.31,8.71,6.58,9.82c6.38,1.67,31,7.25,43,2.53s5.72-11.49-1.45-13.4c-20.18-5.36-27.66-6.23-34.82-7.91C304,286.25,297.18,291.93,297.43,296.78Z" style="fill:#272526"/><line x1="306.16" y1="292.71" x2="287.99" y2="263.7" style="fill:none;stroke:#ffbfad;stroke-linecap:round;stroke-linejoin:round;stroke-width:13.8562068263325px"/><path d="M218.22,257.17s4.78-7.64,9.18-7.44c6.59.3,31.76,2.24,41.8,10.3s2.07,12.66-5.35,12.36c-20.86-.84-28.26-2.22-35.6-2.74C221.38,269.17,216.54,261.73,218.22,257.17Z" style="fill:#272526"/><line x1="225.35" y1="263.64" x2="199.41" y2="285.98" style="fill:none;stroke:#ffbfad;stroke-linecap:round;stroke-linejoin:round;stroke-width:13.8562068263325px"/><path d="M256.66,189.27c-22.93-9.38-59.45,12-85.93,7.64-6.52,2.47-42.71,6.76-52.09,21.78,2.14,10.88-30.74,77.35,4.13,105.13s73.11-21,99.49-41.61c.57-7.29-10-14.62-14.88-18.51-19.26,11.32-29.22,27.13-47.62,38.83a6.62,6.62,0,0,1-10.1-5.21c-.88-17.65,7.71-36.51,11.17-54.15,2-5.29,4.88-5.45,7.6-4.45,1.06.39,0,0,.08,0,25.17-.8,45.56-8.38,73.55-13.84a10,10,0,0,1,10.64,4.94c11.21,20.39,27.24,39.89,41.69,57.68,5.06-1.56,12.07-2.87,13.68-9.68C292.62,259.42,279.6,198.66,256.66,189.27Z" style="fill:#00b9b9"/><path d="M184.7,196.89a16.87,16.87,0,0,1-7.42,14.33c-11.2,7.54-29.82,17.38-40.07,18.82-24.83,3.49-26.89-12.75-26.89-12.75s0-7.65.06-18.9c0-4.32.08-9.17.11-14.36.28-26.6.92-61.38,2.44-73.32,1-7.93,13-17,22-22.75,5.57-3.55,10-5.85,10-5.85,8.34-2.77,14.85-3.38,19.92-2.69a20.52,20.52,0,0,1,10.84,4.71,21.19,21.19,0,0,1,5.79,8.73,23,23,0,0,1,1.36,5.76Z" style="fill:#ffa81f"/><path d="M162,110.21C154.3,114.78,142.89,106,137.34,97a14.24,14.24,0,0,1-2.41-9c5.57-3.55,10-5.85,10-5.85,8.34-2.77,14.85-3.38,19.92-2.69C168.8,88.12,168.6,106.22,162,110.21Z" style="fill:#fff"/><path d="M121.45,114s37.52,93.37,84.57,5" style="fill:none;stroke:#ffa81f;stroke-linecap:round;stroke-linejoin:round;stroke-width:19.3986895568655px"/><path d="M208.21,91h0a7.15,7.15,0,0,1,6.8,6.31l1.6,13.71a9.34,9.34,0,0,1-9.68,10.43h0a9.34,9.34,0,0,1-8.77-11.2l2.75-13.53A7.14,7.14,0,0,1,208.21,91Z" style="fill:#ffbfad"/><path d="M179.92,45c0,17.08-10.76,32.89-24,32.89S131.82,62,131.82,45s10.77-29,24.05-29S179.92,27.88,179.92,45Z" style="fill:#ffbfad"/><path d="M134.15,43.37c2.3,3.48,2.23,8.15-.47,9.94s-7,0-9.33-3.47-1.71-7.35,1-9.13S131.85,39.89,134.15,43.37Z" style="fill:#ffbfad"/><line x1="150.26" y1="60.73" x2="150.26" y2="82.11" style="fill:none;stroke:#ffbfad;stroke-linecap:round;stroke-linejoin:round;stroke-width:17.6707651407945px"/><path d="M193.12,35c-6.44-7.3-10.86-8.63-14.77-10.79-5.4-9-16.4-14.59-26.88-13.11-15.66,2.2-27.34,19.38-20.73,34.36,1.44,3.25,5.14,5.79,8.51,4.67,2.69-.9,4.23-3.7,5.17-6.38s1.6-5.59,3.52-7.68a9.2,9.2,0,0,1,1-1,10.67,10.67,0,0,0,6.9,3c8.49.35,5.93-2.39,14.89,4.2S203,46.19,193.12,35Z" style="fill:#272526"/><path d="M130,43.52S133,28,152.42,25.19s25.93-1,25.93-1-3.82-12.84-16.17-17.68-33-10.7-32.18-2.27S120.76,36.91,130,43.52Z" style="fill:#fa0"/><path d="M106.65,188.15a11.34,11.34,0,0,0-.62-3.64h0a11,11,0,0,0-3.21-4.72c-2.72-3-7.55-6.94-16-10.3C74.58,164.58,58,153.8,50.75,148.93a11.05,11.05,0,0,0-14.51-3.11L31,148.88a22.94,22.94,0,0,0-11.48,19.88v23.82l87.18,50.33Z" style="fill:#c64592"/><polygon points="19.47 192.58 19.47 245.47 73.26 278.2 106.65 258.92 106.65 242.91 19.47 192.58" style="fill:#ad3984"/><path d="M73.26,278.2l33.39-19.28V188.15A11.08,11.08,0,0,0,90,178.55l-5.3,3.06a23,23,0,0,0-11.47,19.88Z" style="fill:#983278"/><polygon points="36.17 234.37 30.17 230.9 30.17 182.65 36.17 186.12 36.17 234.37" style="fill:#850d63"/><polygon points="61.57 248.92 55.57 245.45 55.57 197.2 61.57 200.66 61.57 248.92" style="fill:#850d63"/><path d="M55.57,156.73V147a3.1,3.1,0,0,1,4.65-2.69l11.22,6.48a7.41,7.41,0,0,1,3.7,6.42V168" style="fill:none;stroke:#750851;stroke-linecap:round;stroke-linejoin:round;stroke-width:4.87367133943959px"/><path d="M64.74,220.66c0,3.94-2.76,5.53-6.17,3.56a13.63,13.63,0,0,1-6.18-10.69c0-3.94,2.77-5.53,6.18-3.56A13.63,13.63,0,0,1,64.74,220.66Z" style="fill:#740a51"/><path d="M39.34,206.11c0,3.94-2.76,5.53-6.17,3.57A13.66,13.66,0,0,1,27,199c0-3.93,2.77-5.53,6.18-3.56A13.63,13.63,0,0,1,39.34,206.11Z" style="fill:#740a51"/></g></g></svg>