<svg xmlns="http://www.w3.org/2000/svg" xmlns:xlink="http://www.w3.org/1999/xlink" viewBox="0 0 940 860.79"><defs><linearGradient id="Degradado_sin_nombre_4" x1="5327.05" y1="-7745.22" x2="4971.51" y2="-8438.18" gradientTransform="matrix(-0.95, 0.31, -0.31, -0.95, 2833.78, -8876.81)" gradientUnits="userSpaceOnUse"><stop offset="0" stop-color="#ffa71f"/><stop offset="1" stop-color="#fff"/></linearGradient><linearGradient id="Degradado_sin_nombre_4-2" x1="0" y1="451.07" x2="184.15" y2="451.07" gradientTransform="translate(531.03 312.31) rotate(84)" xlink:href="#Degradado_sin_nombre_4"/><linearGradient id="Degradado_sin_nombre_2" x1="273.51" y1="198.76" x2="385.85" y2="311.1" gradientTransform="translate(-74.81 -26.75) rotate(1.01)" gradientUnits="userSpaceOnUse"><stop offset="0" stop-color="#fff"/><stop offset="1" stop-color="#fff" stop-opacity="0.2"/></linearGradient><linearGradient id="Degradado_sin_nombre_2-2" x1="129.37" y1="102.64" x2="183.89" y2="157.16" gradientTransform="matrix(1, 0, 0, 1, 0, 0)" xlink:href="#Degradado_sin_nombre_2"/><linearGradient id="Degradado_sin_nombre_4-3" x1="716.39" y1="109.38" x2="848.33" y2="241.32" gradientTransform="matrix(1, 0, 0, 1, 0, 0)" xlink:href="#Degradado_sin_nombre_4"/><linearGradient id="Degradado_sin_nombre_4-4" x1="558.51" y1="77.89" x2="622.54" y2="141.93" gradientTransform="matrix(1, 0, 0, 1, 0, 0)" xlink:href="#Degradado_sin_nombre_4"/><clipPath id="clip-path"><path d="M762.91,807.15l96.09-.36s76.86-140,49.28-166.25c-35.69-33.91-171-45.63-196.86-3.77C691.41,669.14,762.91,807.15,762.91,807.15Z" style="fill:none"/></clipPath><clipPath id="clip-path-2"><path d="M160.54,807.34l68.81-.26s55-100.27,35.27-119c-25.54-24.28-122.41-32.67-140.94-2.7C109.35,708.52,160.54,807.34,160.54,807.34Z" style="fill:none"/></clipPath><clipPath id="clip-path-3"><path d="M514.74,439.29a301.62,301.62,0,0,0-32.48-3.46,296.88,296.88,0,0,0-56.2,2.4l-40.55,5.63C335.24,383.48,315.38,313.23,345.09,285c38.43-36.52,184.14-49.15,212-4.06C578.65,315.8,510.76,443.07,514.74,439.29Z" style="fill:none"/></clipPath></defs><title>ChatVaciioRecurso 15</title><g style="isolation:isolate"><g id="Capa_2" data-name="Capa 2"><g id="Capa_1-2" data-name="Capa 1"><path d="M180.78,338c1.62,2.15,3.19,4.35,4.7,6.62,27.72,41.56,41.4,93.21,34.44,143C215.1,522.05,201.45,554.7,194,588.76c-8.81,40.49-8.43,93,31,117.31,31.91,19.71,73.66,6.35,108.49,5.62,63.69-1.34,111,56.13,176.67,53,46.89-2.23,90.29-34.62,108.24-77.57,12.78-30.59,11.28-65.29,24-95.93,18.53-44.65,68-48.5,108.61-59.51,59.87-16.22,126.5-56.09,145.22-119.05,30.85-103.71-62.87-144.4-144.79-164.76-103.31-25.68-204.12-51.81-285.79-124.41-25.54-22.7-48.05-48.65-73.54-71.41C324.24-8.56,234.3-16.62,155.07,29.87,79.12,74.43,28.72,174.3,91.44,252,117.74,284.64,155.47,304.42,180.78,338Z" style="fill:url(#Degradado_sin_nombre_4)"/><g style="opacity:0.54;mix-blend-mode:soft-light"><path d="M695.8,390q-98.47,129.89-197,259.75l-70.07,92.4c8,3.9,16.08,7.68,24.29,11L819.43,270c-8.15-3.63-16.59-6.9-25.15-9.88Z" style="fill:#fff"/><path d="M404.45,299.75Q303.64,433.19,203,566.75l-4.3,5.69c-1.44,5.38-2.79,10.78-4,16.22a204.16,204.16,0,0,0-4.37,31.3L531.44,170.13q-10-5.77-19.71-12.14Q458,228.82,404.45,299.75Z" style="fill:#fff"/><path d="M242.77,133.31,127,286c6.64,5.6,13.36,11.09,20,16.72l75.53-99.6L356.85,25.91a197.41,197.41,0,0,0-23.77-11.7Z" style="fill:#fff"/><path d="M206.09,105.81,93.78,253.92a207.63,207.63,0,0,0,19.31,20L314.9,7.81A188.2,188.2,0,0,0,285.19,1.5Z" style="fill:#fff"/></g><circle cx="92.08" cy="451.07" r="92.06" transform="translate(-366.15 495.45) rotate(-84)" style="fill:url(#Degradado_sin_nombre_4-2)"/><path d="M359.79,238.68a11.09,11.09,0,0,0-6.26-7.86c-5.64-2.73-11.32-.7-16.09,2.58-.1-7.61-3.08-15.36-10.65-18.53a15.51,15.51,0,0,0-16,2.14c-3.47-29.41-14.48-67.14-49.62-67.2-34.72-.06-54.51,30.51-69.4,57.8-3.25-4.15-8.35-6.13-14.14-5.29-9.32,1.35-14.5,9.79-18.06,17.8a9,9,0,0,0-10,.78c-4.07,3.14-6,8.8-7.75,13.93Z" style="fill:url(#Degradado_sin_nombre_2)"/><path d="M209.81,131.24a5.4,5.4,0,0,0-3.11-3.76c-2.76-1.27-5.5-.24-7.78,1.39-.11-3.69-1.63-7.43-5.33-8.9a7.51,7.51,0,0,0-7.75,1.18c-1.94-14.24-7.61-32.46-24.66-32.19-16.85.27-26.19,15.28-33.18,28.65a7.13,7.13,0,0,0-6.9-2.45c-4.52.74-7,4.88-8.62,8.8a4.36,4.36,0,0,0-4.84.46c-2,1.56-2.85,4.32-3.64,6.82Z" style="fill:url(#Degradado_sin_nombre_2-2)"/><path d="M911,178.61a13,13,0,0,0-7.51-9.1c-6.67-3.09-13.3-.59-18.83,3.37-.28-8.94-3.94-18-12.9-21.55A18.22,18.22,0,0,0,853,154.18c-4.69-34.47-18.4-78.55-59.67-77.89-40.78.65-63.38,37-80.3,69.32-3.9-4.81-9.93-7-16.71-5.91-10.92,1.78-16.83,11.79-20.84,21.28a10.54,10.54,0,0,0-11.72,1.12c-4.71,3.77-6.9,10.45-8.81,16.51Z" style="fill:url(#Degradado_sin_nombre_4-3)"/><path d="M653,111.49a6.32,6.32,0,0,0-3.64-4.42c-3.24-1.49-6.46-.28-9.14,1.64-.14-4.34-1.91-8.73-6.26-10.46a8.86,8.86,0,0,0-9.11,1.38c-2.27-16.72-8.93-38.12-29-37.8-19.79.32-30.75,18-39,33.65a8.37,8.37,0,0,0-8.11-2.88c-5.3.87-8.17,5.73-10.11,10.33a5.12,5.12,0,0,0-5.69.55c-2.29,1.83-3.35,5.07-4.27,8Z" style="fill:url(#Degradado_sin_nombre_4-4)"/><g style="clip-path:url(#clip-path)"><path d="M731.22,656.4s3.57.47,9.46,1.86A138.83,138.83,0,0,1,764,666a113.41,113.41,0,0,1,29.52,18.5,101,101,0,0,1,14,15.15,94.69,94.69,0,0,1,11.18,19.69,87,87,0,0,1,5.66,20.83,79.21,79.21,0,0,1,.41,18.2,75.93,75.93,0,0,1-8,27.3,83.49,83.49,0,0,1-11.06,16.51,66.4,66.4,0,0,1-6.48,6.67c-.84-7.18-1.71-14.36-2.74-21.51,2.16-3.52,4.29-7.09,6.36-10.72s4.19-7.47,6.1-11.39a171,171,0,0,0,10.23-25,231,231,0,0,1-11.15,24.27c-2,3.82-4.09,7.59-6.24,11.25-1.84,3.17-3.72,6.28-5.64,9.36l-.76-4.94c-1-6-2.13-11.9-3.49-17.8q2.81-5.45,5.31-11.19c1.72-4,3.36-8,4.77-12.31A164.11,164.11,0,0,0,808.56,712c-1,4.46-2.18,9-3.37,13.32s-2.59,8.68-4.13,12.87-3.14,8.24-4.88,12.17c-1.5,3.34-3,6.6-4.69,9.78a187.19,187.19,0,0,0-6.18-20.67l-.56-1.44,1.6-4.76c.5-1.6,1-3.2,1.42-4.84,1-3.48,1.85-6.94,2.61-10.56a179.73,179.73,0,0,0,3.19-22.08c-1.2,7.26-2.61,14.56-4.26,21.57-.94,3.55-1.72,7-2.77,10.45-.84,2.77-1.63,5.45-2.61,8.14a187.58,187.58,0,0,0-9.87-20.69c1.1-5.3,2-10.72,2.6-16.24.32-2.83.61-5.71.79-8.57s.36-5.79.41-8.69l-1.11,8.47c-.36,2.8-.76,5.61-1.2,8.41-.39,2.47-.77,4.92-1.22,7.38s-.84,4.86-1.36,7.28c-2.14-3.78-4.4-7.5-6.74-11.16-1.79-2.74-3.58-5.47-5.48-8.13.34-3.14.61-6.3.72-9.49.06-1.63.13-3.29.15-4.91s0-3.3-.08-5c-.25,1.59-.42,3.2-.64,4.79s-.36,3.2-.55,4.81c-.29,2.64-.58,5.3-.87,8-1.71-2.44-3.49-4.83-5.26-7.23-4.21-5.58-8.61-11-13.05-16.39,4.27,5.52,8.48,11.09,12.5,16.79,1.8,2.53,3.61,5,5.34,7.64-2.64-.69-5.32-1.3-8-1.8-3-.59-6-1.09-9.06-1.42,3,.92,6,1.71,9,2.54l9,2.43.32.09c1.75,2.58,3.43,5.22,5.09,7.86,2.36,3.78,4.66,7.61,6.81,11.51-2.36-.88-4.78-1.67-7.16-2.42s-4.77-1.45-7.18-2.08q-3.88-1-7.81-1.92c-2.61-.55-5.2-1.11-7.84-1.53,2.59.74,5.15,1.44,7.72,2.23s5.16,1.5,7.74,2.32c5.16,1.64,10.33,3.36,15.5,5.33l.1,0a184.72,184.72,0,0,1,9.6,20.63c-2.6-1.39-5.34-2.64-8-3.85-3.08-1.4-6.29-2.7-9.38-3.84S759.15,727,756,726s-6.32-1.78-9.54-2.48c3.15,1,6.22,2,9.36,3.14s6.22,2.26,9.34,3.53,6.25,2.57,9.3,4c1.53.73,3.1,1.46,4.63,2.24l4.57,2.43L784,740a187,187,0,0,1,6.39,20.88q-4.59-3.26-9.25-6.17c-3.51-2.16-7-4.22-10.6-6s-7.2-3.35-10.74-4.79c-3.7-1.38-7.23-2.66-10.94-3.72,3.6,1.34,7.09,2.75,10.66,4.34q2.63,1.17,5.3,2.44c1.78.85,3.5,1.77,5.28,2.71,3.48,1.93,7,4,10.46,6.19s6.89,4.6,10.28,7.11l.08.06c1.35,5.72,2.5,11.5,3.51,17.31l.92,5.3Q791,782,786.6,778.49c-3.26-2.55-6.52-5.06-9.87-7.34s-6.69-4.49-10.07-6.5-6.81-3.83-10.26-5.41c3.3,1.85,6.65,3.81,9.92,6s6.59,4.44,9.85,6.86,6.51,4.92,9.74,7.54,6.42,5.29,9.6,8l.24.21c1.13,7,2.15,14,3.18,21a67.71,67.71,0,0,1-8-4.73A113.49,113.49,0,0,1,775.8,791.9a133.14,133.14,0,0,1-16.37-19.09,125.74,125.74,0,0,1-7.16-11.31,109.28,109.28,0,0,1-6-12.34A120.67,120.67,0,0,1,741.46,735c-1.43-4.88-2.61-9.92-3.68-15-2.15-10.21-3.76-20.69-4.83-30.14S731.36,672,731.2,666,731.22,656.4,731.22,656.4Z" style="fill:#a21a70"/><path d="M795.51,787.68c-3.18-2.75-6.38-5.44-9.6-8s-6.49-5.1-9.74-7.54-6.53-4.73-9.85-6.86-6.62-4.15-9.92-6c3.45,1.58,6.86,3.43,10.26,5.41s6.75,4.19,10.07,6.5,6.61,4.79,9.87,7.34q4.42,3.48,8.77,7.15l-.92-5.3c-1-5.81-2.16-11.59-3.51-17.31l-.08-.06c-3.39-2.51-6.83-4.89-10.28-7.11s-7-4.26-10.46-6.19c-1.78-.94-3.5-1.86-5.28-2.71s-3.55-1.66-5.3-2.44c-3.57-1.59-7.06-3-10.66-4.34,3.71,1.06,7.24,2.34,10.94,3.72,3.54,1.44,7.2,3,10.74,4.79s7.09,3.82,10.6,6q4.65,2.91,9.25,6.17A187,187,0,0,0,784,740l-.4-1.05-4.57-2.43c-1.53-.78-3.1-1.51-4.63-2.24-3-1.47-6.24-2.74-9.3-4s-6.23-2.44-9.34-3.53-6.21-2.13-9.36-3.14c3.22.7,6.34,1.58,9.54,2.48s6.28,2,9.49,3.13,6.3,2.44,9.38,3.84c2.65,1.21,5.39,2.46,8,3.85a184.72,184.72,0,0,0-9.6-20.63l-.1,0c-5.17-2-10.34-3.69-15.5-5.33-2.58-.82-5.13-1.6-7.74-2.32s-5.13-1.49-7.72-2.23c2.64.42,5.23,1,7.84,1.53s5.22,1.23,7.81,1.92c2.41.63,4.81,1.31,7.18,2.08s4.8,1.54,7.16,2.42c-2.15-3.9-4.45-7.73-6.81-11.51-1.66-2.64-3.34-5.28-5.09-7.86l-.32-.09-9-2.43c-3-.83-6-1.62-9-2.54,3,.33,6.06.83,9.06,1.42,2.66.5,5.34,1.11,8,1.8-1.73-2.59-3.54-5.11-5.34-7.64-4-5.7-8.23-11.27-12.5-16.79C745.61,674,750,679.4,754.22,685c1.77,2.4,3.55,4.79,5.26,7.23.29-2.65.58-5.31.87-8,.19-1.61.38-3.21.55-4.81s.39-3.2.64-4.79c.08,1.67.06,3.32.08,5s-.09,3.28-.15,4.91c-.11,3.19-.38,6.35-.72,9.49,1.9,2.66,3.69,5.39,5.48,8.13,2.34,3.66,4.6,7.38,6.74,11.16.52-2.42.92-4.82,1.36-7.28s.83-4.91,1.22-7.38c.44-2.8.84-5.61,1.2-8.41l1.11-8.47c-.05,2.9-.2,5.82-.41,8.69s-.47,5.74-.79,8.57c-.61,5.52-1.5,10.94-2.6,16.24A187.58,187.58,0,0,1,783.93,736c1-2.69,1.77-5.37,2.61-8.14,1.05-3.44,1.83-6.9,2.77-10.45,1.65-7,3.06-14.31,4.26-21.57a179.73,179.73,0,0,1-3.19,22.08c-.76,3.62-1.6,7.08-2.61,10.56-.46,1.64-.92,3.24-1.42,4.84l-1.6,4.76.56,1.44a187.19,187.19,0,0,1,6.18,20.67c1.64-3.18,3.19-6.44,4.69-9.78,1.74-3.93,3.35-8,4.88-12.17s2.83-8.46,4.13-12.87,2.38-8.86,3.37-13.32a164.11,164.11,0,0,1-6.48,26.84c-1.41,4.27-3.05,8.33-4.77,12.31s-3.44,7.56-5.31,11.19c1.36,5.9,2.49,11.84,3.49,17.8l.76,4.94c1.92-3.08,3.8-6.19,5.64-9.36,2.15-3.66,4.21-7.43,6.24-11.25a231,231,0,0,0,11.15-24.27,171,171,0,0,1-10.23,25c-1.91,3.92-4,7.67-6.1,11.39s-4.2,7.2-6.36,10.72c1,7.15,1.9,14.33,2.74,21.51l-.18.15-.22-.1c-1-7-2-14-3.18-21Z" style="fill:#601246"/><path d="M869.36,651.77s1.54,3.79,3.52,10.28a224.6,224.6,0,0,1,6.31,26.38,207.79,207.79,0,0,1,3.29,35.38,133.58,133.58,0,0,1-4.86,37.52,99.88,99.88,0,0,1-14.23,29.92c-5.65,8-11.78,13.93-17.54,19.33s-11.07,10.11-15.11,13.93-6.83,6.49-7.59,7.14a103,103,0,0,1-.89-23.73,136.45,136.45,0,0,1,10.29-9.1c3.58-2.9,7.25-5.58,10.93-8.27s7.44-5.26,11.23-7.84,7.55-5.08,11.33-7.55c-3.95,2.19-7.9,4.49-11.74,6.89s-7.74,4.92-11.51,7.47-7.48,5.25-11.13,8.1c-3.11,2.45-6.21,5-9.2,7.82.16-1.82.36-3.64.58-5.46.8-6.58,2-13.11,3.38-19.6,3.77-2.7,7.45-5.34,11.25-7.88s7.82-5.15,11.77-7.68c7.82-5,15.82-9.71,23.71-14.36-8.2,4-16.34,8.49-24.32,13.26-4,2.35-8,4.89-11.91,7.47-3.37,2.18-6.64,4.45-10,6.77,1.65-7.71,3.67-15.35,5.75-23l.46-1.63c3.18-2,6.29-4,9.5-5.86l10.1-6c6.73-3.93,13.48-7.71,20.22-11.53-7,3.21-13.92,6.7-20.76,10.39-3.46,1.81-6.83,3.77-10.22,5.73q-4.12,2.39-8.18,4.87,3.39-12.1,7.4-24.06c5.29-3,10.67-5.86,15.95-8.8,5.45-3,10.9-5.92,16.31-9-5.66,2.42-11.25,5.05-16.81,7.79-4.94,2.42-9.8,5-14.68,7.65,1.54-4.52,3.08-9,4.71-13.54l3.64-10.14c3.15-1.64,6.33-3.25,9.44-5l4.77-2.62c1.57-.93,3.16-1.8,4.71-2.76-1.69.61-3.34,1.32-5,2l-5,2.18c-2.73,1.22-5.42,2.53-8.12,3.88l3.45-9.23c2.67-7.21,5.42-14.4,8.18-21.58-3,7.08-6,14.17-8.91,21.3l-3.79,9.56c-1.15-2.88-2.3-5.76-3.55-8.61-1.39-3.25-2.78-6.48-4.34-9.65.94,3.48,2,6.85,3.19,10.23s2.38,6.67,3.68,10l.13.35-3.68,9.67c-1.71,4.62-3.35,9.28-5,13.94q-3.42-8-6.85-15.89L830,700l-3.8-8.68c1,3.06,2,6.06,3.06,9.07l3.31,8.93c2.26,5.94,4.65,11.74,7.17,17.5l0,.11c-2.72,7.95-5.27,16-7.59,24.06-1.53-3-3-6.09-4.49-9.16-1.69-3.62-3.38-7.25-5.07-10.86s-3.36-7.3-5-11-3.31-7.35-5-11c1.32,3.85,2.79,7.65,4.23,11.45s3,7.51,4.57,11.22,3.24,7.37,4.88,11,3.41,7.19,5.13,10.72l-.35,1.2c-2.07,7.8-4,15.62-5.68,23.53-2.12-3.66-4.28-7.4-6.29-11.16-2.32-4.24-4.53-8.58-6.75-12.9s-4.37-8.72-6.51-13.17-4.2-8.87-6.33-13.35c1.8,4.7,3.67,9.24,5.62,13.82s4,9,6.12,13.45,4.33,8.76,6.57,13,4.64,8.49,7,12.61l.06.1c-1.3,6.38-2.41,12.82-3.15,19.3-.21,2-.37,4-.51,5.95-2.65-3.38-5.18-7-7.61-10.65-2.69-4.06-5.2-8.31-7.73-12.54s-4.93-8.52-7.29-12.84-4.72-8.67-7.07-13c2,4.62,4.17,9.1,6.39,13.58s4.53,8.8,6.92,13.16,5,8.61,7.6,12.74S818,804.3,821,808l.22.28a98.9,98.9,0,0,0,1.51,23.43,43.74,43.74,0,0,1-9.37-5.4,60.87,60.87,0,0,1-15.89-18.09,86.15,86.15,0,0,1-10.73-32.14,97.15,97.15,0,0,1,3.11-40.32A112.85,112.85,0,0,1,810,697.47a148.81,148.81,0,0,1,26.75-25.94,184.69,184.69,0,0,1,22.95-14.88C865.61,653.4,869.36,651.77,869.36,651.77Z" style="fill:#e158af"/><path d="M821,808c-3-3.73-5.77-7.71-8.43-11.84s-5.23-8.37-7.6-12.74-4.7-8.76-6.92-13.16-4.37-9-6.39-13.58c2.35,4.38,4.62,8.75,7.07,13s4.77,8.58,7.29,12.84,5,8.48,7.73,12.54c2.43,3.69,5,7.27,7.61,10.65.14-2,.3-4,.51-5.95.74-6.48,1.85-12.92,3.15-19.3l-.06-.1c-2.35-4.12-4.74-8.34-7-12.61s-4.53-8.61-6.57-13-4.13-8.91-6.12-13.45-3.82-9.12-5.62-13.82c2.13,4.48,4.16,8.94,6.33,13.35s4.25,8.82,6.51,13.17,4.43,8.66,6.75,12.9c2,3.76,4.17,7.5,6.29,11.16,1.63-7.91,3.61-15.73,5.68-23.53l.35-1.2c-1.72-3.53-3.49-7.12-5.13-10.72s-3.37-7.28-4.88-11-3.1-7.47-4.57-11.22-2.91-7.6-4.23-11.45q2.47,5.5,5,11c1.61,3.68,3.28,7.34,5,11s3.38,7.24,5.07,10.86c1.45,3.07,3,6.13,4.49,9.16,2.32-8.09,4.87-16.11,7.59-24.06l0-.11c-2.52-5.76-4.91-11.56-7.17-17.5l-3.31-8.93c-1-3-2.09-6-3.06-9.07L830,700l3.73,8.7q3.42,7.93,6.85,15.89c1.62-4.66,3.26-9.32,5-13.94l3.68-9.67-.13-.35c-1.3-3.3-2.54-6.59-3.68-10s-2.25-6.75-3.19-10.23c1.56,3.17,2.95,6.4,4.34,9.65,1.25,2.85,2.4,5.73,3.55,8.61l3.79-9.56c2.91-7.13,5.91-14.22,8.91-21.3-2.76,7.18-5.51,14.37-8.18,21.58l-3.45,9.23c2.7-1.35,5.39-2.66,8.12-3.88l5-2.18c1.67-.67,3.32-1.38,5-2-1.55,1-3.14,1.83-4.71,2.76L859.79,696c-3.11,1.71-6.29,3.32-9.44,5l-3.64,10.14c-1.63,4.5-3.17,9-4.71,13.54,4.88-2.66,9.74-5.23,14.68-7.65,5.56-2.74,11.15-5.37,16.81-7.79-5.41,3.05-10.86,6-16.31,9-5.28,2.94-10.66,5.81-15.95,8.8q-4,12-7.4,24.06,4-2.49,8.18-4.87c3.39-2,6.76-3.92,10.22-5.73C859.07,736.72,866,733.23,873,730c-6.74,3.82-13.49,7.6-20.22,11.53l-10.1,6c-3.21,1.9-6.32,3.86-9.5,5.86l-.46,1.63c-2.08,7.61-4.1,15.25-5.75,23,3.32-2.32,6.59-4.59,10-6.77,3.94-2.58,7.87-5.12,11.91-7.47,8-4.77,16.12-9.21,24.32-13.26-7.89,4.65-15.89,9.36-23.71,14.36-4,2.53-7.86,5-11.77,7.68s-7.48,5.18-11.25,7.88c-1.38,6.49-2.58,13-3.38,19.6-.22,1.82-.42,3.64-.58,5.46,3-2.78,6.09-5.37,9.2-7.82,3.65-2.85,7.34-5.56,11.13-8.1s7.63-5,11.51-7.47,7.79-4.7,11.74-6.89c-3.78,2.47-7.59,5-11.33,7.55s-7.53,5.18-11.23,7.84-7.35,5.37-10.93,8.27a136.45,136.45,0,0,0-10.29,9.1,103,103,0,0,0,.89,23.73l-.21.19-.26-.1a98.9,98.9,0,0,1-1.51-23.43Z" style="fill:#601246"/></g><g style="clip-path:url(#clip-path-2)"><path d="M137.85,699.41s2.56.33,6.77,1.33a99,99,0,0,1,16.73,5.55,81.34,81.34,0,0,1,21.14,13.24,72,72,0,0,1,10,10.85,67.2,67.2,0,0,1,8,14.1,62.12,62.12,0,0,1,4.05,14.91,56.54,56.54,0,0,1,.3,13A54.6,54.6,0,0,1,199.18,792a59.57,59.57,0,0,1-7.92,11.82,46.09,46.09,0,0,1-4.64,4.77c-.6-5.14-1.23-10.27-2-15.4,1.54-2.52,3.07-5.07,4.55-7.68s3-5.34,4.37-8.15a120.6,120.6,0,0,0,7.32-17.91,164.94,164.94,0,0,1-8,17.38c-1.46,2.73-2.93,5.43-4.46,8.05q-2,3.4-4,6.7l-.55-3.54c-.71-4.26-1.52-8.52-2.5-12.74q2-3.9,3.81-8c1.23-2.85,2.4-5.76,3.41-8.81a118,118,0,0,0,4.64-19.22c-.71,3.19-1.56,6.43-2.41,9.53s-1.86,6.22-3,9.22-2.25,5.9-3.5,8.71c-1.07,2.4-2.18,4.73-3.36,7a132.48,132.48,0,0,0-4.42-14.81l-.4-1,1.14-3.41c.36-1.15.69-2.3,1-3.47.71-2.49,1.32-5,1.86-7.56a130.81,130.81,0,0,0,2.29-15.81c-.86,5.2-1.87,10.43-3.05,15.45-.67,2.54-1.23,5-2,7.47-.6,2-1.16,3.91-1.86,5.84a134.19,134.19,0,0,0-7.08-14.82q1.2-5.68,1.87-11.63c.22-2,.43-4.08.57-6.13s.26-4.15.29-6.22c-.26,2-.53,4-.79,6.06s-.55,4-.87,6c-.27,1.76-.55,3.52-.87,5.28s-.6,3.47-1,5.21c-1.53-2.71-3.15-5.37-4.82-8-1.28-2-2.57-3.92-3.92-5.82.24-2.25.44-4.51.52-6.8,0-1.16.08-2.35.1-3.52s0-2.35-.05-3.55c-.19,1.14-.31,2.29-.47,3.43s-.25,2.29-.39,3.44c-.21,1.89-.41,3.79-.62,5.7-1.23-1.75-2.5-3.47-3.77-5.18-3-4-6.16-7.88-9.34-11.74,3.05,4,6.07,7.94,9,12,1.29,1.82,2.59,3.62,3.82,5.47-1.89-.49-3.81-.92-5.71-1.28-2.15-.43-4.33-.79-6.49-1,2.13.66,4.28,1.23,6.41,1.82l6.45,1.74.23.06c1.26,1.85,2.45,3.74,3.64,5.63,1.7,2.71,3.34,5.45,4.88,8.24-1.69-.63-3.42-1.19-5.13-1.73s-3.41-1-5.13-1.49-3.73-1-5.6-1.38-3.72-.79-5.61-1.09c1.85.53,3.69,1,5.53,1.59s3.69,1.08,5.54,1.67c3.69,1.17,7.39,2.4,11.09,3.81l.08,0A132.74,132.74,0,0,1,174.8,757c-1.87-1-3.82-1.89-5.72-2.76-2.2-1-4.5-1.92-6.72-2.74s-4.51-1.57-6.8-2.25-4.52-1.27-6.82-1.77c2.25.72,4.45,1.44,6.7,2.25s4.46,1.62,6.69,2.52,4.47,1.84,6.65,2.9c1.1.52,2.23,1,3.32,1.6l3.27,1.74.29.76a133.45,133.45,0,0,1,4.57,14.94c-2.18-1.55-4.4-3-6.62-4.42-2.51-1.54-5-3-7.59-4.28s-5.16-2.39-7.69-3.43-5.17-1.9-7.83-2.66c2.57,1,5.07,2,7.63,3.11,1.26.55,2.52,1.14,3.8,1.75s2.5,1.26,3.77,1.94c2.5,1.38,5,2.83,7.49,4.43s4.94,3.29,7.36,5.09l.06,0c1,4.1,1.79,8.24,2.52,12.39l.66,3.8q-3.12-2.62-6.28-5.12c-2.34-1.82-4.67-3.62-7.07-5.26s-4.79-3.21-7.21-4.65-4.88-2.74-7.35-3.87c2.36,1.32,4.76,2.73,7.1,4.29s4.72,3.18,7.06,4.91,4.66,3.53,7,5.4,4.6,3.79,6.87,5.76l.17.15c.81,5,1.54,10,2.28,15.05a50.12,50.12,0,0,1-5.72-3.38,81.32,81.32,0,0,1-10.83-8.8,95.2,95.2,0,0,1-11.73-13.66,92.26,92.26,0,0,1-5.12-8.1,76.13,76.13,0,0,1-4.27-8.84,86.1,86.1,0,0,1-3.47-10.12c-1-3.5-1.87-7.11-2.64-10.77-1.53-7.31-2.69-14.81-3.46-21.58s-1.13-12.77-1.25-17.06S137.85,699.41,137.85,699.41Z" style="fill:#a21a70"/><path d="M183.88,793.4q-3.4-3-6.87-5.76c-2.31-1.87-4.65-3.65-7-5.4s-4.68-3.38-7.06-4.91-4.74-3-7.1-4.29c2.47,1.13,4.92,2.45,7.35,3.87s4.83,3,7.21,4.65,4.73,3.44,7.07,5.26q3.17,2.49,6.28,5.12l-.66-3.8c-.73-4.15-1.55-8.29-2.52-12.39l-.06,0q-3.63-2.7-7.36-5.09c-2.47-1.6-5-3-7.49-4.43-1.27-.68-2.5-1.33-3.77-1.94s-2.54-1.2-3.8-1.75c-2.56-1.14-5.06-2.15-7.63-3.11,2.66.76,5.18,1.68,7.83,2.66s5.16,2.16,7.69,3.43,5.08,2.74,7.59,4.28c2.22,1.39,4.44,2.87,6.62,4.42a133.45,133.45,0,0,0-4.57-14.94l-.29-.76-3.27-1.74c-1.09-.56-2.22-1.08-3.32-1.6-2.18-1.06-4.46-2-6.65-2.9s-4.46-1.74-6.69-2.52-4.45-1.53-6.7-2.25c2.3.5,4.54,1.13,6.82,1.77s4.5,1.44,6.8,2.25,4.52,1.74,6.72,2.74c1.9.87,3.85,1.77,5.72,2.76a132.74,132.74,0,0,0-6.87-14.77l-.08,0c-3.7-1.41-7.4-2.64-11.09-3.81-1.85-.59-3.68-1.15-5.54-1.67s-3.68-1.06-5.53-1.59c1.89.3,3.74.7,5.61,1.09s3.74.88,5.6,1.38,3.44.94,5.13,1.49,3.44,1.1,5.13,1.73c-1.54-2.79-3.18-5.53-4.88-8.24-1.19-1.89-2.38-3.78-3.64-5.63l-.23-.06L152,725.14c-2.13-.59-4.28-1.16-6.41-1.82,2.16.23,4.34.59,6.49,1,1.9.36,3.82.79,5.71,1.28-1.23-1.85-2.53-3.65-3.82-5.47-2.88-4.08-5.9-8.06-9-12,3.18,3.86,6.32,7.74,9.34,11.74,1.27,1.71,2.54,3.43,3.77,5.18.21-1.91.41-3.81.62-5.7.14-1.15.27-2.3.39-3.44s.28-2.29.47-3.43c.05,1.2,0,2.37.05,3.55s-.06,2.36-.1,3.52c-.08,2.29-.28,4.55-.52,6.8,1.35,1.9,2.64,3.86,3.92,5.82,1.67,2.62,3.29,5.28,4.82,8,.38-1.74.67-3.46,1-5.21s.6-3.52.87-5.28c.32-2,.6-4,.87-6s.53-4,.79-6.06c0,2.07-.14,4.16-.29,6.22s-.35,4.11-.57,6.13q-.66,5.94-1.87,11.63a134.19,134.19,0,0,1,7.08,14.82c.7-1.93,1.26-3.85,1.86-5.84.76-2.46,1.32-4.93,2-7.47,1.18-5,2.19-10.25,3.05-15.45a130.81,130.81,0,0,1-2.29,15.81c-.54,2.6-1.15,5.07-1.86,7.56-.34,1.17-.67,2.32-1,3.47l-1.14,3.41.4,1A132.48,132.48,0,0,1,181,773.7c1.18-2.28,2.29-4.61,3.36-7,1.25-2.81,2.4-5.74,3.5-8.71s2-6.06,3-9.22,1.7-6.34,2.41-9.53a118,118,0,0,1-4.64,19.22c-1,3-2.18,6-3.41,8.81s-2.47,5.41-3.81,8c1,4.22,1.79,8.48,2.5,12.74l.55,3.54q2.06-3.3,4-6.7c1.53-2.62,3-5.32,4.46-8.05a164.94,164.94,0,0,0,8-17.38,120.6,120.6,0,0,1-7.32,17.91c-1.37,2.81-2.87,5.5-4.37,8.15s-3,5.16-4.55,7.68c.73,5.13,1.36,10.26,2,15.4l-.13.11-.16-.07c-.74-5-1.47-10-2.28-15.05Z" style="fill:#601246"/><path d="M236.76,696.09s1.11,2.71,2.52,7.36a161.21,161.21,0,0,1,4.52,18.89,148.61,148.61,0,0,1,2.35,25.33,95.24,95.24,0,0,1-3.48,26.86A71.54,71.54,0,0,1,232.49,796a90,90,0,0,1-12.56,13.85c-4.1,3.81-7.93,7.23-10.82,10s-4.89,4.65-5.44,5.11a73.74,73.74,0,0,1-.63-17c2.37-2.33,4.84-4.49,7.36-6.52s5.2-4,7.83-5.91,5.33-3.77,8-5.62,5.41-3.64,8.11-5.41c-2.82,1.57-5.65,3.22-8.4,4.94s-5.55,3.52-8.24,5.35-5.36,3.76-8,5.79c-2.23,1.76-4.45,3.62-6.59,5.6.11-1.3.26-2.6.42-3.9.57-4.71,1.43-9.39,2.41-14,2.7-1.93,5.34-3.82,8.06-5.64s5.6-3.69,8.42-5.5c5.61-3.58,11.34-6.95,17-10.28-5.87,2.9-11.7,6.08-17.41,9.49-2.89,1.69-5.7,3.5-8.52,5.35-2.42,1.57-4.76,3.19-7.14,4.85,1.18-5.52,2.63-11,4.12-16.44l.33-1.17c2.27-1.43,4.5-2.83,6.8-4.19l7.23-4.27c4.82-2.81,9.66-5.52,14.48-8.26-5,2.3-10,4.8-14.87,7.44-2.47,1.3-4.88,2.7-7.31,4.11-2,1.13-3.92,2.3-5.86,3.49q2.43-8.68,5.3-17.23c3.79-2.14,7.64-4.2,11.42-6.3s7.81-4.24,11.68-6.43c-4.06,1.73-8.06,3.62-12,5.59-3.54,1.72-7,3.57-10.51,5.47,1.1-3.24,2.21-6.48,3.37-9.69l2.61-7.27c2.25-1.17,4.53-2.32,6.76-3.55l3.41-1.87c1.13-.67,2.27-1.29,3.38-2-1.21.44-2.39,1-3.59,1.42l-3.54,1.57c-2,.87-3.89,1.81-5.82,2.77l2.47-6.6c1.91-5.17,3.88-10.31,5.86-15.46-2.15,5.08-4.3,10.15-6.38,15.25L223,729.69c-.82-2.06-1.64-4.13-2.54-6.17-1-2.32-2-4.64-3.1-6.91.67,2.5,1.45,4.91,2.28,7.33s1.71,4.78,2.63,7.14l.1.25-2.64,6.93q-1.83,5-3.55,10-2.46-5.68-4.91-11.37l-2.67-6.23-2.72-6.22c.69,2.2,1.46,4.34,2.19,6.5l2.37,6.39c1.62,4.25,3.33,8.41,5.13,12.53l0,.08q-2.93,8.55-5.44,17.23c-1.09-2.17-2.17-4.36-3.21-6.56l-3.63-7.78c-1.21-2.6-2.41-5.23-3.56-7.86s-2.37-5.26-3.55-7.89c.94,2.76,2,5.48,3,8.2s2.16,5.38,3.27,8,2.32,5.28,3.5,7.88,2.43,5.15,3.66,7.67l-.24.86c-1.49,5.59-2.9,11.19-4.07,16.85-1.52-2.62-3.07-5.3-4.5-8-1.67-3-3.25-6.14-4.84-9.23s-3.13-6.25-4.65-9.43-3-6.35-4.54-9.56c1.29,3.36,2.63,6.61,4,9.89s2.86,6.45,4.37,9.63,3.11,6.28,4.71,9.34,3.32,6.08,5,9l0,.07c-.93,4.57-1.73,9.17-2.25,13.82-.16,1.41-.27,2.83-.37,4.26q-2.85-3.64-5.45-7.63c-1.93-2.91-3.73-6-5.54-9s-3.52-6.1-5.22-9.19-3.38-6.21-5.06-9.34c1.45,3.3,3,6.51,4.57,9.72s3.25,6.3,5,9.42,3.55,6.17,5.44,9.13,3.91,5.8,6,8.47l.16.2a70.31,70.31,0,0,0,1.08,16.77,30.26,30.26,0,0,1-6.71-3.86,43.65,43.65,0,0,1-11.38-13,61.52,61.52,0,0,1-7.68-23,69.63,69.63,0,0,1,2.23-28.86,80.61,80.61,0,0,1,14.42-27.44,107.08,107.08,0,0,1,19.15-18.58,133.45,133.45,0,0,1,16.44-10.64C234.08,697.25,236.76,696.09,236.76,696.09Z" style="fill:#e158af"/><path d="M202.1,808c-2.13-2.67-4.13-5.52-6-8.47s-3.74-6-5.44-9.13-3.36-6.27-5-9.42-3.12-6.42-4.57-9.72c1.68,3.13,3.31,6.26,5.06,9.34s3.42,6.14,5.22,9.19,3.61,6.07,5.54,9q2.61,4,5.45,7.63c.1-1.43.21-2.85.37-4.26.52-4.65,1.32-9.25,2.25-13.82l0-.07c-1.69-3-3.4-6-5-9s-3.24-6.17-4.71-9.34-2.95-6.38-4.37-9.63-2.74-6.53-4-9.89c1.53,3.21,3,6.4,4.54,9.56s3,6.31,4.65,9.43,3.17,6.2,4.84,9.23c1.43,2.69,3,5.37,4.5,8,1.17-5.66,2.58-11.26,4.07-16.85l.24-.86c-1.23-2.52-2.49-5.1-3.66-7.67s-2.42-5.22-3.5-7.88-2.22-5.35-3.27-8-2.09-5.44-3-8.2q1.77,3.94,3.55,7.89c1.15,2.63,2.35,5.26,3.56,7.86l3.63,7.78c1,2.2,2.12,4.39,3.21,6.56q2.5-8.68,5.44-17.23l0-.08c-1.8-4.12-3.51-8.28-5.13-12.53l-2.37-6.39c-.73-2.16-1.5-4.3-2.19-6.5l2.72,6.22,2.67,6.23q2.44,5.68,4.91,11.37,1.72-5,3.55-10l2.64-6.93-.1-.25c-.92-2.36-1.81-4.72-2.63-7.14s-1.61-4.83-2.28-7.33c1.11,2.27,2.11,4.59,3.1,6.91.9,2,1.72,4.11,2.54,6.17l2.72-6.85c2.08-5.1,4.23-10.17,6.38-15.25-2,5.15-4,10.29-5.86,15.46l-2.47,6.6c1.93-1,3.86-1.9,5.82-2.77l3.54-1.57c1.2-.47,2.38-1,3.59-1.42-1.11.69-2.25,1.31-3.38,2l-3.41,1.87c-2.23,1.23-4.51,2.38-6.76,3.55l-2.61,7.27c-1.16,3.21-2.27,6.45-3.37,9.69,3.49-1.9,7-3.75,10.51-5.47,4-2,8-3.86,12-5.59-3.87,2.19-7.78,4.29-11.68,6.43s-7.63,4.16-11.42,6.3q-2.87,8.55-5.3,17.23c1.94-1.19,3.89-2.36,5.86-3.49,2.43-1.41,4.84-2.81,7.31-4.11,4.9-2.64,9.85-5.14,14.87-7.44-4.82,2.74-9.66,5.45-14.48,8.26l-7.23,4.27c-2.3,1.36-4.53,2.76-6.8,4.19l-.33,1.17c-1.49,5.45-2.94,10.92-4.12,16.44,2.38-1.66,4.72-3.28,7.14-4.85,2.82-1.85,5.63-3.66,8.52-5.35,5.71-3.41,11.54-6.59,17.41-9.49-5.64,3.33-11.37,6.7-17,10.28-2.82,1.81-5.62,3.61-8.42,5.5s-5.36,3.71-8.06,5.64c-1,4.65-1.84,9.33-2.41,14-.16,1.3-.31,2.6-.42,3.9,2.14-2,4.36-3.84,6.59-5.6,2.61-2,5.25-4,8-5.79s5.46-3.62,8.24-5.35,5.58-3.37,8.4-4.94c-2.7,1.77-5.43,3.57-8.11,5.41s-5.39,3.71-8,5.62-5.26,3.84-7.83,5.91-5,4.19-7.36,6.52a73.74,73.74,0,0,0,.63,17l-.15.14-.18-.08a70.31,70.31,0,0,1-1.08-16.77Z" style="fill:#601246"/></g><ellipse cx="522.35" cy="826.62" rx="417.65" ry="34.18" style="fill:#d3d3d3"/><path d="M482.11,174.65h-53.9c2.05,8.14-4.34,15.3-6.89,22.87a32.38,32.38,0,0,0-1.09,18.58,25.32,25.32,0,0,0,13.59,16.12c9,4.27,21.79,3.68,31.54,2.26,11.77-1.72,21.87-7.51,24.75-18.38A32.47,32.47,0,0,0,489,197.52C486.47,190,480.06,182.79,482.11,174.65Z" style="fill:#303030"/><path d="M492.25,204.12c-4.78-7.5-20.43-10.25-27.71-11.15v-.05l-.58,0c-2-.23-3.22-.31-3.22-.31l-3.93.11-3.93-.11s-1.24.08-3.22.31l-.58,0V193c-7.28.9-22.93,3.65-27.71,11.15-3.61,5.66,4.16,36.45,6.68,61.76a122.56,122.56,0,0,1-1.64,34.76h60.8A164.18,164.18,0,0,1,486,261.59C488.31,237.21,495.65,209.46,492.25,204.12Z" style="fill:#c64593"/><polygon points="469.28 253.32 451.16 253.42 450.75 221.99 468.87 221.89 469.28 253.32" style="fill:#303030"/><path d="M469.08,238.19a1.11,1.11,0,0,0-1.56-.08s-4,3.27-4.06,3.16,5.4-5.32,5.4-5.32a1.1,1.1,0,0,0-1.47-1.64s-5.58,4.74-5.65,4.66,5.5-5.58,5.5-5.58a1.09,1.09,0,0,0,.08-1.55,1.11,1.11,0,0,0-1.56-.09s-6,5.13-6.07,5.05,4.74-4.76,4.74-4.76A1.1,1.1,0,1,0,463,230.4l-5.22,4.71c-.09-.07-5.41,4.8-6.76,4.11l0-1.59a3.12,3.12,0,0,0-2.49,2.34,6.22,6.22,0,0,0-.06,2.94c.15.79,0,1.6.13,2.4a9,9,0,0,0,.56,2.16c-.17.1-17.31,8.59-33.4,17.4,6.46-19.73,22.34-47.15,22.34-47.15a12.28,12.28,0,0,0-16.18-16l-1,.42a12.25,12.25,0,0,0-7.12,8.38s-20,51.31-16.79,68.7a20.21,20.21,0,0,0,.91,3.31c14.43,7.61,54.88-29.65,55.35-30.12a35.93,35.93,0,0,0,11.56-8.89l4.21-3.8A1.11,1.11,0,0,0,469.08,238.19Z" style="fill:#ffbeac"/><path d="M425.64,247c7.92-16.79,16.47-31.54,16.47-31.54,1.45-3.54,1.9-17.94.46-21.48,0,0-13,.85-20,3.25a14.55,14.55,0,0,0-9.3,9.72s-5.19,13.35-10.32,29.65C409.75,241.93,417.47,245,425.64,247Z" style="fill:#c64593"/><path d="M455.45,215.15c-6.27.28-12.73-12.09-12.73-20,0-14.94,24.39-15.77,24.39-.49C467.11,201.92,461.36,214.89,455.45,215.15Z" style="fill:#ffbeac"/><path d="M476.62,175.22a30.84,30.84,0,0,1-5.23,17.54c-3.92,5.66-12.73,9.08-16.16,9.24-2.94,0-12.46-3.71-16.39-9.56a31,31,0,0,1-5-17.22c0-14.79,9.58-20.9,21.4-20.9S476.62,160.43,476.62,175.22Z" style="fill:#ffbeac"/><path d="M483.3,170.09c0-.28,0-.57,0-.85a34.06,34.06,0,0,0-3.43-12.35,25.59,25.59,0,0,0-7.27-9.43c-6.72-5.23-16.6-5.19-24.59-3A25.84,25.84,0,0,0,435.56,152a27.68,27.68,0,0,0-4.09,6.17c-1.2,2.43-2,5-3.61,7.28-5.34,7.63,0,13.94,4.55,15.83a18.23,18.23,0,0,0,5.77,10.23c-3.07-5.6-2.78-8.23-2.69-9.45a18.13,18.13,0,0,0,4.33-.77,41.15,41.15,0,0,0,4.33-1.73s14.4,14.19,30.07,6.22C479.68,183,483.27,176.06,483.3,170.09Z" style="fill:#303030"/><g style="isolation:isolate"><path d="M398.27,534.6,438.83,529c-44.45,6.18-85.89,26.35-119.55,58.74a41.32,41.32,0,0,1-23,11.3l-40.56,5.63a41.3,41.3,0,0,0,23-11.29C312.38,561,353.83,540.77,398.27,534.6Z" style="fill:#ffa71f"/><path d="M377.64,370.15l40.56-5.64c-72.9,10.13-140.83,43.3-195.93,96.54a41.38,41.38,0,0,1-23.1,11.36L158.62,478a41.28,41.28,0,0,0,23.09-11.35C236.81,413.44,304.74,380.27,377.64,370.15Z" style="fill:#ffa71f"/><path d="M418.6,610.06l40.56-5.64a95.44,95.44,0,0,1,17.88-.76l-40.56,5.64A93.82,93.82,0,0,0,418.6,610.06Z" style="fill:#ffc64d"/><path d="M385.51,443.86l40.55-5.63a296.88,296.88,0,0,1,56.2-2.4l-40.55,5.63A297.67,297.67,0,0,0,385.51,443.86Z" style="fill:#ffc64d"/><path d="M364.85,279.44l40.55-5.64a433.76,433.76,0,0,1,82-3.5l-40.56,5.64A432,432,0,0,0,364.85,279.44Z" style="fill:#ffc64d"/><ellipse cx="433.21" cy="714.39" rx="99.35" ry="105.33" transform="translate(-94.19 66.42) rotate(-7.91)" style="fill:#ffc682"/><path d="M488.37,813.09l-40.56,5.64c46.67-6.49,83.2-47.59,84.81-99.2,1.81-58-41.24-107.4-96.14-110.23L477,603.66c54.9,2.84,97.95,52.2,96.14,110.24C571.57,765.5,535,806.61,488.37,813.09Z" style="fill:#ffa71f"/><path d="M675.11,620.88l-40.55,5.64a41.39,41.39,0,0,0,23.05-11.31c17.51-16.86,18.58-45.78,2.35-64.6-57-66-134.48-104.81-218.25-109.15l40.55-5.63C566,440.16,643.56,478.93,700.52,545c16.23,18.82,15.16,47.74-2.35,64.59A41.39,41.39,0,0,1,675.11,620.88Z" style="fill:#ffa71f"/><path d="M441.71,441.46C525.48,445.8,603,484.57,660,550.61c16.23,18.82,15.16,47.74-2.35,64.6a41.14,41.14,0,0,1-30.81,11.64,43,43,0,0,1-30.32-15.16C555.35,564,499.37,536,438.86,532.86c-59.53-3.08-116.4,18.39-160.14,60.48A41.1,41.1,0,0,1,247.92,605a42.91,42.91,0,0,1-30.3-15.15C201.38,571,202.45,542.08,220,525.2,280.52,466.94,359.27,437.2,441.71,441.46Z" style="fill:#ffc682"/><path d="M779.78,504.7l-40.56,5.64A41.16,41.16,0,0,0,762.29,499c17.5-16.9,18.5-45.83,2.25-64.6-83-95.88-195.84-152.15-317.68-158.45l40.56-5.64c121.84,6.3,234.65,62.57,317.67,158.45,16.26,18.78,15.25,47.7-2.24,64.6A41.13,41.13,0,0,1,779.78,504.7Z" style="fill:#ffa71f"/><path d="M446.86,275.94c121.84,6.3,234.66,62.57,317.68,158.45,16.25,18.77,15.25,47.7-2.25,64.6a41,41,0,0,1-30.85,11.68,42.89,42.89,0,0,1-30.26-15.08C634,418,542.66,372.41,444,367.31c-97.6-5-190.76,30.25-262.31,99.38a41.13,41.13,0,0,1-30.86,11.69,43,43,0,0,1-30.25-15.09c-16.26-18.78-15.25-47.71,2.24-64.6C211.21,313.28,326.3,269.7,446.86,275.94Z" style="fill:#ffc682"/></g><polygon points="742.19 747.15 748.51 692.87 745.5 692.87 732.49 747.15 742.19 747.15" style="fill:#efefef"/><polygon points="742.19 747.15 687.91 747.15 687.91 744.13 742.19 737.45 742.19 747.15" style="fill:#efefef"/><polygon points="742.19 747.15 687.91 747.15 687.91 744.13 742.19 743.15 742.19 747.15" style="fill:#303030"/><polygon points="742.19 747.15 748.51 692.87 745.5 692.87 738.19 747.15 742.19 747.15" style="fill:#303030"/><path d="M798.15,807.89c-66.89,12.21-107,1-107,1-28.59,3.77-69,6.06-69,6.06C593.75,836.05,574,807.1,574,807.1l5.36-36.25s48.59-10.34,124.11,16l95.68,12Z" style="fill:#3f3f3f"/><polygon points="798.18 807.79 811.47 807.64 810.65 800.71 799.15 798.9 798.18 807.79" style="fill:#ffbeac"/><path d="M811.47,807.64h0c4.28,2.05,6.87,2.9,10.26-.43l11.68-15.12c1.56-2-.22-5.08-2.69-4.46l-.06,0h0c-1,.27-20,13.06-20,13.06Z" style="fill:#303030"/><path d="M709.11,722.45c-1.57-1.43-3.31-2.9-5.48-3.26-3.26-.55-10.87,1.15-11.06,1.35-5.42,1-47.31,8.29-55.6,6.66-14.61-4.76-45-41.88-45-41.88a11.47,11.47,0,0,0-19.28,8.91l0,1a11.49,11.49,0,0,0,5,9s38.31,34.31,54.57,37.26c14.07,2.54,54.36-12.05,62.44-15.11,1.29,1.73,1.18,4,3.2,4.53a11.87,11.87,0,0,0,4.34.11,3.15,3.15,0,0,0,1.42.83,10.18,10.18,0,0,0,5.93-.29,36.9,36.9,0,0,0,.41,5.61c.4,2,2.65,2.56,2.66,1.09C712.56,732.69,713.58,726.53,709.11,722.45Z" style="fill:#ffbeac"/><path d="M573.28,689.46c-11.9,15.54-27,46.13-14.36,92.7l46.74-3s-7.09-22.21-6.42-38.63c28.36-15.48,7.41-19.83,6.39-49.7C598,680,581.3,679,573.28,689.46Z" style="fill:#c64593"/><path d="M631,744.09c-13.59-7.19-37.2-49-37.2-49a11.46,11.46,0,0,0-7.49-4.42h0a11.48,11.48,0,0,0-13,9.89l-.13,1a11.48,11.48,0,0,0,3.39,9.71s31.88,40.36,47.39,46c15,5.5,63.88-4.42,63.88-4.42l-.29-5.89S639.44,747.33,631,744.09Z" style="fill:#ffbeac"/><path d="M603.9,711.71c-5.88-9.13-10.09-16.57-10.09-16.57a11.47,11.47,0,0,0-20.52,5.47l-.13,1a11.48,11.48,0,0,0,3.39,9.71s4,5.07,9.86,11.86C593.38,721.14,599.12,717,603.9,711.71Z" style="fill:#c64593"/><path d="M714,749.68c-7-1.84-11.55,4.64-26.2,3.24l-.29-5.89H714A1.66,1.66,0,0,1,714,749.68Z" style="fill:#ffbeac"/><path d="M585.91,679.34s11.18-5.3,12-18.06l15.5,7.26s-7.85,5.7-7.75,22.28Z" style="fill:#ffbeac"/><path d="M609.41,674.09l.14.1a11.84,11.84,0,0,0,8.84,2.24c6.31-1.18,10.66-7.52,15.25-16.47,8.41-16.4,1.46-29-8.87-32.92-13.87-5.3-36.53-3.32-28.51,27.83A33.82,33.82,0,0,0,609.41,674.09Z" style="fill:#ffbeac"/><path d="M647.69,636.18c-3.45-2.71-8.34-3.11-13.16-2.95a1.28,1.28,0,0,0-.35-.91c-7.3-7.78-16.21-12-26.94-9.3-10.27,2.6-18,9.06-19.63,19.62-1.69,10.93-7.25,14.86-16.88,19a36.78,36.78,0,0,0-12.35,8.08c-7.32,7.56-10.13,17.74-8.85,27.93-4.9,6.72-11.13,11.91-9.44,21.23a15.16,15.16,0,0,0,4.25,8,16.18,16.18,0,0,0,4.75,3.31c10.78,4.78,20.41-3.56,20.62-13.07.18-8.71,4.16-16.72,12.35-20.45,2.56-1.17,5.33-1.81,8-2.72a25.48,25.48,0,0,0,12.7-10.12c3.47-5.15,3.39-10.67,1.94-16.54-1.24-5-3-10.78-.1-15.59,2.39-4,6.3-6,10.62-7,8.18,7.36,25.82,12.84,34.22,2.86C652.53,644,651.32,639,647.69,636.18Z" style="fill:#303030"/><path d="M606.76,651.23c-1.58-2.4-5.26-3.68-7.34-1.24-2.6,3.06.72,6.72,5,6.68A14.26,14.26,0,0,1,606.76,651.23Z" style="fill:#ffbeac"/><path d="M558.92,782.16s5.78,43,31.16,43.22c17.21.13,24.82-4.27,32.29-8.67,13.68-8.06,37.31-16,56.16-33.54,0,0,10.8,18.34,53.77,46.48l8-7.28s-40.65-56.87-53.1-65.17a7.19,7.19,0,0,0-2.09-1c-21.55-6-79.49,22.9-79.49,22.9Z" style="fill:#303030"/><polygon points="732.3 829.65 742.61 837.86 747.38 832.59 740.35 822.37 732.3 829.65" style="fill:#ffbeac"/><path d="M742.61,837.86h0a11.26,11.26,0,0,0,10.6,7.44h0a2,2,0,0,0,1.47-.63L771.36,827a3.11,3.11,0,0,0-.74-4.84h0a3.09,3.09,0,0,0-2.88-.08l-20.86,10.23Z" style="fill:#303030"/><polygon points="728.3 646.41 674.88 646.41 674.88 683.68 693.54 683.68 697.4 690.38 701.59 697.63 705.78 690.38 709.64 683.68 728.3 683.68 728.3 646.41" style="fill:#911969"/><rect x="680.35" y="655.07" width="43.49" height="2.74" style="fill:#fff"/><rect x="680.35" y="660.55" width="43.49" height="2.74" style="fill:#fff"/><rect x="680.35" y="666.02" width="43.49" height="2.74" style="fill:#fff"/><rect x="680.35" y="671.49" width="28.66" height="2.74" style="fill:#fff"/><polygon points="348.4 574.64 285.03 574.64 285.03 618.85 307.17 618.85 311.75 626.79 316.72 635.39 321.68 626.79 326.27 618.85 348.4 618.85 348.4 574.64" style="fill:#911969"/><rect x="291.52" y="584.92" width="51.58" height="3.25" style="fill:#fff"/><rect x="291.52" y="591.41" width="51.58" height="3.25" style="fill:#fff"/><rect x="291.52" y="597.9" width="51.58" height="3.25" style="fill:#fff"/><rect x="291.52" y="604.39" width="33.99" height="3.25" style="fill:#fff"/><path d="M355.37,704.09c-4.51-6.77-19.28-9.26-26.16-10.07v0h-.54c-1.88-.21-3-.29-3-.29l-3.72.1-3.71-.1s-1.16.08-3,.29h-.54v0c-6.88.81-21.65,3.3-26.16,10.07-3.41,5.1,3.93,32.91,6.3,55.77a105.94,105.94,0,0,1-1.54,31.39h57.39A141.73,141.73,0,0,1,349.46,756C351.66,734,358.59,708.91,355.37,704.09Z" style="fill:#c64593"/><path d="M389.88,828.28H371.21c-4.55,0-7.95-2.73-7.95-7.28h0c0-4.56,3.69-7.37,8.25-7.37l17.26.15c4.56,0,9.29,2.66,9.29,7.22h0C398.06,825.55,394.44,828.28,389.88,828.28Z" style="fill:#1a2242"/><path d="M371.07,828.32c-4.48,0-8-3.25-8-7.32s3.31-7.33,7.89-7.33l17.84.59c4.34,0,8.83,2.52,8.83,6.74s-3.1,6.81-7.71,6.81Z" style="fill:#303030"/><path d="M389.21,814.29v13.52h.67c4.61,0,7.71-2.74,7.71-6.81S393.41,814.46,389.21,814.29Z" style="fill:#ebffff"/><circle cx="378.13" cy="816.24" r="0.94" style="fill:#1a2242"/><path d="M381.11,816.24a.94.94,0,1,1,.94.94A.95.95,0,0,1,381.11,816.24Z" style="fill:#1a2242"/><path d="M385,816.24a.95.95,0,1,1,.94.94A.95.95,0,0,1,385,816.24Z" style="fill:#1a2242"/><circle cx="378.13" cy="825.41" r="0.94" style="fill:#1a2242"/><path d="M381.11,825.41a.94.94,0,1,1,.94.94A.94.94,0,0,1,381.11,825.41Z" style="fill:#1a2242"/><path d="M385,825.41a.95.95,0,1,1,.94.94A.94.94,0,0,1,385,825.41Z" style="fill:#1a2242"/><polygon points="382.59 825.61 381.6 825.61 377.63 815.89 378.63 815.89 382.59 825.61" style="fill:#cce3e3"/><polygon points="386.57 825.61 385.57 825.61 381.61 815.89 382.6 815.89 386.57 825.61" style="fill:#cce3e3"/><rect x="377.64" y="815.89" width="0.99" height="9.72" style="fill:#ebffff"/><rect x="381.6" y="815.89" width="0.99" height="9.72" style="fill:#ebffff"/><rect x="385.57" y="815.89" width="0.99" height="9.72" style="fill:#ebffff"/><path d="M346.45,825.46V807S281.9,767,237,775.08a10.25,10.25,0,0,0-6.8,4.61h0a10.19,10.19,0,0,0,.67,11.93C239.69,802.23,266.72,822.21,346.45,825.46Z" style="fill:#303030"/><path d="M353.59,811.18l16.93,5.52a4.56,4.56,0,0,1,3.15,4.34h0a4.58,4.58,0,0,1-4.57,4.57H353.89Z" style="fill:#ffbeac"/><rect x="346.15" y="805.53" width="7.78" height="23.2" style="fill:#4b4b4b"/><path d="M248,839.77l18.46-2.8c4.51-.68,7.46-3.89,6.77-8.4h0c-.68-4.51-4.76-6.72-9.26-6l-17,2.74c-4.51.68-8.79,4-8.11,8.52h0C239.49,838.3,243.48,840.45,248,839.77Z" style="fill:#1a2242"/><path d="M266.59,837c4.43-.68,7.45-4.42,6.84-8.45s-4.36-6.75-8.89-6.06L247,825.74c-4.3.65-8.35,3.81-7.72,8s4.08,6.27,8.64,5.58Z" style="fill:#303030"/><path d="M246.55,825.84l2,13.36-.66.1c-4.56.69-8-1.55-8.64-5.58S242.42,826.63,246.55,825.84Z" style="fill:#ebffff"/><path d="M258.72,826a.94.94,0,1,0-1.86.28.94.94,0,1,0,1.86-.28Z" style="fill:#1a2242"/><path d="M254.85,826.54a.94.94,0,1,0-.79,1.08A.94.94,0,0,0,254.85,826.54Z" style="fill:#1a2242"/><path d="M251,827.13a.94.94,0,1,0-1.86.28.93.93,0,0,0,1.07.79A.94.94,0,0,0,251,827.13Z" style="fill:#1a2242"/><path d="M260.1,835a1,1,0,0,0-1.07-.79.94.94,0,0,0-.79,1.08.94.94,0,1,0,1.86-.29Z" style="fill:#1a2242"/><path d="M256.23,835.61a.94.94,0,1,0-1.86.28.94.94,0,1,0,1.86-.28Z" style="fill:#1a2242"/><path d="M252.36,836.2a.95.95,0,1,0-.79,1.07A1,1,0,0,0,252.36,836.2Z" style="fill:#1a2242"/><polygon points="254.79 836.03 255.77 835.88 258.23 825.68 257.25 825.83 254.79 836.03" style="fill:#cce3e3"/><polygon points="250.86 836.63 251.84 836.48 254.3 826.27 253.32 826.42 250.86 836.63" style="fill:#cce3e3"/><rect x="257.97" y="825.7" width="0.99" height="9.72" transform="translate(638.59 1612.95) rotate(171.37)" style="fill:#ebffff"/><rect x="254.05" y="826.29" width="0.99" height="9.72" transform="translate(630.88 1614.72) rotate(171.37)" style="fill:#ebffff"/><rect x="250.13" y="826.89" width="0.99" height="9.72" transform="translate(623.17 1616.49) rotate(171.37)" style="fill:#ebffff"/><path d="M290.5,830.46l-2.77-18.23s57.82-49.3,103.41-48a10.26,10.26,0,0,1,7.41,3.54h0a10.17,10.17,0,0,1,1.12,11.89C392.56,791.49,368.84,815.29,290.5,830.46Z" style="fill:#303030"/><path d="M281.3,817.42l-15.91,8a4.56,4.56,0,0,0-2.46,4.77h0a4.56,4.56,0,0,0,5.2,3.83l15-2.29Z" style="fill:#ffbeac"/><rect x="281.81" y="811.16" width="7.78" height="23.2" transform="translate(691.56 1593.38) rotate(171.37)" style="fill:#4b4b4b"/><polygon points="333.69 751.01 316.58 751.1 316.19 721.43 333.3 721.34 333.69 751.01" style="fill:#303030"/><path d="M333.5,736.73a1,1,0,0,0-1.48-.08s-3.77,3.08-3.82,3,5.1-5,5.1-5a1,1,0,0,0-1.4-1.55s-5.27,4.48-5.33,4.4,5.19-5.26,5.19-5.26a1,1,0,1,0-1.39-1.55s-5.66,4.83-5.73,4.77,4.47-4.5,4.47-4.5a1,1,0,1,0-1.39-1.55l-4.94,4.45c-.08-.07-5.1,4.53-6.38,3.88l0-1.5a3,3,0,0,0-2.36,2.21,5.77,5.77,0,0,0,0,2.77c.14.75,0,1.51.11,2.26a8.9,8.9,0,0,0,.54,2c-.16.1-16.35,8.11-31.53,16.44,6.09-18.63,21.09-44.52,21.09-44.52a11.6,11.6,0,0,0-15.28-15.08l-.92.39a11.63,11.63,0,0,0-6.72,7.92s-18.85,48.44-15.85,64.86a21.12,21.12,0,0,0,.85,3.13c13.63,7.18,51.83-28,52.27-28.44a33.88,33.88,0,0,0,10.91-8.4l4-3.58A1,1,0,0,0,333.5,736.73Z" style="fill:#ffbeac"/><path d="M292.48,745C300,729.18,308,715.24,308,715.24c1.38-3.33,1.8-16.94.44-20.28,0,0-12.28.81-18.84,3.08a13.71,13.71,0,0,0-8.78,9.17s-4.9,12.6-9.75,28C277.48,740.26,284.77,743.14,292.48,745Z" style="fill:#c64593"/><path d="M360.66,710.63a11.63,11.63,0,0,0-6.72-7.92l-.93-.39a11.59,11.59,0,0,0-15.27,15.08s24.3,42,23.61,57.47c-.38,2.39-33.69,21.25-41.17,25.45a7.8,7.8,0,0,0-2.35-1.81c-2.67-1.18-4.59-4.29-5.43-5.34-.29-.37-.8.39-.91.82-.34,1.24,1,3.44,1,4.56,0,1.54-7,3.88-7,4l-6.75,2.39a1.12,1.12,0,0,0,.75,2.12s6.53-2,6.56-1.93-7.46,3-7.46,3a1.12,1.12,0,1,0,.75,2.11S307,807.86,307,808s-6.91,2.79-6.91,2.79a1.12,1.12,0,0,0,.75,2.12s7.32-2.36,7.38-2.26-4.79,2.1-4.79,2.1a1.12,1.12,0,1,0,.75,2.12l5.44-1.93h0a36.62,36.62,0,0,0,12.83-5.56c1-.32,51.09-17,54-31.91C379.72,759.11,360.66,710.63,360.66,710.63Z" style="fill:#ffc1af"/><path d="M349.43,745c-7.48-15.84-15.55-29.78-15.55-29.78-1.37-3.33-1.8-16.94-.44-20.28,0,0,12.28.81,18.84,3.08a13.73,13.73,0,0,1,8.79,9.17s4.9,12.6,9.74,28C364.43,740.26,357.14,743.14,349.43,745Z" style="fill:#c64593"/><path d="M320.63,715c-5.92.27-12-11.42-12-18.89,0-14.11,23-14.89,23-.47C331.64,702.48,326.22,714.72,320.63,715Z" style="fill:#ffbeac"/><path d="M340.62,677.27a29.07,29.07,0,0,1-4.94,16.56c-3.7,5.35-12,8.57-15.26,8.73-2.78,0-11.76-3.51-15.47-9a29.22,29.22,0,0,1-4.73-16.26c0-14,9-19.73,20.2-19.73S340.62,663.31,340.62,677.27Z" style="fill:#ffbeac"/><path d="M344.7,670.67c.1-.82.21-1.64.23-2.46a21.88,21.88,0,0,0-1.29-8.24,18.61,18.61,0,0,0-6.84-8.91c-6.63-4.52-15.67-4.89-23.21-2.78a24.34,24.34,0,0,0-11.73,7,26.16,26.16,0,0,0-3.87,5.83c-1.13,2.29-1.62,5-3.41,6.87-1.12,1.21-3.36,1.66-4.08,3.15-2.24,4.63,4.07,10,8.38,11.8a17.17,17.17,0,0,0,5.45,9.65c-2.9-5.29-2.62-7.77-2.54-8.92a17.31,17.31,0,0,0,4.09-.73,38.62,38.62,0,0,0,4.08-1.63,11.87,11.87,0,0,0,4.91,2.84c.27.08.53.17.81.24a17.24,17.24,0,0,0,2.68.45,20,20,0,0,0,8.46-1.47,45.56,45.56,0,0,0,4.23-1.86c3-1.32,4.94-1.21,8.2-1.64.33,0,.68-.1,1-.17a40.61,40.61,0,0,1-2.44,10.61c.61.26,3.37-6.88,3.57-7.39.5-1.29,1-2.61,1.41-4,1.89-.75,3.59-2,4-4S346.17,671.78,344.7,670.67Z" style="fill:#303030"/><path d="M507.26,237.57a56.76,56.76,0,0,1-18.86,8.77c5.57,12,10.51,24.92,10.18,32.25-.4,2.53-35.69,22.51-43.6,27a8.45,8.45,0,0,0-2.5-1.92c-2.82-1.25-4.86-4.54-5.75-5.65-.31-.39-.84.41-1,.86-.35,1.32,1.1,3.65,1.07,4.83-.05,1.64-7.41,4.12-7.39,4.24l-7.14,2.53a1.19,1.19,0,0,0,.79,2.24s6.91-2.17,7-2-7.9,3.16-7.9,3.16a1.19,1.19,0,0,0,.79,2.24s8.05-2.5,8.11-2.35-7.31,3-7.31,3a1.19,1.19,0,1,0,.79,2.24s7.75-2.49,7.81-2.39-5.07,2.22-5.07,2.22a1.19,1.19,0,0,0,.79,2.25l5.77-2.05v0a38.67,38.67,0,0,0,13.6-5.9c1.09-.34,54.11-18,57.21-33.79C516.37,270.42,512,252.77,507.26,237.57Z" style="fill:#ffbeac"/><path d="M508.6,236.58c-5.13-16.3-10.32-29.65-10.32-29.65a14.55,14.55,0,0,0-9.3-9.72c-7-2.4-18.81-2.58-18.81-2.58-1.44,3.54-2.14,17.27-.69,20.81,0,0,8.55,14.75,16.47,31.54.82-.2,1.64-.42,2.45-.64a56.76,56.76,0,0,0,18.86-8.77C507.71,237.25,508.16,236.93,508.6,236.58Z" style="fill:#c64593"/><g style="clip-path:url(#clip-path-3)"><path d="M535.78,302.09s-3.84.5-10.18,2a150.52,150.52,0,0,0-25.17,8.35,122.54,122.54,0,0,0-31.79,19.92,108.67,108.67,0,0,0-15.11,16.33,101.58,101.58,0,0,0-12,21.2,93.14,93.14,0,0,0-6.09,22.43,84.82,84.82,0,0,0-.45,19.61,82.07,82.07,0,0,0,8.58,29.39,90,90,0,0,0,11.91,17.79,70.61,70.61,0,0,0,7,7.18c.9-7.73,1.84-15.46,2.95-23.17q-3.5-5.69-6.85-11.55c-2.26-4-4.52-8-6.58-12.26a184,184,0,0,1-11-26.95,252.08,252.08,0,0,0,12,26.15c2.2,4.1,4.42,8.17,6.72,12.12q3,5.11,6.08,10.07l.82-5.32c1.08-6.42,2.3-12.82,3.76-19.17q-3-5.86-5.72-12.05c-1.86-4.28-3.62-8.66-5.14-13.25a176.73,176.73,0,0,1-7-28.92c1.06,4.81,2.34,9.67,3.62,14.35s2.8,9.35,4.45,13.86,3.38,8.87,5.26,13.11c1.61,3.6,3.29,7.1,5.05,10.54a203.39,203.39,0,0,1,6.65-22.27l.61-1.55-1.72-5.13c-.54-1.72-1-3.45-1.54-5.21-1.08-3.74-2-7.47-2.8-11.37a195.2,195.2,0,0,1-3.44-23.79c1.29,7.83,2.81,15.69,4.59,23.24,1,3.82,1.85,7.54,3,11.25.9,3,1.75,5.88,2.81,8.77a200.37,200.37,0,0,1,10.64-22.28c-1.2-5.71-2.15-11.55-2.81-17.5-.34-3-.65-6.14-.86-9.22s-.38-6.24-.44-9.36l1.2,9.12c.4,3,.82,6,1.3,9.06.41,2.66.83,5.3,1.31,7.95s.91,5.23,1.47,7.84c2.3-4.08,4.74-8.08,7.25-12,1.93-2.94,3.86-5.89,5.9-8.75-.36-3.38-.66-6.78-.77-10.22-.06-1.75-.14-3.54-.16-5.29s0-3.55.08-5.35c.28,1.71.46,3.45.7,5.16s.38,3.45.59,5.17l.93,8.57c1.85-2.63,3.76-5.21,5.67-7.79,4.54-6,9.27-11.85,14-17.65-4.59,6-9.13,11.94-13.46,18.08-1.94,2.73-3.89,5.45-5.75,8.23,2.84-.74,5.73-1.39,8.59-1.94,3.23-.64,6.52-1.17,9.77-1.53-3.21,1-6.44,1.85-9.65,2.74l-9.7,2.62-.35.09c-1.88,2.78-3.69,5.63-5.48,8.47-2.54,4.07-5,8.19-7.33,12.4,2.54-.95,5.15-1.8,7.71-2.61s5.14-1.57,7.73-2.24c2.79-.75,5.6-1.43,8.42-2.07s5.6-1.19,8.43-1.65c-2.79.8-5.54,1.56-8.31,2.4s-5.55,1.62-8.33,2.5c-5.56,1.77-11.13,3.62-16.7,5.74l-.1,0a198.38,198.38,0,0,0-10.35,22.23c2.81-1.5,5.75-2.85,8.61-4.15,3.31-1.51,6.78-2.9,10.11-4.14s6.78-2.35,10.22-3.37,6.8-1.91,10.27-2.67c-3.39,1.08-6.7,2.17-10.08,3.39s-6.71,2.43-10.06,3.79-6.73,2.77-10,4.36c-1.65.78-3.35,1.57-5,2.41L479.35,391l-.44,1.13A201.77,201.77,0,0,0,472,414.56c3.29-2.33,6.62-4.55,10-6.64,3.79-2.33,7.56-4.55,11.42-6.44s7.76-3.61,11.57-5.16c4-1.48,7.78-2.87,11.78-4-3.88,1.44-7.63,2.95-11.49,4.66q-2.82,1.26-5.7,2.64c-1.92.92-3.77,1.9-5.68,2.92-3.75,2.08-7.54,4.25-11.27,6.66s-7.43,5-11.07,7.66l-.08.06c-1.46,6.17-2.7,12.39-3.79,18.64l-1,5.72c3.12-2.63,6.27-5.21,9.45-7.7,3.51-2.75,7-5.46,10.62-7.92s7.21-4.83,10.85-7,7.33-4.11,11.05-5.82c-3.55,2-7.16,4.11-10.68,6.46s-7.1,4.78-10.61,7.39-7,5.3-10.49,8.12-6.92,5.7-10.34,8.66l-.25.23c-1.22,7.53-2.32,15.08-3.43,22.63a73.16,73.16,0,0,0,8.61-5.08A122.56,122.56,0,0,0,487.76,448a142.75,142.75,0,0,0,17.64-20.55,137.82,137.82,0,0,0,7.71-12.18A116.76,116.76,0,0,0,519.53,402a130,130,0,0,0,5.22-15.23c1.54-5.25,2.81-10.69,4-16.19,2.3-11,4-22.28,5.19-32.46s1.72-19.22,1.89-25.67S535.78,302.09,535.78,302.09Z" style="fill:#a21a70"/><path d="M466.54,443.47c3.42-3,6.87-5.86,10.34-8.66s7-5.49,10.49-8.12,7-5.1,10.61-7.39,7.13-4.46,10.68-6.46c-3.72,1.71-7.39,3.69-11.05,5.82s-7.27,4.52-10.85,7-7.11,5.17-10.62,7.92c-3.18,2.49-6.33,5.07-9.45,7.7l1-5.72c1.09-6.25,2.33-12.47,3.79-18.64l.08-.06c3.64-2.7,7.35-5.26,11.07-7.66s7.52-4.58,11.27-6.66c1.91-1,3.76-2,5.68-2.92s3.82-1.8,5.7-2.64c3.86-1.71,7.61-3.22,11.49-4.66-4,1.13-7.8,2.52-11.78,4-3.81,1.55-7.76,3.24-11.57,5.16s-7.63,4.11-11.42,6.44c-3.34,2.09-6.67,4.31-10,6.64a201.77,201.77,0,0,1,6.88-22.48l.44-1.13,4.92-2.62c1.64-.84,3.34-1.63,5-2.41,3.28-1.59,6.72-2.95,10-4.36s6.71-2.62,10.06-3.79,6.69-2.31,10.08-3.39c-3.47.76-6.83,1.7-10.27,2.67s-6.76,2.16-10.22,3.37-6.8,2.63-10.11,4.14c-2.86,1.3-5.8,2.65-8.61,4.15a198.38,198.38,0,0,1,10.35-22.23l.1,0c5.57-2.12,11.14-4,16.7-5.74,2.78-.88,5.52-1.72,8.33-2.5s5.52-1.6,8.31-2.4c-2.83.46-5.63,1.06-8.43,1.65s-5.63,1.32-8.42,2.07c-2.59.67-5.18,1.42-7.73,2.24s-5.17,1.66-7.71,2.61C494,360.16,496.49,356,499,352c1.79-2.84,3.6-5.69,5.48-8.47l.35-.09,9.7-2.62c3.21-.89,6.44-1.75,9.65-2.74-3.25.36-6.54.89-9.77,1.53-2.86.55-5.75,1.2-8.59,1.94,1.86-2.78,3.81-5.5,5.75-8.23,4.33-6.14,8.87-12.13,13.46-18.08-4.78,5.8-9.51,11.65-14,17.65-1.91,2.58-3.82,5.16-5.67,7.79l-.93-8.57c-.21-1.72-.41-3.45-.59-5.17s-.42-3.45-.7-5.16c-.08,1.8-.06,3.57-.08,5.35s.1,3.54.16,5.29c.11,3.44.41,6.84.77,10.22-2,2.86-4,5.81-5.9,8.75-2.51,3.95-4.95,7.95-7.25,12-.56-2.61-1-5.2-1.47-7.84s-.9-5.29-1.31-7.95c-.48-3-.9-6-1.3-9.06l-1.2-9.12c.06,3.12.22,6.26.44,9.36s.52,6.18.86,9.22c.66,5.95,1.61,11.79,2.81,17.5A200.37,200.37,0,0,0,479,387.78C478,384.89,477.1,382,476.2,379c-1.13-3.71-2-7.43-3-11.25-1.78-7.55-3.3-15.41-4.59-23.24a195.2,195.2,0,0,0,3.44,23.79c.81,3.9,1.72,7.63,2.8,11.37.51,1.76,1,3.49,1.54,5.21l1.72,5.13-.61,1.55a203.39,203.39,0,0,0-6.65,22.27c-1.76-3.44-3.44-6.94-5.05-10.54-1.88-4.24-3.61-8.64-5.26-13.11s-3.05-9.11-4.45-13.86-2.56-9.54-3.62-14.35a176.73,176.73,0,0,0,7,28.92c1.52,4.59,3.28,9,5.14,13.25s3.71,8.14,5.72,12.05c-1.46,6.35-2.68,12.75-3.76,19.17l-.82,5.32q-3.11-5-6.08-10.07c-2.3-3.95-4.52-8-6.72-12.12a252.08,252.08,0,0,1-12-26.15,184,184,0,0,0,11,26.95c2.06,4.23,4.32,8.27,6.58,12.26s4.52,7.76,6.85,11.55c-1.11,7.71-2.05,15.44-2.95,23.17l.19.17.24-.12c1.11-7.55,2.21-15.1,3.43-22.63Z" style="fill:#601246"/><path d="M387,297.1s-1.66,4.08-3.79,11.07a241.31,241.31,0,0,0-6.79,28.41,224.22,224.22,0,0,0-3.55,38.11,144,144,0,0,0,5.24,40.4,107.56,107.56,0,0,0,15.32,32.22c6.09,8.59,12.69,15,18.89,20.82s11.93,10.89,16.28,15,7.36,7,8.17,7.69a110.46,110.46,0,0,0,1-25.56c-3.57-3.51-7.28-6.75-11.08-9.81s-7.81-6-11.78-8.9-8-5.66-12.09-8.44-8.13-5.47-12.2-8.13c4.25,2.35,8.5,4.83,12.64,7.42s8.34,5.3,12.4,8,8.05,5.66,12,8.72c3.36,2.65,6.7,5.44,9.92,8.42-.17-2-.39-3.91-.63-5.87-.86-7.08-2.15-14.12-3.64-21.11-4.06-2.91-8-5.75-12.11-8.49s-8.43-5.54-12.68-8.27c-8.43-5.38-17-10.46-25.53-15.46,8.82,4.36,17.59,9.14,26.19,14.27,4.34,2.54,8.58,5.27,12.82,8,3.63,2.35,7.15,4.79,10.73,7.3-1.78-8.32-3.95-16.54-6.2-24.74l-.49-1.75c-3.42-2.15-6.78-4.27-10.24-6.32l-10.87-6.41c-7.25-4.23-14.52-8.3-21.77-12.42,7.55,3.46,15,7.21,22.36,11.19,3.72,1.95,7.35,4.06,11,6.17q4.44,2.56,8.81,5.25-3.66-13.05-8-25.91c-5.7-3.22-11.49-6.32-17.18-9.48-5.87-3.22-11.74-6.38-17.56-9.66,6.09,2.6,12.12,5.44,18.1,8.39,5.32,2.6,10.56,5.37,15.81,8.23-1.65-4.87-3.32-9.74-5.07-14.57l-3.92-10.93c-3.39-1.76-6.82-3.49-10.16-5.34l-5.14-2.82c-1.69-1-3.41-1.93-5.08-3,1.82.66,3.6,1.43,5.4,2.15l5.33,2.34c2.93,1.32,5.84,2.74,8.74,4.18l-3.72-9.93c-2.87-7.77-5.83-15.51-8.8-23.25,3.23,7.63,6.46,15.27,9.59,22.94l4.09,10.3c1.24-3.1,2.48-6.21,3.82-9.28,1.5-3.5,3-7,4.67-10.39-1,3.75-2.19,7.39-3.44,11s-2.56,7.19-3.95,10.74l-.15.37,4,10.42c1.84,5,3.61,10,5.35,15l7.38-17.11,4-9.37,4.09-9.35c-1,3.3-2.19,6.53-3.29,9.77l-3.57,9.62c-2.42,6.39-5,12.65-7.71,18.84l-.06.12c2.93,8.57,5.68,17.21,8.18,25.92,1.65-3.27,3.27-6.56,4.83-9.87l5.46-11.7c1.82-3.91,3.62-7.86,5.36-11.82L448,358.71c-1.42,4.14-3,8.24-4.56,12.33s-3.25,8.09-4.92,12.09-3.49,7.94-5.26,11.84-3.66,7.75-5.52,11.55l.38,1.29c2.23,8.4,4.36,16.83,6.11,25.34,2.29-3.94,4.61-8,6.78-12,2.5-4.56,4.87-9.24,7.27-13.88s4.71-9.4,7-14.19,4.53-9.55,6.83-14.38c-1.95,5.06-4,9.95-6.06,14.89s-4.3,9.7-6.59,14.48-4.67,9.44-7.08,14-5,9.15-7.53,13.58l-.06.11c1.4,6.87,2.6,13.8,3.39,20.79.23,2.13.4,4.27.56,6.4,2.85-3.64,5.57-7.49,8.19-11.46,2.9-4.38,5.6-9,8.33-13.52s5.3-9.17,7.85-13.82,5.08-9.33,7.62-14.05c-2.18,5-4.5,9.8-6.89,14.62s-4.88,9.48-7.45,14.17-5.33,9.28-8.19,13.73-5.88,8.73-9.08,12.75l-.24.3a105.6,105.6,0,0,1-1.62,25.23,46.39,46.39,0,0,0,10.09-5.81,65.61,65.61,0,0,0,17.11-19.49A92.7,92.7,0,0,0,476,431a104.63,104.63,0,0,0-3.35-43.42A121.45,121.45,0,0,0,451,346.31a160.46,160.46,0,0,0-28.81-27.94,199.09,199.09,0,0,0-24.72-16C391,298.85,387,297.1,387,297.1Z" style="fill:#e158af"/><path d="M439.14,465.39c3.2-4,6.22-8.31,9.08-12.75s5.64-9,8.19-13.73,5-9.43,7.45-14.17,4.71-9.65,6.89-14.62c-2.54,4.72-5,9.42-7.62,14.05S458,433.41,455.28,438s-5.43,9.14-8.33,13.52c-2.62,4-5.34,7.82-8.19,11.46-.16-2.13-.33-4.27-.56-6.4-.79-7-2-13.92-3.39-20.79l.06-.11c2.54-4.43,5.11-9,7.53-13.58s4.88-9.27,7.08-14,4.45-9.6,6.59-14.48,4.11-9.83,6.06-14.89c-2.3,4.83-4.49,9.63-6.83,14.38s-4.57,9.5-7,14.19-4.77,9.32-7.27,13.88c-2.17,4.06-4.49,8.08-6.78,12-1.75-8.51-3.88-16.94-6.11-25.34l-.38-1.29c1.86-3.8,3.76-7.67,5.52-11.55s3.63-7.84,5.26-11.84,3.34-8.05,4.92-12.09,3.14-8.19,4.56-12.33l-5.34,11.87c-1.74,4-3.54,7.91-5.36,11.82l-5.46,11.7c-1.56,3.31-3.18,6.6-4.83,9.87-2.5-8.71-5.25-17.35-8.18-25.92l.06-.12c2.71-6.19,5.29-12.45,7.71-18.84l3.57-9.62c1.1-3.24,2.25-6.47,3.29-9.77l-4.09,9.35-4,9.37L418,375.53c-1.74-5-3.51-10-5.35-15l-4-10.42.15-.37c1.39-3.55,2.72-7.1,3.95-10.74s2.43-7.27,3.44-11c-1.68,3.42-3.17,6.89-4.67,10.39-1.34,3.07-2.58,6.18-3.82,9.28l-4.09-10.3c-3.13-7.67-6.36-15.31-9.59-22.94,3,7.74,5.93,15.48,8.8,23.25l3.72,9.93c-2.9-1.44-5.81-2.86-8.74-4.18l-5.33-2.34c-1.8-.72-3.58-1.49-5.4-2.15,1.67,1,3.39,2,5.08,3l5.14,2.82c3.34,1.85,6.77,3.58,10.16,5.34L411.4,361c1.75,4.83,3.42,9.7,5.07,14.57-5.25-2.86-10.49-5.63-15.81-8.23-6-2.95-12-5.79-18.1-8.39,5.82,3.28,11.69,6.44,17.56,9.66,5.69,3.16,11.48,6.26,17.18,9.48q4.31,12.85,8,25.91-4.36-2.69-8.81-5.25c-3.65-2.11-7.28-4.22-11-6.17-7.38-4-14.81-7.73-22.36-11.19,7.25,4.12,14.52,8.19,21.77,12.42l10.87,6.41c3.46,2.05,6.82,4.17,10.24,6.32l.49,1.75c2.25,8.2,4.42,16.42,6.2,24.74-3.58-2.51-7.1-4.95-10.73-7.3-4.24-2.78-8.48-5.51-12.82-8-8.6-5.13-17.37-9.91-26.19-14.27,8.49,5,17.1,10.08,25.53,15.46,4.25,2.73,8.46,5.43,12.68,8.27s8.05,5.58,12.11,8.49c1.49,7,2.78,14,3.64,21.11.24,2,.46,3.91.63,5.87-3.22-3-6.56-5.77-9.92-8.42-3.93-3.06-7.9-6-12-8.72s-8.22-5.44-12.4-8-8.39-5.07-12.64-7.42c4.07,2.66,8.17,5.36,12.2,8.13s8.11,5.58,12.09,8.44,7.92,5.78,11.78,8.9,7.51,6.3,11.08,9.81a110.46,110.46,0,0,1-1,25.56l.23.2.28-.11a105.6,105.6,0,0,0,1.62-25.23Z" style="fill:#601246"/></g></g></g></g></svg>