<svg xmlns="http://www.w3.org/2000/svg" viewBox="0 0 83 83"><defs><style>.cls-1{fill:#b2b7bf;}.cls-2{fill:#fff;}</style></defs><title>rubro_1Recurso 49</title><g id="Capa_2" data-name="Capa 2"><g id="Capa_1-2" data-name="Capa 1"><circle class="cls-1" cx="41.5" cy="41.5" r="41.5"/><path class="cls-2" d="M61.26,35.93,57.31,24.1a3.72,3.72,0,0,0-3.54-2.55h-11v15h18.6A3.88,3.88,0,0,0,61.26,35.93Z"/><path class="cls-2" d="M40.25,21.55h-11a3.75,3.75,0,0,0-3.55,2.55L21.74,35.93a3.88,3.88,0,0,0-.09.58h18.6Z"/><path class="cls-2" d="M21.55,39v18.7a3.73,3.73,0,0,0,3.74,3.74H57.71a3.73,3.73,0,0,0,3.74-3.74V39ZM43.81,57.48H41.35V45.8l-2.73,2.52-1.43-1.7L41.57,43h2.24Z"/></g></g></svg>