<svg xmlns="http://www.w3.org/2000/svg" viewBox="0 0 570.69 477.07"><title>ChatVaciioRecurso 1</title><g id="Capa_2" data-name="Capa 2"><g id="OBJECTS"><path d="M211.26,318.94c3.21,7.79,7.16,15.41,6,24.27-.61,4.46-3.59,7.55-6.94,9.9-3.64,2.55-8.43,1-11.21-2.7-1.6-2.17-2.65-4.74-5-6.37s-4.81-1.06-5.47,1.89c-1,4.67.66,9.05,1.71,13.49,2,8.31,4.91,16.43,4.93,25.13,0,8.05-8.08,14.62-15.55,12.55-3.33-.92-5.4-3.43-7.33-6.07-1.52-2.07-2.86-4.31-4.52-6.27-2.24-2.65-4.34-2.29-6.08.68-1.39,2.36-1.24,4.92-1.3,7.48-.17,7.06.93,14.12.17,21.17-.61,5.76-2.31,11-7.18,14.85-7.71,6.07-16.87,3.44-19.91-5.84a55.28,55.28,0,0,0-2.71-7.21c-1.74-3.57-3.92-3.94-7.08-1.44s-4.11,6-4.8,9.5c-2.06,10.33-6.8,18.63-15.66,24.8-8.29,5.78-18.6,6.38-26.86.4-4.88-3.54-9.26-7.72-11.24-13.52-3.18-9.35,2.06-15.8,8.34-21.67,7.9-7.39,17.41-12.4,26.6-17.87,2-1.21,3.69-2.82,5.63-4.09a2.77,2.77,0,0,0,1.18-3.07c-.27-1.24-1.5-1.21-2.5-1.4-3.85-.7-7.63.32-11.44.53-3.49.2-7,.48-10.34-.46-8.07-2.28-10-9.18-7.68-17.89,2-7.58,7.81-11.07,15-12.91,7.48-1.9,15.15-1.29,22.71-2,2.54-.24,5.14-.31,7.33-2.05a6,6,0,0,0,2.61-4.84c0-2.31-1.86-3.28-3.68-4.07-2-.88-4.06-1.59-6.07-2.45-6.89-2.92-8.63-10-4-15.87,4.82-6.14,11.56-8.44,18.89-9.31,9.39-1.13,18.63.93,27.93,1.78a16.19,16.19,0,0,0,5.68-.1c1.5-.39,2.68-.86,2.81-2.65a3.24,3.24,0,0,0-2.31-3.56c-4.15-1.77-8.62-2.57-12.7-4.59-5.06-2.52-6.25-5.82-3-10.52,4.54-6.6,11.38-7.92,18.79-7.42,8,.54,15.56,3,23.33,4.57C192.44,294.54,208.43,312.07,211.26,318.94Z" style="fill:#00b9b9"/><path d="M200.38,300.9a13.41,13.41,0,0,1-1.47,1.26c-4,2.53-5.39,5.63-3.71,10.45s2.36,9.76,3.46,14.67c.16.71.59,1.73-.51,1.88s-.9-.88-1.08-1.65c-1.25-5.26-2.65-10.48-3.89-15.75-.45-1.9-1.11-2.29-2.43-.73q-11.38,13.55-22.76,27.1c-1.48,1.75-.45,3.51-.11,5.16,1.08,5.31,2.41,10.56,3.64,15.84.19.81.94,2-.4,2.2s-.85-1.18-1.05-2c-1.25-5.1-2.64-10.17-3.89-15.27-.41-1.65-.9-2.62-2.37-.88q-10.16,12-20.22,24.15c-1.12,1.36-1,3.21-.93,4.87.26,13.52.59,27,.88,40.55,0,.2-.26.4-.67,1-1.33-5.42-.73-10.67-1.15-15.81-.61-7.43-.67-14.91-1-22.36,0-1,.28-2.35-.88-2.75s-1.7,1-2.31,1.71c-8.3,10.27-17,20.19-25.2,30.57S96,426.41,85.86,435.2c0-1,.92-1.52,1.5-2.23q24.9-30.35,49.81-60.66c.94-1.14,2.94-2.31,2-3.82s-2.9-.4-4.37-.21q-23.39,3.09-46.75,6.32a3.71,3.71,0,0,1-3.57-.73c8.19-1.31,15.63-2.57,23.1-3.69,10.84-1.61,21.7-3.09,32.54-4.71,2-.3,4-1,5.24-2.94,5.43-8.74,12.88-15.86,19.15-23.94.61-.79,1.87-1.5,1.49-2.54-.52-1.43-2-.66-3.07-.67-6.63-.08-13.27-.12-19.91-.18,0-.34-.05-.68-.07-1,3.7-.19,7.39-.42,11.09-.55,4.38-.15,8.76-.21,13.13-.28,2.67-.05,3.86-2.2,4.92-4,3.56-5.95,8.49-10.77,12.69-16.17.68-.88,2.15-1.64,1.61-2.85s-2.22-.91-3.47-1.06q-9.59-1.17-19.14-2.43a3.25,3.25,0,0,1-2.6-1.39c8.57.13,16.65,2,24.86,2.3,2.44.09,3.84-.38,5.19-2.21,1.84-2.48,4.22-4.57,5.36-7.56,2.91-4,5.8-8,8.74-11.93,3.63-4.89,7.32-9.73,10.91-14.64.9-1.23,1.68-1.48,2.77-.37a7.22,7.22,0,0,0,.6.5c4.68,3.68,4.63,3.63.56,8C213.56,286.63,207,293.78,200.38,300.9Z" style="fill:#008886"/><path d="M116.17,243.8c7.78-4.44,12.89-14.06,14.58-22.63.94-4.72,3.44-24.92-1.86-27.52-2.3,5.27-2.53,11-5.24,16.25-2.54,5-5.79,9.54-8.08,14.65s-2.53,9.18-2.89,14.54.22,4.29-4.32-.52c-5.48-5.79-4.91-4.56-.33-10.12a39,39,0,0,0,7.24-14.53c1.12-4.12,4.25-27.69-1.52-29.15-.8,7.82-3.78,15.41-6.94,22.55-3.9,8.8-5,15.09-4.56,24.75-2.7-2.53-7.76-5.42-7.37-9.31s4.82-9.13,5.84-13.24c.92-3.74,3.22-26.3-2.08-27.34-3,2.61-3.13,15.7-4.1,19.78-1.73,7.27-1.86,13.28-2,20.64-2-1.9-6.43-4.7-6.84-7.3s2.65-8,3-10.66a39.47,39.47,0,0,0-5.9-26.45c1,12-2.29,24.17.83,36.05-2.57-2.29-7.25-5.05-7.9-8.3s1.62-8.49,1.44-12c-.44-8.62-3.74-18.39-9.16-25.13-.11,6.11,1.7,12.48,2.09,18.63.18,2.7,3.33,17.1,3,17.43-2.18-1.76-5.84-3.7-7-6.35-1.31-3,0-8.24-.63-11.59-1.39-8-5.53-17.08-11.5-22.64,4.43,10.2,4,21.83,8.89,31.86-5.11-5.76-11-8.45-17.9-11.42-2-.84-18.3-8.91-18.69-8.26,4,6.67,11.5,12.42,18.34,15.93,4.65,2.39,18.16,2.95,20.26,7.3-9.53-2-18.79,2.57-28.32,1.76C43,204.13,50,205.8,57,204.72c6.81-1.06,10.53-5.74,15.42,1.45-10.93-2.23-21.9,4.16-32.82,5,5.22,3.85,14.89,3.49,20.95,2.31,4-.77,8.34-4.46,11.81-4.93s4.06.65,7.23,3.63c-1.16,1.38-5.48.35-7.37.63-3.47.51-6.72,2-9.92,3.31-2.9,1.21-5.73,2.52-8.74,3.44-1.43.43-7.5.82-8.12,1.67-1,1.38,9.43,2.11,10.75,2.09a38.68,38.68,0,0,0,15.11-2.95c2.33-1,7.85-6.47,9.73-6.53,2.38-.08,7.17,6.11,8.93,7.71-1.82,1.18-5.42-.47-7.47-.37-3.74.18-7.09,1.7-10.6,2.86-7.39,2.44-14.93,4.41-22.39,6.62,2.62,5.76,23.51,1.29,27.71-.07a34.69,34.69,0,0,0,7-3.05c1.49-.87,4.26-4,5.6-4.18,3.44-.35,7.62,5.66,10,8.08-11.42-1-19.42,1.15-29.91,5.24a50.83,50.83,0,0,1-8.76,2.74c-1.42.27-7.22.12-8.28,1.23-1.8,1.88,0,1.51,2.35,2.43,9.56,3.71,23.42,1.95,32.55-1.91a32.94,32.94,0,0,0,6.71-3.69c.78-.57,4.45-4.85,5.58-5,2.41-.36,8.81,8.47,10.29,10-10.74-1.35-17.74-.1-27.56,4.62-2.52,1.21-23.37,10-23.39,8.92,0,1.17,17.09,2.78,16.92,3.41,10.26-.82,19-1.54,27.54-8,2.27-1.68,5.9-7.26,8.07-7.17,2,.09,8.14,9.1,9.21,10.33-6.46,0-11.17.76-17,3.61-3.72,1.82-7.33,3.83-11.16,5.4-2.22.91-7.58,1.67-9.17,3.25,4.48,3.26,16.07,1.22,21,0a30.2,30.2,0,0,0,10.85-5.13c1.77-1.33,4.64-5.88,7-5.31,2.67.63,28.11,33.62,30,30.67.48-.77-26-26.49-27.49-29.42-2.08-4-1.46-2,1.41-5.45,2.06-2.5,4.63-4.34,6.43-7.12,3.77-5.77,4.85-12.56,5.55-19.29-8.12,7.7-14.77,16.93-16.3,28.27C120.74,252.3,113.05,245.58,116.17,243.8Z" style="fill:#008886"/><path d="M53.66,335.05c-3.67-5.32-1.35-7.74-2.63-12.77-.49-1.9,3.1-2.18,0-4.42-2.38-1.74-14.93,3.25-17.43,4.23-11.8,4.6-29.47,14.75-33.63,27.8C9.07,343.6,18.77,339.43,28.81,335c4.13-1.82,8.52-3.51,12.23-6.13,3.11-2.2,5.67-6.06,9.13-7.27-2.44,7.55-2.94,9.8-9.2,14.11-4.17,2.88-8.31,5.15-12.07,8.65-7,6.55-14.56,15.66-16.16,25.41,2-2.21,34.06-32.41,33.07-32.95,1.66.92.41,2,2.18.69-1,.74,12.32,29,13,32.32C67,361.43,58.61,342.25,53.66,335.05Z" style="fill:#00b9b9"/><path d="M45.87,342c-2,9-12.32,15.47-17.33,23.91A68.25,68.25,0,0,0,20,389.46c3.14-4.52,8.18-17.18,13.23-19.42,4.05-4.78,7.6-9.56,11.3-14.79.55,15.47,6.93,30.23,6.46,45.78a67.77,67.77,0,0,0,3.13-33.76c-.56-3.57-5.64-28.26-7.41-29.14A4,4,0,0,0,45.87,342Z" style="fill:#00b9b9"/><path d="M94.23,270.85a29.2,29.2,0,0,0,11.43,9.94c-.47,2.25-7.64,1.91-9.08,3.13,3.53-4.86-16.51-19.95-19.91-22.12-8.21-5.21-21.23-11.13-31.24-9.65,2.67,4.92,18.1,12.3,23.21,16.65,6.9,5.86,13.78,12.93,23.26,14-4.52,8.26-21.63-4.84-28.1-6.35-11.61-2.73-23.77-1.7-35.25,1.15,6.57,3.71,18.5,3.93,26,6.22,8.26,2.52,17.17,6.53,26,4.05-3.74,2.65-6.22,5.35-10.64,5.65-5.29.35-12.23-3.2-17.91-3.33-10.21-.23-25.83,2-33.51,9.21,9.05.61,18.55-1,27.78-.47,2.55.13,18.66-1.61,19.93,0-3.6,2-4.5,5.08-8.58,6.17-5.54,1.47-13.11-.32-19,.78-4.32.81-34.16,10.27-31.89,15.89.6,1.48,45.83-10,49.51-13.05.59,2.5-2.47,3.61-1.85,6.16,2.85-1.69,3.11-5.26,6.21-6.78-2.47,9.36,1.59,18.58,4.44,27.32.77,2.37,4.25,21.12,6,21.74,5.62-14,2.49-31.19-4.25-44.05-3.33-6.35-4.88-6.22-.8-11.68,2.44-3.25,10-6.13,11.41-9.6,0,.55.52.57,1.65.07-5,16.39.89,36.37,1.65,53.32,7.28-5.52,7.13-25.27,6.29-33.33-.6-5.67-5.47-14.15-5-19.28.35-3.67,1-3.87,5.85-5.49,2.55-.87,7.58-2.65,10.25-2.08-7.58,16.13-4.34,36.11-6.1,53.56,10.53-4.67,12.18-31.84,10.94-41.3-1.07-8.21-5-10.81,1.46-13.26,3.87-1.47,8.74.57,12.24-1.24-2.48-1.5-4.75-.25-7-2.36-3.39-3.23-5.21-13-8.41-17.23-6.44-8.47-17.57-17.81-28.48-19.29A184.67,184.67,0,0,1,94.23,270.85Z" style="fill:#00b9b9"/><path d="M101.67,248.68c5.65,8.82,13,34.25,25.74,35.68C125.41,265.8,114,251.8,98,242.91A10.17,10.17,0,0,0,101.67,248.68Z" style="fill:#548936"/><path d="M115.7,286.84c-2.45,3.53-12.56,42.35-10.67,43.24,6.09-7.51,11.19-15.7,13.5-25.18,1.41-5.77-1.78-21.53,5.77-20.8a12.66,12.66,0,0,0-7.58-1.32A3.29,3.29,0,0,1,115.7,286.84Z" style="fill:#548936"/><path d="M139.16,287.69c-2.62-.17-5.3-2.31-8-1.75.39.73,4.17,1.56,3.73,2.58-1.13,2.61-4,4.76-5.44,7.33-1.56,2.74-10,17.48-8.66,19.59A47.42,47.42,0,0,0,131.92,303c1.31-2.27,3.09-12.81,5-13.81,5.28-2.72,21.88,11.55,26.2,14.28,1.64-2.76-19.76-13.21-21.17-16.57-4.14-9.83-1.71-20.15-13.34-26.77C133.6,268.77,133.47,279.36,139.16,287.69Z" style="fill:#548936"/><path d="M398.45,204.76c-8.11,2.26-16.15,5.28-24.81,3-4.34-1.14-7.06-4.46-9-8.06-2.11-3.93,0-8.5,4-10.82,2.34-1.33,5-2.07,6.91-4.2s1.62-4.65-1.23-5.66c-4.51-1.59-9.06-.41-13.59.11-8.49,1-16.9,2.91-25.54,1.91-8-.93-13.55-9.76-10.62-16.93,1.32-3.2,4.05-4.95,6.9-6.56,2.24-1.27,4.62-2.33,6.76-3.74,2.9-1.92,2.8-4,.05-6.13-2.18-1.65-4.74-1.81-7.27-2.17-7-1-14.13-.75-21-2.34-5.65-1.3-10.65-3.6-13.89-8.9-5.11-8.37-1.42-17.16,8.16-19.07a55.42,55.42,0,0,0,7.47-1.84c3.76-1.31,4.39-3.43,2.28-6.86s-5.48-4.79-8.86-5.89c-10-3.27-17.69-9-22.77-18.5-4.75-8.91-4.12-19.22,2.8-26.72,4.09-4.42,8.76-8.27,14.75-9.54,9.66-2.06,15.44,3.91,20.53,10.84,6.4,8.72,10.24,18.77,14.58,28.54,1,2.16,2.36,4,3.39,6.08a2.77,2.77,0,0,0,2.91,1.53c1.27-.12,1.39-1.35,1.69-2.32,1.15-3.74.59-7.61.83-11.42.22-3.48.36-7,1.69-10.21,3.22-7.74,10.3-8.8,18.67-5.5,7.29,2.87,10.07,9.07,11,16.44,1,7.66-.52,15.2-.7,22.79-.06,2.55-.31,5.14,1.16,7.52a6,6,0,0,0,4.5,3.17c2.29.25,3.48-1.45,4.48-3.16,1.1-1.89,2.06-3.86,3.15-5.75,3.71-6.49,10.94-7.38,16.23-2.1,5.53,5.52,7,12.48,7,19.86,0,9.46-3.14,18.39-5.09,27.52a16.27,16.27,0,0,0-.57,5.65c.21,1.54.53,2.76,2.3,3.11a3.24,3.24,0,0,0,3.8-1.87c2.25-3.91,3.58-8.26,6.07-12.07,3.1-4.72,6.53-5.52,10.81-1.75,6,5.29,6.51,12.24,5.13,19.53-1.48,7.84-4.83,15.1-7.3,22.63C424.91,189,405.61,202.77,398.45,204.76Z" style="fill:#00b9b9"/><path d="M417.66,196.1a13.71,13.71,0,0,1-1.08-1.61c-2-4.24-4.94-6-9.93-4.92s-10,1.18-15,1.7c-.72.07-1.79.37-1.8-.74s1-.78,1.76-.87c5.37-.62,10.72-1.39,16.1-2,1.94-.22,2.41-.83,1-2.32-8.06-8.61-16.16-17.19-24.2-25.82-1.57-1.68-3.44-.86-5.11-.72-5.4.44-10.78,1.14-16.16,1.74-.83.09-2.11.69-2.14-.66s1.27-.71,2.12-.81c5.21-.64,10.41-1.41,15.63-2,1.69-.21,2.7-.59,1.15-2.25q-10.75-11.51-21.58-22.94c-1.22-1.28-3.08-1.34-4.72-1.5-13.46-1.35-26.92-2.62-40.38-3.94-.19,0-.36-.31-.89-.78,5.54-.69,10.68.53,15.84.73,7.45.27,14.88,1.1,22.32,1.64,1,.07,2.31.56,2.83-.55s-.75-1.8-1.42-2.49c-9.21-9.46-18-19.29-27.36-28.65s-19.24-18.71-26.76-29.84c1,.09,1.4,1.09,2,1.75q27.18,28.32,54.32,56.66c1,1.07,1.94,3.19,3.55,2.48s.74-2.83.72-4.31q-.28-23.59-.72-47.17A3.71,3.71,0,0,1,359,72.4c.33,8.28.7,15.82.92,23.37.32,11,.49,21.91.81,32.87.06,2.06.49,4.1,2.3,5.55,8,6.43,14.22,14.68,21.5,21.86.71.7,1.27,2,2.34,1.78,1.48-.34.89-1.9,1-3,.87-6.59,1.7-13.17,2.54-19.75l1,0c-.26,3.69-.46,7.39-.77,11.08-.38,4.36-.84,8.71-1.28,13.06-.27,2.66,1.72,4.1,3.35,5.36,5.47,4.24,9.68,9.71,14.55,14.52.78.78,1.37,2.33,2.63,1.93s1.17-2.09,1.47-3.32q2.3-9.36,4.68-18.71a3.26,3.26,0,0,1,1.69-2.42c-1.15,8.5-3.93,16.3-5.23,24.42-.39,2.41-.08,3.85,1.57,5.41,2.24,2.12,4,4.73,6.87,6.22,3.61,3.36,7.23,6.71,10.81,10.1,4.43,4.18,8.79,8.42,13.24,12.57,1.12,1,1.27,1.84,0,2.8a6.87,6.87,0,0,0-.57.52c-4.21,4.22-4.15,4.17-8-.39C430.27,210.88,424,203.5,417.66,196.1Z" style="fill:#008886"/><path d="M484.36,119.27c3.47,8.25,12.43,14.47,20.73,17.16,4.58,1.49,24.34,6.38,27.55,1.42-5-2.91-10.58-3.81-15.51-7.13-4.64-3.11-8.79-6.89-13.6-9.76s-8.81-3.61-14.09-4.6-4.28-.29,1-4.23c6.41-4.75,5.11-4.33,10.09.87a38.89,38.89,0,0,0,13.57,8.92c4,1.6,27,7.51,29.13,2-7.68-1.72-14.86-5.58-21.57-9.56-8.28-4.92-14.4-6.71-24-7.47,2.84-2.39,6.3-7.07,10.13-6.21s8.48,5.87,12.45,7.36c3.6,1.36,25.73,6.32,27.39,1.19-2.23-3.34-15.22-5-19.16-6.42-7-2.58-13-3.43-20.24-4.48,2.12-1.78,5.42-5.82,8-5.92s7.58,3.57,10.23,4.26a39.42,39.42,0,0,0,27-2.72c-12.06-.42-23.72-5.14-35.89-3.45,2.58-2.29,5.87-6.6,9.18-6.86s8.24,2.61,11.74,2.85c8.62.58,18.7-1.53,26-6.11-6.06-.84-12.59.2-18.74-.14-2.7-.14-17.38,1.28-17.67.89,2-2,4.37-5.36,7.14-6.19,3.13-.94,8.19.94,11.58.75,8.06-.44,17.62-3.46,23.85-8.73C560,70.09,548.54,68.25,538,72c6.33-4.38,9.69-9.87,13.47-16.42,1.06-1.85,11-17.11,10.42-17.57-7.1,3.13-13.71,9.94-18,16.32C541,58.61,538.8,72,534.24,73.52c3.11-9.22-.32-19,1.61-28.33-3.42,6.08-5.91,12.86-5.66,19.92.24,6.9,4.44,11.14-3.28,15.14,3.52-10.58-1.52-22.23-1-33.17-4.45,4.72-5.23,14.36-4.79,20.53.3,4,3.44,8.81,3.5,12.31s-1.13,4-4.46,6.74c-1.24-1.31.3-5.48.25-7.38-.1-3.52-1.16-6.91-2.11-10.26a91.8,91.8,0,0,1-2.38-9.08c-.26-1.47.08-7.55-.7-8.26-1.25-1.16-3.21,9.12-3.35,10.43A38.78,38.78,0,0,0,513,77.46c.75,2.44,5.5,8.57,5.34,10.43-.21,2.38-6.92,6.4-8.72,8-.95-1.95,1.11-5.33,1.26-7.37.27-3.74-.85-7.25-1.58-10.87-1.55-7.63-2.62-15.35-3.92-23-6,1.92-4.07,23.19-3.22,27.53a34.66,34.66,0,0,0,2.19,7.32c.69,1.59,3.51,4.72,3.49,6.07-.06,3.45-6.53,6.89-9.22,9,2.41-11.21,1.17-19.42-1.65-30.32a50.39,50.39,0,0,1-1.67-9c-.11-1.44.73-7.17-.25-8.36-1.65-2-1.49-.21-2.69,2.05-4.81,9.05-4.71,23-2,32.55a33.36,33.36,0,0,0,2.88,7.1c.47.84,4.28,5,4.31,6.13.08,2.44-9.45,7.74-11.19,9,2.62-10.51,2.2-17.61-1.31-27.92-.91-2.65-7.17-24.39-6.08-24.28-1.17-.11-4.79,16.64-5.4,16.39-.41,10.29-.72,19,4.63,28.3,1.4,2.44,6.51,6.71,6.16,8.86-.32,1.94-10,7-11.35,7.92.73-6.42.56-11.18-1.57-17.3-1.36-3.9-2.93-7.73-4-11.72-.64-2.31-.75-7.72-2.14-9.49-3.77,4.07-3.12,15.82-2.46,20.85a30.35,30.35,0,0,0,3.81,11.39c1.1,1.9,5.28,5.3,4.43,7.63-.94,2.57-36.72,23.91-34,26.12.7.57,29.38-22.65,32.48-23.81,4.24-1.58,2.13-1.21,5.24,2.05,2.23,2.35,3.76,5.11,6.3,7.24,5.29,4.42,11.9,6.3,18.5,7.79-6.68-9-15.05-16.68-26.14-19.54C475.37,122.79,483,116,484.36,119.27Z" style="fill:#008886"/><path d="M460.09,94.27a29.21,29.21,0,0,0-11.22,10.17c-2.17-.74-1-7.81-2-9.38,4.4,4.08,21.77-14,24.33-17.16,6.14-7.52,13.57-19.75,13.29-29.87-5.2,2.07-14.37,16.51-19.28,21.07-6.64,6.16-14.49,12.15-16.67,21.44-7.66-5.47,7.37-20.91,9.65-27.15,4.08-11.2,4.5-23.4,3-35.13-4.47,6.07-6.11,17.89-9.27,25.07-3.49,7.91-8.52,16.28-7.1,25.29-2.19-4-4.58-6.81-4.35-11.23.28-5.29,4.63-11.76,5.43-17.39,1.44-10.11,1.06-25.88-5.16-34.37-1.68,8.92-1.25,18.54-2.83,27.65-.44,2.51-.62,18.71-2.33,19.79-1.58-3.82-4.51-5.07-5.1-9.26-.81-5.66,1.86-13,1.47-19-.28-4.37-6.13-35.13-12-33.54-.9.24.74,15.75,2.77,29.61-3.9-11.73-11.26-26-21.87-30.89C406,9.75,409,19.87,412.25,30.37c1.33,4.32,2.48,8.88,4.64,12.88,1.15,2.12,3,4.1,4.37,6.17a.33.33,0,0,0-.1,0,6.1,6.1,0,0,0,1,1.51,9.11,9.11,0,0,1,.87,2.25c-7.21-3.32-9.39-4.09-12.93-10.81-2.36-4.49-4.12-8.87-7.15-13-5.67-7.76-13.82-16.31-23.31-19.06,2,2.22,28.13,37.66,28.79,36.75a2.27,2.27,0,0,1-.74.69c-7.87-3.68-12.9-13.82-20.25-19.45A68,68,0,0,0,365,17c4.12,3.64,16.09,10.16,17.71,15.44,4.27,4.59,8.6,8.67,13.35,13-15.43-1.29-30.84,3.3-46.23,1A67.86,67.86,0,0,0,383,53.5c1.3,0,5.42-.36,10.2-.81-8.34,2.49-17.57,5.37-19.36,5.54a11,11,0,0,0,4.08,2.22,1.39,1.39,0,0,0-.73.47c13.21,7.23,30.68,6.17,44.24,1,6.71-2.55,6.77-4.11,11.7.6,2.94,2.8,4.89,10.7,8.17,12.46-.54-.09-.62.45-.26,1.63-15.67-6.91-36.22-3.43-53.14-4.68,4.61,7.88,24.25,10.07,32.35,10.19,5.7.08,14.7-3.74,19.73-2.65,3.61.78,3.72,1.49,4.76,6.46.56,2.64,1.74,7.84.85,10.42-15.11-9.44-35.34-8.6-52.46-12.41,3.39,11,30.17,15.87,39.71,15.77,8.28-.09,11.32-3.68,13,3,1,4-1.6,8.61-.22,12.3,1.79-2.29.82-4.69,3.17-6.63,3.61-3,13.55-3.63,18.11-6.31,9.17-5.39,19.76-15.33,22.53-26A183.64,183.64,0,0,1,460.09,94.27Zm-52.6-38.38c.63-.29,1.22-.57,1.74-.85,5.73-3,17.71.74,17.92,1.35C420.77,53.86,414.06,54.61,407.49,55.89Z" style="fill:#00b9b9"/><path d="M481.23,104.29c-9.43,4.56-35.56,8.86-38.49,21.32,18.67.22,33.93-9.49,44.66-24.31A10.17,10.17,0,0,0,481.23,104.29Z" style="fill:#00b9b9"/><path d="M441.67,113.69C438.46,110.83,401.11,96.19,400,98c6.73,6.94,14.27,13,23.41,16.4,5.55,2.08,21.59.79,20,8.19a12.57,12.57,0,0,0,2.21-7.37A3.28,3.28,0,0,1,441.67,113.69Z" style="fill:#00b9b9"/><path d="M438,136.88c.48-2.58,2.93-5,2.69-7.72-.77.31-2,4-3,3.4-2.47-1.43-4.26-4.52-6.63-6.27-2.55-1.87-16.17-12-18.43-10.92a47.2,47.2,0,0,0,11,12.5c2.1,1.58,12.36,4.59,13.12,6.63,2.07,5.56-14.07,20.35-17.29,24.32,2.55,2,15.46-18,19-19,10.26-2.94,20.22.69,28.16-10.07C457.48,133.61,447,132.22,438,136.88Z" style="fill:#548936"/><path d="M201.19,61.45s-.33.48-.86,1.34" style="fill:none;stroke:#f7f7f7;stroke-miterlimit:10;stroke-width:1.591483235359192px"/><path d="M198.67,65.63c-5.43,9.79-16.06,33.87,6.16,40.94,22.4,7.12,11,20.53,5.4,25.69" style="fill:none;stroke:#f7f7f7;stroke-miterlimit:10;stroke-width:1.591483235359192px;stroke-dasharray:3.2972259521484375,3.2972259521484375"/><path d="M209,133.36c-.75.64-1.23,1-1.23,1" style="fill:none;stroke:#f7f7f7;stroke-miterlimit:10;stroke-width:1.591483235359192px"/><circle cx="209.81" cy="48.36" r="12.04" transform="translate(128.54 247.75) rotate(-80.8)" style="fill:#d3d3d3"/><path d="M104,70.62q0,.8.12,1.59" style="fill:none;stroke:#f7f7f7;stroke-miterlimit:10;stroke-width:1.591483235359192px"/><path d="M104.61,75.36c4.12,19.88,27.72,39.46,48,27.54,27.52-16.21-2.66-46.43,13.5-69.87,28.09-40.74,112.8-20.14,147.68-.55" style="fill:none;stroke:#f7f7f7;stroke-miterlimit:10;stroke-width:1.591483235359192px;stroke-dasharray:3.1883585453033447,3.1883585453033447"/><path d="M315.13,33.27c.47.27.93.55,1.37.82" style="fill:none;stroke:#f7f7f7;stroke-miterlimit:10;stroke-width:1.591483235359192px"/><path d="M545.09,190.62c12.43,44.48-33.68,162.71-54.2,87.64-6.18-22.59,64.71-30,72.12,6.1,11.58,56.42-88.73,68.26-124.14,62.8" style="fill:none;stroke:#f7f7f7;stroke-miterlimit:10;stroke-width:1.591483235359192px;stroke-dasharray:3.182966470718384,3.182966470718384"/><path d="M554.84,188.17a8.27,8.27,0,1,1-8.27-8.27A8.27,8.27,0,0,1,554.84,188.17Z" style="fill:#d3d3d3"/><path d="M515.2,140.92c-17.82-28.36-49.94-39.48-55.07-41.13C393.21,78.23,358,143.16,262.28,160.11c-42,7.43-75.87,2.15-104.23-4.7,11,28.54-5.86,67.53-16.83,92.55-7.45,17-15.61,34.26-25.19,50.19-12.38,20.56-28.5,39.25-36.54,62,59.82,71.86,167.5,119.47,267.33,90C492.46,407.12,563.12,217.17,515.2,140.92Z" style="fill:#f7f7f7"/><path d="M132.83,452.85h0c-2.25-1.46-3.41-5.86-2.58-9.79l29-135.57c.84-3.93,3.37-5.94,5.63-4.48h0c2.25,1.45,3.41,5.86,2.57,9.78L138.46,448.36C137.62,452.29,135.09,454.31,132.83,452.85Z" style="fill:#c2bfbf"/><path d="M198.2,453h0c2.25-1.45,3.42-5.85,2.59-9.78L172,307.51c-.84-3.92-3.36-5.95-5.62-4.5h0c-2.26,1.45-3.43,5.85-2.59,9.77l28.79,135.69C193.41,452.39,195.94,454.42,198.2,453Z" style="fill:#c2bfbf"/><path d="M385.66,449.8h0c-2.26-1.46-3.42-5.86-2.58-9.78L412,304.44c.84-3.92,3.37-5.94,5.63-4.48h0c2.26,1.46,3.42,5.86,2.58,9.79l-29,135.57C390.44,449.24,387.91,451.26,385.66,449.8Z" style="fill:#c2bfbf"/><path d="M451,449.93h0c2.26-1.45,3.42-5.85,2.59-9.78L424.82,304.47c-.83-3.93-3.36-6-5.62-4.51h0c-2.26,1.45-3.42,5.85-2.59,9.78L445.4,445.42C446.23,449.35,448.76,451.38,451,449.93Z" style="fill:#c2bfbf"/><path d="M219,292.21a1,1,0,0,1,0,.22c-.79,1.53-1.88,1.55-3.18.68l-.41-.9q-4-21.42-8-42.85Q201.9,220.2,196.45,191a9,9,0,0,0,4.07,1.29c.47,1.94.75,3.92,1.12,5.88,4.64,24.34,9.15,48.69,13.75,73,1.18,6.17,2.37,12.32,3.45,18.49A7.18,7.18,0,0,1,219,292.21Z" style="fill:#eaeaea"/><path d="M225.21,290.1a5.58,5.58,0,0,1,.14,2.11,3.07,3.07,0,0,1-.3.77,2.42,2.42,0,0,1-3.58-.18c-.08-.19-.14-.39-.22-.59-1.29-3.66-1.62-7.54-2.33-11.34q-5.43-28.69-10.82-57.41-2.91-15.59-5.85-31.18a9.27,9.27,0,0,0,4.17-1.54,1.6,1.6,0,0,0,0,.27c3.92,20.26,7.64,40.54,11.52,60.78C220.45,264.55,222.78,277.34,225.21,290.1Z" style="fill:#eaeaea"/><path d="M255.05,133.66a5.76,5.76,0,0,1-2,2.61l-.21.21q-20.34,20.37-40.72,40.7a9.28,9.28,0,0,0-2.15,2.88,9.27,9.27,0,0,0-8.41-6.27c6.78-6.8,13.56-13.66,20.34-20.46q13.17-13.17,26.37-26.27l1.35-1.36c1.67,0,1.77,1.26,2,2.41a3.58,3.58,0,0,1-1.25,2.18l-.92.9q-20.81,20.84-41.62,41.7c-.65.62-2.31,1.33-1.27,2.39s1.82-.51,2.5-1.2q20.61-20.54,41.21-41.15c.37-.37.71-.8,1.1-1.15a2.53,2.53,0,0,1,1.78-.84A2.91,2.91,0,0,1,255.05,133.66Z" style="fill:#eaeaea"/><path d="M210,180.06a9.27,9.27,0,0,0-8.41-6.27,2.48,2.48,0,0,0-.39,0A9.28,9.28,0,0,0,196.45,191a9,9,0,0,0,4.07,1.29c.22,0,.43,0,.67,0a9.25,9.25,0,0,0,9.28-9.28A9.52,9.52,0,0,0,210,180.06Zm-8.84,6.62a3.48,3.48,0,0,1-3.61-3.51c-.06-2.37,1.22-3.74,3.51-3.74a3.59,3.59,0,0,1,3.78,3.63A4,4,0,0,1,201.15,186.68Z" style="fill:#d3d3d3"/><path d="M204.83,183.06a4,4,0,0,1-3.68,3.62,3.48,3.48,0,0,1-3.61-3.51c-.06-2.37,1.22-3.74,3.51-3.74A3.59,3.59,0,0,1,204.83,183.06Z" style="fill:#dee5fd"/><path d="M252.4,133.6c-2.51-5-8.82-9.54-1.34-13.4,6.1-3.15,8.51,3.88,11.35,9.12a27.77,27.77,0,0,0,3,4.68,33.87,33.87,0,0,0,6.75,6.28c4.57,3.2,6.05,2.56,7.28,4.86,1.08,2,1.66,8.9,1.32,6.66h0s-18.29,13.6-20.52,13.86c-5.69.65-7.78-9.58-8-14.64-.17-3.2.88-6,1.38-9C254.37,137.33,253.26,138.35,252.4,133.6Z" style="fill:#eaeaea"/><path d="M281,152c-4.53-7-10.07-13-17.55-16.87-.35-.18-.95-.57-.89-.88.24-1.11,9.61-1.6,17.52,2.71,0,0,3.32,1.24,8.37,8.27.88,1.23.76,1.84-.54,2.57C285.58,149.14,283.31,150.61,281,152Z" style="fill:#d3d3d3"/><path d="M204.83,183.06a4,4,0,0,1-3.68,3.62,3.48,3.48,0,0,1-3.61-3.51c-.06-2.37,1.22-3.74,3.51-3.74A3.59,3.59,0,0,1,204.83,183.06Z" style="fill:#eaeaea"/><path d="M400.35,276.59l-.66-.47c2.37-1.81,1.95-4.6,2.31-7,.42-2.81.39-5.68.56-8.52,1.09-12.54,2.15-25.08,3.27-37.61.83-9.31,1.65-18.62,2.65-27.91.24-2.27-.85-3.84-1.8-5.58,3.7.91,4.37,1.67,4.05,5.43-1.09,12.93-2.27,25.85-3.41,38.78q-1.45,16.57-2.9,33.14c-.16,1.88-.25,3.77-.49,5.64A4.42,4.42,0,0,1,400.35,276.59Z" style="fill:#898989"/><path d="M335,293.1h25c.5-2.18-1-7-3.62-15.42a4,4,0,0,0-1.43-2.17,3.87,3.87,0,0,0-2.38-.61c-4,.06-8,0-12,0-.82,0-13.25,1.16-13.25,1.16l6.57,16.6A2.61,2.61,0,0,1,335,293.1Z" style="fill:#d3d3d3"/><path d="M406.68,189.47c-.68,0-1.35-.09-2-.09H356.91q-19.12,0-38.24-.05c-1.05,0-2.11.07-3.17.07-10.95,0-21.9,0-32.85.06-3.57,0-5.25,1.56-5.61,5.08-.4,4-.66,8-1,11.95-.65,7.74-1.23,15.48-2,23.21-1,10.28-2,20.55-2.66,30.86h0c-.77,3.54-.71,7.16-1.14,10.73-.49,4.19.92,5.66,5.14,5.66,16.43,0,62.58,0,62.67-.14,0,0,9.89.14,14.78.09a2.26,2.26,0,0,1,1.37.3c3.4,1.66,4.72,11.47,5.15,15.91h3.22l-4.22-16.17,7.91,0s23.63,0,26.53-.07c2.52-.08,5.05.36,7.54-.31.72-1.38,1.72-2.6,1.92-4.27.37-3,.52-6,.9-9a3.08,3.08,0,0,0-.51-2.65h0c1.43-2.25.95-4.83,1.2-7.26,1-9.44,1.7-18.9,2.54-28.34.88-9.83,1.63-19.66,2.61-29.47C409.28,193.07,408.92,191,406.68,189.47ZM406,196c-.39,5.42-.95,10.83-1.4,16.24-1.15,13.69-2.38,27.36-3.53,41.05-.2,2.37-1.11,4.8-.09,7.2a4.29,4.29,0,0,0-2.8-.61c-19.64,0-111.17-.09-123.15.08-.59,0-1.19,0-1.78,0a7.79,7.79,0,0,0,.71-3.45c.34-6.11,1-12.19,1.56-18.28.84-9.78,1.66-19.56,2.58-29.33.44-4.58.56-9.2,1.35-13.74.48-2.76,1.89-3.7,4.59-3.44,1.36,0,2.7-.22,4.07-.22H401.86C405.47,191.49,406.29,192.39,406,196Z" style="fill:#eaeaea"/><path d="M401.2,260.6H357.13c-6.93,0-59.88,0-79.43,0-1,0-2-.05-2.94-.07-1.19-1.94-.33-4-.17-5.94q1.47-17.79,3.1-35.58c.71-7.88,1.19-15.79,2.22-23.64.37-2.79,1.43-3.86,3.79-4.21a22,22,0,0,1,6.06-.43q55.83,0,111.67-.06c4.8,0,5.78,1.19,5.3,5.85-1,9.5-1.57,19.05-2.4,28.57-1,11.17-2.05,22.33-3.07,33.49C401.2,259.23,401.22,259.92,401.2,260.6Z" style="fill:#e0e0e0"/><path d="M283.7,191.14a4.84,4.84,0,0,0-3.16,4.49q-2,23.33-4.1,46.64c-.54,6.08-1.12,12.16-1.68,18.24l-1.9.05Q274,248.68,275,236.79c.51-5.76,1-11.53,1.47-17.29.73-8.23,1.45-16.46,2.26-24.68A4,4,0,0,1,283.7,191.14Z" style="fill:#898989"/><path d="M348,257.87c-14.81,0-29.61-.05-44.42.05-2.18,0-2.76-.7-2.55-2.7.78-7.69,1.54-15.38,2.23-23.08.53-5.91.91-11.83,1.42-17.74s1.18-12.09,1.66-18.15c.14-1.64.86-1.91,2.31-1.9,8.23.06,16.46,0,24.7,0h64.13c3,0,3.17.36,2.83,3.21-.54,4.47-.89,9-1.3,13.44q-.88,9.63-1.74,19.28c-.35,4-.64,7.93-1,11.89-.43,4.79-1,9.56-1.33,14.35-.14,1.77-1.36,1.3-2.31,1.3q-20.61,0-41.24,0Z" style="fill:#fff"/><path d="M289.59,257.87c-2,0-3.93-.07-5.88,0-1.43.07-1.89-.53-1.78-1.86.36-4.11.66-8.23,1-12.34s.85-8.5,1.24-12.76q.9-9.74,1.76-19.49c.35-4.11.65-8.23,1-12.34,0-.53,0-1.07,0-1.59.37-3.13.37-3.13,3.55-3.13,3.47,0,6.95.07,10.42,0,1.53,0,2.07.55,1.87,2-.6,4.31-.59,8.67-1.21,13s-.69,8.53-1.06,12.79c-.55,6.2-1.18,12.39-1.72,18.59-.38,4.42-.76,8.83-1,13.26-.18,3.76-.22,3.91-3.94,3.91Z" style="fill:#fff"/><path d="M380.06,208q-29.56,0-59.12,0h-1.59a1.41,1.41,0,0,0-1.59,1.48c-.27,3.29-.61,6.57-.9,9.85-.35,4-.64,7.92-1,11.88-.56,6.2-1.11,12.39-1.74,18.57-.19,1.86.57,2.26,2.3,2.26,20.16-.05,40.33,0,60.49-.05.7,0,1.54.35,2-.5h0c.57-6.46,1.17-12.9,1.71-19.36.67-7.88,1.29-15.76,1.93-23.64C381.9,207.6,380.91,208,380.06,208Z" style="fill:#d3d3d3"/><path d="M352.81,204.36c-14.21,0-28.42,0-42.63,0-1.86,0-2.47-.48-2.43-2.4.11-5.35,0-5.35,5.26-5.35q41.26,0,82.54,0c3,0,3,0,2.95,2.92,0,.45,0,.91,0,1.36-.29,3.43-.29,3.43-3.73,3.43Z" style="fill:#d3d3d3"/><path d="M446.24,304.28H143.84a6,6,0,0,1,0-12.07h302.4a6,6,0,1,1,0,12.07Z" style="fill:#c2bfbf"/><rect x="242.43" y="391.62" width="6.74" height="70.76" rx="1.99" transform="translate(163.58 -58.78) rotate(20.32)" style="fill:#c2bfbf"/><rect x="298.03" y="391.62" width="6.74" height="70.76" rx="1.99" transform="translate(732.32 722.76) rotate(159.68)" style="fill:#c2bfbf"/><rect x="236.02" y="376.66" width="76.41" height="20.22" rx="5.97" style="fill:#c2bfbf"/><path d="M364.14,284.43c1.55-2.7,1.2-5.67,1.23-8.58,0-5.08,0-5.08,5.13-5.09,3.24,0,6.49.07,9.73,0,1.66-.05,2.29.49,2.24,2.19-.11,3.83.15,7.68-.53,11.48a5.79,5.79,0,0,1-4.43,2.31c-5.18.06-10.36,0-15.73,0C362.36,285.55,364.14,285.87,364.14,284.43Z" style="fill:#00b9b9"/><path d="M388,283.07c-.57-3.06-2.77-5.1-4.64-7.32-3.27-3.89-3.29-3.88.6-7.21,2.47-2.1,5-4.15,7.38-6.34,1.23-1.11,2.06-1.11,3.13.21,2.4,3,5.1,5.74,7.05,9.08a5.79,5.79,0,0,1-1.87,4.63c-3.9,3.41-7.86,6.74-11.95,10.23C387.42,285.07,389,284.16,388,283.07Z" style="fill:#840d63"/><rect x="321.24" y="211.57" width="53.2" height="3.62" rx="1.47" style="fill:#f7f7f7"/><rect x="321.24" y="217.45" width="53.2" height="3.62" rx="1.47" style="fill:#f7f7f7"/><rect x="321.24" y="223.25" width="53.2" height="3.62" rx="1.47" style="fill:#f7f7f7"/><rect x="321.24" y="229.21" width="53.2" height="3.62" rx="1.47" style="fill:#f7f7f7"/><rect x="321.24" y="235.16" width="53.2" height="3.62" rx="1.47" style="fill:#f7f7f7"/><path d="M73.57,449.61a23.54,23.54,0,0,0-3.26,14.6,11.62,11.62,0,0,0,4.56,3.38c12.16,4.15,23.81,8.17,36.75,8.92.83-.76,2.14-1.44,2.85-2.25,1.82-2.08,1.71-3.21-1-4.28-6.8-2.66-13.4-5.69-19.25-10.29a12.11,12.11,0,0,1-1.73-1.84,94.18,94.18,0,0,0-7-8.31A33.06,33.06,0,0,0,73.57,449.61Z" style="fill:#211915"/><path d="M111.62,476.53a10,10,0,0,0-6.29-1.89c-7.24-.24-13.39-2.24-19.9-5.23-4.88-2.25-10.25-2.89-15.07-5.14-.72,2,.35,6.8,2.46,7.2,6.93,1.33,13.43,2.94,20,4.4A52.49,52.49,0,0,0,111.62,476.53Z" style="fill:#272526"/><path d="M148.59,449.56a23.68,23.68,0,0,0-3.25,14.62,11.54,11.54,0,0,0,4.55,3.36c12.13,4.14,23.72,8.15,36.63,8.87a35.84,35.84,0,0,0,2.83-2.25c1.81-2.08,1.71-3.21-1-4.29-6.78-2.65-13.36-5.66-19.16-10.27a11.5,11.5,0,0,1-1.72-1.83,97.2,97.2,0,0,0-7-8.3A33.17,33.17,0,0,0,148.59,449.56Z" style="fill:#211915"/><path d="M186.51,476.44a10,10,0,0,0-6.27-1.89c-7.22-.22-13.34-2.2-19.82-5.2-4.87-2.25-10.23-2.88-15-5.12-.73,2,.34,6.81,2.45,7.21,6.91,1.32,13.37,2.91,19.91,4.37A52.22,52.22,0,0,0,186.51,476.44Z" style="fill:#272526"/><path d="M157.75,245.33c.35-.73,4.25-6.83,4.85-5.56s-.19,3.66.08,5.09c.32-.22,4.66-4,4.46-1.75s-3.71,5.89-5.37,7.8C160.36,249.1,159,247.25,157.75,245.33Z" style="fill:#4f299f"/><path d="M176,231.47c-3.83-13.25-6.95-26.52-10.22-39.88-.42-1.75-.84-3.56-1.33-5.37-1.95-1.22-6.66-4.59-5.42-7.11s4.34-.44,6.27-.66c4.57,6.52,8.94,13,13.57,19.41,2.71,3.75,5.38,7.58,8.19,11.24.42-4.78-.14-9.81,0-14.53s1.69-7.06,6-9c1.7-.77,3.82-.49,5.6-.23,2.53.38,3.38,2,3.64,4.32,1.23,10.83,3.08,21.93,2.87,32.67-.18,9-4.08,11.94-12.83,12.35C187.11,234.92,181.14,232.51,176,231.47Z" style="fill:#ffa900"/><path d="M190.5,137.34c-6.08-3-15.69-8.62-23.42-2.57-9.67,7.56-13.68,18.49-12.24,30.7-1.48,3.19-2.8,5.74-4.28,9-1.84,4.09-3,7.78.14,12s8.1,5.07,13.17,4.08c3.41-3.14,6.68-6.32,10-9.49a14.77,14.77,0,0,0-3.14-3.42c-1.79-1.74-3.34-3.23-4.12-5.7a13.25,13.25,0,0,1-.36-7.28c1.65-.52,3.17-1.13,4.9-1.57,0,0-.23-.76.09.55a8.29,8.29,0,0,0,3.37,4.86,39.9,39.9,0,0,0,15.67,5.2c4.56-7.78,8.43-10.52,7.72-21.39C197.86,149.73,196.59,140.29,190.5,137.34Z" style="fill:#ffc0ae"/><path d="M193.16,174.22c-3.22-4.1-9.46-2.63-13.82-5.51a7.74,7.74,0,0,1-3.73-6.67c0-3,1.49-5.08,1.79-8.65.22-2.52-3.41-5.26-6.48-5.87-4.76-1-10.31-2.44-15.37-2.74-2.26,4.69-7,13-2.15,17.16,3.33,2.85,6.93-.12,10.27-1.34a2.58,2.58,0,0,0,1.76-2.35c-.07-1.15-1.69-1.76-1.78-3.22a4.63,4.63,0,0,1,1-2.95,4,4,0,0,1,3.66-1.66,4.38,4.38,0,0,1,1.33.5c.49.26.87,1.52.89,1.92.12,2.38-1,4-2.13,5.79-4,6.06-8,10.15-6,18.12.21.88,1.4,1.95,3.9,3.33,6.67,3.68,18,8.66,25.38,2.65C194.58,180.35,195.3,176.94,193.16,174.22Z" style="fill:#272526"/><path d="M220.39,290.85c-.29-3-7.47-2.06-10.46-3.16-2.19-.8-7-4.6-10.17-5.58-1.2-.37-2.41,1.1-3.87,1.56a18.91,18.91,0,0,1-5.77.74c.07,1.9.55,5.2,1.74,6.54,2.93,3.29,16.3,4.35,18.72,4.24C213.44,295.07,220.67,293.82,220.39,290.85Z" style="fill:#ffc0ae"/><path d="M152,171.92a124.06,124.06,0,0,0-30.69,13.17c-28.76,17.29-56,49.93-48.45,67.51,1.43,3.3,4.3,6.59,7.9,10.7a101.75,101.75,0,0,0,17.44,15.43c1.77,1.28,3.41,2.4,4.88,3.37,5.4-1.3,11.34,1,16.39.27,6-.86,7.67-2.75,7.68-8.65s-1.62-12.06-1.5-18.12c.07-3.62.26-6.25,2.58-9.55,1.08-1.55,2.81-3.81,5.46-3.63,3.72.25,3.81,5.18,8.24,5,5.37-.24,7.1-9.61,8.27-13.54,1.8-6-2.64-18.67-4.39-22.23-3.59-7.31-5.4-7.48-9.81-13a5.21,5.21,0,0,0,.75,1.31c3,3.24,6.88,7.23,9.06,11.72a298.78,298.78,0,0,0,37.16,58.45c1.1,1.36,4.42,6.14,4.78,9,.25,2,.71,5.31.05,7.48a10.32,10.32,0,0,0,4.46,3.13c3.13,1,6.88-1.14,8.89-2.54s1.48-1.32,2.63-3c-10.39-16-18.82-37.62-23.86-54.58s-8.22-28.57-15.4-42.79C161,179.83,157.2,176.86,152,171.92Z" style="fill:#ffa900"/><path d="M187.78,286.59c-12.39-12.46-22.5-26.23-31.69-41.14-1.34-2.16-2.32-4.1-4.21-5.8A154.72,154.72,0,0,1,137,205.12a6.67,6.67,0,0,1,.76-6.11c5.22,4.93,8.3,10.1,11.7,16.54a363.84,363.84,0,0,0,36.78,56.39C190.13,276.89,191.08,281.08,187.78,286.59Z" style="fill:#e89400"/><path d="M137.84,204c3.31,4.39,6.28,20,11.38,27.89,1.23,1.91,2.78,5.24,2.65,7.73-1.43,2.07-2.43,6.1-4.58,6.58C136.37,245.35,137.55,203.63,137.84,204Z" style="fill:#b56b00"/><path d="M108,342.13c1.13-5.4-.07-4.59-1.15-6.56C99.69,322.49,92,312,84.71,299.66c-.46-1.48-.76-3-1.22-4.57C82,290.25,79.74,286.42,77,282c-1.06-1.69-2.78-2.75-4.18-.34-1.91,47.39-1.28,96.36-4,143.21-.71,12.27-.75,19.14,1.23,30.56a7,7,0,0,0,1.92.38c6.41-.42,12.13-.1,17.75-3.67a26.63,26.63,0,0,0,2.18-8.25c2-15.51,3.53-27.34,5.87-44S104.65,358.43,108,342.13Z" style="fill:#740a51"/><path d="M145.29,455.52c3.91,0,8.73.2,12.43-.09s5.17-1,7.74-3.51c-1-15.86-4.47-38-6.4-52.28-2.11-15.6-1.66-26.78-5.63-39.84-7.7-25.32-16.79-48-25.13-72.66-5-2-9.38-2.7-14.69-1.51,0,0,0-.06,0-.08-2.67-2.32-6.43-3.36-9.34-5.12-10.11-6.11-18.13-14.31-26.36-22.72-1.43-1.46-2.72-3.18-4.91-3.71-2,9.08-1.08,18.37-.17,27.57,5.08,3.42,7,8.24,9.19,13.66a79.4,79.4,0,0,0,3.29,7.29c7.16,13.34,15.56,25.83,23,39,9.17,13.13,17.11,25.28,20.28,41.3,4.06,20.56,7.74,41.5,11.9,62.14C141.28,449,142.12,452.55,145.29,455.52Z" style="fill:#840d63"/><path d="M128.25,287.23c-2.37,0-5.57.38-7.79-.16-13.22-3.19-22.62-9-31.61-18.63,4.68,5.06,18.64,10.37,23.3,11.57,6.29,1.62,8.62,1.33,11.48-.84,4.32-3.28,1.54-5.17,1.31-9.25-.35-6.3-1.62-13.39-1.1-19.8.13-1.69-.36-2.17.8-3.61,3.57-4.42,9.1-5.62,13.29-10,1.85-1.92,2.6-6.64,2.29-9.52,1.42,4.3,2.73,8.1,4.3,12.6.76,2.18,1.91,5.52,2.86,7.85C140.53,260.56,134.36,273.79,128.25,287.23Z" style="fill:#b56b00"/><path d="M201.07,187.12c-2-4.55-2.54-7.41-6.87-11-3.4-2.82-9.17-5-14.06-2.94-.64.28-1.72.44-1.7,1.5.14,6.36,5.47,10,10.33,13.38C192.89,187.8,196.9,187.42,201.07,187.12Z" style="fill:#ffc0ae"/><path d="M83.54,262.18c-.14-2.27,1.56-2,3.15-2a15.19,15.19,0,0,1,1.67.43c1.74.28,2.83.21,3.8-1.35a4.54,4.54,0,0,0,.64-1.84A19.46,19.46,0,0,1,96.49,249c1.05-1.53,3.32-2.09,4.89-2.31s3-.18,4.2-.27a2.28,2.28,0,0,0,2.12-1.07c1.86-2.43,2.7-5.14,3.69-7.93a16.34,16.34,0,0,1,2.1-4.41c1.72-2.24,3.34-2.72,5.73-1.51,1.37.69,3,1.42,4.25,1.92s1.58,0,2.14-.61a2.28,2.28,0,0,0,.61-1.58c.54-3.47,1.31-6.79,2.1-10.17a154.24,154.24,0,0,1,4.38-14.95c.69-2,1.58-3.89,2.32-5.85a1.52,1.52,0,0,1,1.13-1c.52-.15.76,1.11.79,1.18.37,1,1.46,5.73,1.48,5.92a118.77,118.77,0,0,0,3.5,18.54,69.73,69.73,0,0,0,3.86,10.68,3.2,3.2,0,0,1-2.42,3c-1,.24-.8.14-.73.81a2.37,2.37,0,0,1-.3,1.64c-3.43,5.33-6.66,10.79-9.74,16.26a86.8,86.8,0,0,0-4.85,11c-.75,1.88-1.51,3.71-2.4,5.49-1.38,2.76-2.39,5.67-3.7,8.43-.29.62-.07,1.37-.18,1.93-.24,1.32-.4,1.52-1.8,1.16-3-.76-6.23-1.8-9.28-2.58a24.45,24.45,0,0,1-4.5-1.76c-2.54-1.23-5.38-2.57-7.83-3.68a15.33,15.33,0,0,1-4.4-3.48c-2.88-3.27-6.4-5.94-8.76-8.91A4.74,4.74,0,0,1,83.54,262.18Z" style="fill:#e89400"/><path d="M148,235.58c-3.15,2.23-7.28,10-8.63,12.42-4.52,8.08-7.26,12.69-10.62,20.75-1.87,4.48-3.41,11.69-7.35,15.07-3.26,2.78-7.73-.51-10.23-1.3-4.62-1.47-10.19-6.24-12.53-8.49-9-8.6-16.59-14.15-25.77-21.43.38,1.26-.63,1.86,0,3.16s1.76,2.14,3,3.29c12.53,11.83,23.71,23.81,35.76,37,1.29,1.41,5.77,6.59,7.49,8.57,2.74-5.19,5.27-10.92,7.78-16.23,7.53-15.89,15.4-31.19,24.28-46.33C150,240,149.17,237.55,148,235.58Z" style="fill:#fff"/><path d="M149.42,234.88A162.71,162.71,0,0,0,135.08,256c-3,5.2-5,10.63-7.44,16-1.53,3.36-3,6.64-4.49,10a3.48,3.48,0,0,1-1.84,2.12,1.59,1.59,0,0,1-.12-1.79c3.24-7.3,6.16-14.55,9.45-21.84,2.48-5.51,5.84-10.63,8.93-15.9.69-1.18,1.52-2.42,2.33-3.67.38-.58.78-1.08,0-1.74-.18-.16-.11-.69.1-.92a.76.76,0,0,1,.86-.21c.8.54,1,.25,1.55-.4s.94-1.32,1.45-1.95,1.16-1.31,1.67-1.88,1-1,1.7-.64S149.57,234.28,149.42,234.88Z" style="fill:#b56b00"/><path d="M189,191c-.19-1.48,9.54-.17,10.46-.08s3.24-.3,2,.4S189.17,192.42,189,191Z" style="fill:#b56b00"/><path d="M198.62,278.2c2.1-.94-.25,1.16-.39,1.63-.83,2.67-6,7.31-8.2,7.85s.4-.53.74-1C192.4,284.53,196.52,279.15,198.62,278.2Z" style="fill:#b56b00"/><path d="M118.86,267.85c-1.1,0-2-.29-2-1.47a54.73,54.73,0,0,0-2.06-13.66c-.08-.27-.19-.56-.25-.8-.62-2.57-.16-3.67,2.06-5.19,1.19-.82,2.55-.78,2.76.92.34,2.7.66,5.3,1.14,8s1.13,5.61,1.69,8.29-.23,3.42-2.8,3.89A3.51,3.51,0,0,1,118.86,267.85Z" style="fill:#b56b00"/><path d="M129.25,260.55a.9.9,0,0,1-.93-.93c0-.55.4-.77.92-.75a.85.85,0,0,1,.91.84A.78.78,0,0,1,129.25,260.55Z" style="fill:#b56b00"/><path d="M137.53,245.71a.75.75,0,0,1-.72-.88.79.79,0,0,1,.91-.74.8.8,0,0,1,.78,1A.79.79,0,0,1,137.53,245.71Z" style="fill:#b56b00"/><path d="M134.4,252.54a.67.67,0,0,1-.71.69.69.69,0,0,1-.66-.76.62.62,0,0,1,.76-.56C134.18,252,134.42,252.15,134.4,252.54Z" style="fill:#b56b00"/><path d="M338.34,272.09c.35-.44.59-1,.08-1.48a1.22,1.22,0,0,0-1.69,0c-1.75,1.16-3.55,2.38-5.34,3.53-.31.2-.68.33-1,.5a18.38,18.38,0,0,0-4,3.38,14.22,14.22,0,0,1-7.13,3.91c-2.32.53-4.71.9-7,1.33a3.27,3.27,0,0,0-1.56.6c-.29.29-.26.39-.22.59a13.92,13.92,0,0,0,2.44,5.53,6.13,6.13,0,0,1,.63,1.69c8.6-3.47,17.35-6.66,26-9.8,4.36-1.58,6.36-4.76,8.6-8.56.38-.65-11.53,2.58-11.47,2.51C337.59,274.88,338,272.54,338.34,272.09Z" style="fill:#ffc0ae"/><path d="M275.26,176.07a17.7,17.7,0,0,0-12.76,31l-2,15.64a4.52,4.52,0,0,0,2,4.32,13.15,13.15,0,0,0,5.32,2.23,5.73,5.73,0,0,0,6.33-5.31l.59-4.68h0l.49-3.91h0a7.86,7.86,0,0,0,1.19.25A11,11,0,0,0,288.61,206l.93-7.7a17,17,0,0,0,.42-2.17,15.61,15.61,0,0,0,.09-2.64A16.82,16.82,0,0,0,275.26,176.07Z" style="fill:#ffc0ae"/><path d="M353,429.38a28.75,28.75,0,0,1,5.71,6.4c2.65,3.75,5.19,7.55,8.52,10.63,2.64,2.43,5.38,4.34,7.85,6.89a59.12,59.12,0,0,1-5.14-11.48c-2.13-6.49-4.32-13.05-6-19.67-.15-.63-.25-1.21-.42-1.77s-.65-.62-1.09-.72a39.64,39.64,0,0,1-9.07-3c-.21-.1-.57-.28-.57.12,0,3.64.3,7.26.46,10.93A2.22,2.22,0,0,1,353,429.38Z" style="fill:#ffc0ae"/><path d="M383.22,432.44a6.82,6.82,0,0,1,3.13,2.34c2.09,2.84,3.75,5.79,5.59,8.78a40.2,40.2,0,0,0,8,9.46c.93.8,1.82,1.68,2.67,2.56a51.9,51.9,0,0,1-3.41-9.39c-1.23-5-2.18-10.05-3.22-15.12a39.25,39.25,0,0,0-1-5.13c-.33-.95-1.44-.76-2.22-1.1-2.37-1-4.76-1.8-7.2-2.73-.66-.24-1.37-.64-2.09-.2A88.17,88.17,0,0,1,383.22,432.44Z" style="fill:#ffc0ae"/><path d="M244.47,368.87c-.27.78,13.76,10.85,31.8,9.42,1.84-.14,14.48-1.64,25.33-9,6.9-4.67,13.31-10.13,20.89-13.73a43.87,43.87,0,0,1,11.22-3.65c5.4-.94,4.4-1.19,6.2,3.37,6.6,16.76,11.67,36.57,11.54,54.63,0,5.23-.46,5.76,3.9,8,2.09,1.08,7.56,3.26,9.25,1.7s.68-10.85,1-13.49a147.15,147.15,0,0,1,2.72-15.3c4.72,7.09,9.16,13.58,12,21.73.9,2.61.9,6.89,2.57,8.87,1.88,2.21,9.47,3.79,12.25,4.42-.11-25.06-6.16-49.87-15-73.26-2.12-5.63-4.79-10.77-6-16.66-1.09-5.22-1.7-11-5.13-15.32-6.46-8.16-21.64-10-31.22-10.86a228.28,228.28,0,0,0-34.79-.49c-8.06.6-14.2,13.68-19.62,19.75-7.93,8.87-14.33,16.41-17.06,28.16-1.28,5.45-2.17,9.59-6,12C253.87,373.3,244.68,368.25,244.47,368.87Z" style="fill:#840d63"/><path d="M256.34,371.7c6.9-2.61,8.83-8.47,10.39-15.09a44.28,44.28,0,0,1,9.86-19.45c5.93-7.22,12.85-13.71,18.34-21.28,3-4.08,5.55-5.51,2.42-8.87-5.21-5.56-16.21-6.56-22.67-10.35-.84-.5-2.78-.83-3.61-2.41-1-1.86.5-3.14.16-5.48-.65-4.38-6.79-6.51-6.2-7.84.34-.75,2.35-.31,2.51-.92s-2.31-1.52-3.49-2.63c-1.68-1.59-2.48-5.46,1.56-15.57-5-25.34-7.72-30.83-9.32-30.68-3.22.28-5,23.47-4.56,41.18.29,10.91.37,11.26.31,16.45-.15,13-8.56,21.4-15.75,31.45-6.94,9.7-10.7,18.38-4.75,29.72a47.35,47.35,0,0,0,11.32,13.68C244.72,365.18,253.67,372.71,256.34,371.7Z" style="fill:#fff"/><path d="M259.87,266.36c3.91,6.62,5.44,15.59,8.28,22.78,2.39,6,3.69,16.58,11.17,15.92,7.73-.7,15.93-5.09,23.36-7.26l.08,0c5.39-1.54,11.88-3.42,12.18-6.31.05-.42-.33-1.18-1.07-2.7s-1.77-3.58-2.56-4.22c-3.44-2.78-15,12.48-24.33,10.39-5.25-1.18-10-6.87-11.09-14.5-1.29-8.71-1.94-16.5-5.15-24.84-2.59-6.72-5.35-12.47-2.24-19.45-7.68,1.49-11.62,1.68-10.05,10.7.6,3.45,1.79,6.79,2.07,10.3C260.66,258.87,259.13,265.12,259.87,266.36Z" style="fill:#edeef0"/><path d="M256.34,371.76c-16.38-9.39-35.6-25.62-23.44-45.94,5.31-8.88,13.57-16.18,17.6-25.85,2-4.82,2.09-9.62,1.93-14.78-.06-1.9-1.68-11.89,0-13.49-2.38,0-5.7-1.39-7.95-1.21q-3-2.33-3.25.85-1,2.49-2,4.93c-2.35,5.51-4.89,10.94-7.41,16.37-5,10.86-11.31,22.56-12,34.72C218.83,343.51,238.05,376.35,256.34,371.76Z" style="fill:#edeef0"/><path d="M314.34,289.94c-2.68-6.5-2.07-8.1-9.8-7.64-3.23.2-13.22,3.93-16.06,2.79-6.42-2.58.18-17,.79-21.77,1.13-8.78-2.31-20.25-5.3-28.65-2.59-7.26-11.87-16-18.71-7.36-3.62,4.54-.21,10.44,4,25.6,3.15,11.36,4.73,17,5.91,23.76,1.61,9.1,1.85,15,6.37,17.72,2.21,1.32,4.5,1.33,7.4,1.13A92.61,92.61,0,0,0,314.34,289.94Z" style="fill:#fff"/><path d="M283.67,191.9a38.46,38.46,0,0,0-5.26,3.6,10.09,10.09,0,0,0-4.14,6.71c-.15.85-.2,1.74-.4,2.6-.51,2.28-1,4.57-3.12,6.11-1.39,1-2.69,2.16-4,3.26a8.31,8.31,0,0,0-2.73,3.59,12.05,12.05,0,0,0,.88,9.92,20.55,20.55,0,0,1,2.56,8.45,4.86,4.86,0,0,1-1.73,4.45c-1.95,1.45-3.85,2.95-5.86,4.31-5.23,3.48-6.55,7.88-3.74,13.19,2.32,4.39,5.63,8,8.93,11.71,1.82,2,4,3.86,4.78,6.62.14.47.43,1.19-.12,1.3-2.36.44-1.88,2.71-2.84,4a.83.83,0,0,0,0,1c-21.78,9.67-68.17-19.33-51.55-41.7,4.67-6.29,6.85-9.18,8.36-17.09a27.66,27.66,0,0,1,10.51-17.35c6.8-5.21,10.58-8.09,14.26-16.05,3.07-6.69,6.83-12.67,12.88-17.07,6.64-4.84,15.81-1.8,22.39,1.57a21.79,21.79,0,0,1,2.54,1.49,1.29,1.29,0,0,0-.82.28,1.33,1.33,0,0,0-.26,1.75c1.14,2.07,1.1,4.35,1.27,6.56C286.62,187.77,286.5,190.46,283.67,191.9Z" style="fill:#272526"/><path d="M287.31,192.7c-5.2,6.18-10.9,1.65-11.69,10.65-.47,5.24.11,4.66-3.75,8.15-2.91,2.63-5.74,4.36-6.42,8.65-1.16,7.24,7,10,5.88,15.7C270,243,258.7,242.26,256.88,249.6c-3,12.22,25.42,21.47,13.78,30.86a17,17,0,0,1-3.82,2.3.83.83,0,0,1,0-1c1-1.31.48-3.58,2.84-4,.55-.11.26-.83.12-1.3-.79-2.76-3-4.6-4.78-6.62-3.3-3.68-6.61-7.32-8.93-11.71-2.81-5.31-1.49-9.71,3.74-13.19,2-1.36,3.91-2.86,5.86-4.31a4.86,4.86,0,0,0,1.73-4.45,20.55,20.55,0,0,0-2.56-8.45,12.05,12.05,0,0,1-.88-9.92,8.31,8.31,0,0,1,2.73-3.59c1.35-1.1,2.65-2.23,4-3.26,2.12-1.54,2.61-3.83,3.12-6.11.2-.86.25-1.75.4-2.6a10.09,10.09,0,0,1,4.14-6.71,38.46,38.46,0,0,1,5.26-3.6c2.83-1.44,2.95-4.13,2.75-6.75-.17-2.21-.13-4.49-1.27-6.56a1.33,1.33,0,0,1,.26-1.75,1.29,1.29,0,0,1,.82-.28C292,180.57,292.89,186.05,287.31,192.7Z" style="fill:#211915"/><path d="M397.5,425.28c-.08,1.61-1,2.28-2.47,1.81a21.23,21.23,0,0,0-5.92-.8,59.43,59.43,0,0,1-7-1,1.87,1.87,0,0,1-1.48-1.59c-.57-2.61-1.46-5.13-2.2-7.69-.53-1.85.14-2.55,2.09-2.72,2.47-.22,4.65.95,7,1.26,2.78.37,5.44,1.37,8.26,1.55a1.58,1.58,0,0,1,1.56,1.72C397.33,419.26,397.55,424.23,397.5,425.28Z" style="fill:#740a51"/><path d="M351.83,408.47c1.36-.18,2.44.81,3.65,1.43a22,22,0,0,0,5.83,2.26c1.79.36,3.39,1.46,5.36,1.26.65-.06,1.1.57,1,1.3-.18,2.23-.38,4.46-.62,6.69-.1,1-.84,1.21-1.68,1.16a26.76,26.76,0,0,1-11.8-3c-3.34-1.9-3.33-1.94-3.52-5.85a12.75,12.75,0,0,0-.35-2.83C349.12,408.73,349.5,408.27,351.83,408.47Z" style="fill:#740a51"/><path d="M339.71,350.9c2.31-.25,4.59.61,6.88,0,2.12-.58,6.93-3.95,7.17-4.3.68-1,1.33.28,1.44.86A66.46,66.46,0,0,0,357,354.9c1.5,4.77,2.2,9.75,3.56,14.56,1.12,4,1.48,3.52,5.25,13.62,2.53,6.79,2.7,7.7,2.54,7.77-.35.16-2.63-3.82-4.37-7.29-5.86-11.71-8.51-25.2-9.14-28.59-.26-1.41-.43-2.86-.75-4.26s-.85-1-1.94-.59c-2.37.9-4.33,2.27-6.95,2.44a24.58,24.58,0,0,1-7.69-1.57A9.18,9.18,0,0,1,339.71,350.9Z" style="fill:#740a51"/><path d="M239.86,234.68c-.81-.07-2,.25-2.05-.94s1-1.42,2-1.35c.78.06,1.1-.38,1.36-1a13.51,13.51,0,0,0,.83-4.18c.22-2.79.06-5.68,1.19-8.31,1.88-4.37,3.23-9,6.09-12.92a46.59,46.59,0,0,0,4.72-8.67c.18-.42.32-.87.85-.79s.63.65.61,1.13a17.71,17.71,0,0,1-1.84,6.28c-1.42,3.35-3.52,6.34-5.24,9.53a22.84,22.84,0,0,0-2.69,9.11c-.18,2.18.26,4.37-.25,6.54a8.28,8.28,0,0,1-2.13,4.14A4.26,4.26,0,0,1,239.86,234.68Z" style="fill:#211915"/><path d="M232.33,240.13c-1.15,4.81-.3,9.79-1.23,14.63-.38,2-1.63,3.5-3.08,3.48a4.07,4.07,0,0,1-4.14-3.72,4.34,4.34,0,0,0-.17-.69c-.14-.49-.17-1,.35-1.25a1.2,1.2,0,0,1,1.46.19c.55.53,1,1.11,1.62,1.62s1.1.51,1.37-.37a11.52,11.52,0,0,0,.57-3.51,37.9,37.9,0,0,1,.85-9.79,7.14,7.14,0,0,1,.37-1.07c.25-.61.62-1.11,1.39-1S232.09,239.64,232.33,240.13Z" style="fill:#211915"/><path d="M222.82,273.71a10.15,10.15,0,0,1-5.64-4.32,20.71,20.71,0,0,1-3.42-15.51c.67-4.23,1.62-8.34,4.54-11.7a14.4,14.4,0,0,1,3.1-2.73c.41-.27,1-.54,1.28-.06s-.45.5-.76.7a13.52,13.52,0,0,0-5.15,6.34,23.82,23.82,0,0,0,0,19.56,15.65,15.65,0,0,0,5.18,6.54C222.29,272.8,222.78,273,222.82,273.71Z" style="fill:#211915"/><path d="M275.47,177.85a2.07,2.07,0,0,1,2,1.15,5.43,5.43,0,0,1-.95,7.45,12.3,12.3,0,0,1-3.44,2,15.37,15.37,0,0,0-9.48,14.93,30.23,30.23,0,0,1,.1,5.21,7,7,0,0,1-.79-2.74c-1.72-7.36,1.49-13.38,7.06-17.38a14.2,14.2,0,0,1,3.24-1.49,10.11,10.11,0,0,0,2.9-1.79,4.17,4.17,0,0,0,.72-5.43C276.47,179.16,276,178.61,275.47,177.85Z" style="fill:#211915"/><path d="M215.84,233.41c-.63-.23-.43-.64-.18-1a9.31,9.31,0,0,1,2.7-2.92c3.42-2,5.37-5.18,6.83-8.74a18.4,18.4,0,0,1,4.91-7.29c.46-.4,1-1.11,1.54-.47s-.14,1.33-.55,1.59c-2.55,1.65-3.42,4.34-4.44,6.93-1.25,3.14-2.77,6.1-5.56,8.15a35.2,35.2,0,0,0-4.21,3.18A4.62,4.62,0,0,1,215.84,233.41Z" style="fill:#211915"/><path d="M237.23,198.6a8.44,8.44,0,0,1,3.05-2.66,38.75,38.75,0,0,0,5.74-4c1.8-1.71,2.66-3.94,3.74-6a16.72,16.72,0,0,1,9.88-8.56c.42-.15,1-.71,1.33.08.23.64-.46.74-.88.89-5.38,1.86-8.43,6-10.63,10.93a13.44,13.44,0,0,1-5.51,6A33.13,33.13,0,0,1,237.23,198.6Z" style="fill:#341338"/><path d="M253.68,189.31c2.3-2.28,3.39-5.15,4.56-8,1-2.5,5.4-4.5,8.14-4.08.52.08,1.06.31,1,.8s-.67.32-1.05.35c-3.12.29-6.78,1.38-7.84,5.65-.54,2.19-2.17,3.77-3.79,5.28C254.52,189.5,254.27,189.64,253.68,189.31Z" style="fill:#211915"/><path d="M259.76,281.18a22.34,22.34,0,0,1-12-3.69c-.37-.24-1.07-.48-.71-1s.85.07,1.24.28A25.5,25.5,0,0,0,259.88,280c1.5.05,3-.2,3.45-2.06.08-.33.35-.77.81-.65s.25.56.25.87c0,1.58-1.24,2.79-3.2,3A13.64,13.64,0,0,1,259.76,281.18Z" style="fill:#211915"/><path d="M249.7,256.27c.06-3.71.83-6,2.29-8,.28-.39.49-.92,1.08-.41.43.38.2.72-.08,1.11a9,9,0,0,0-1.12,9.49c.56,1.25,1.13,2.51,1.65,3.79a4.62,4.62,0,0,1,.24,1.24c0,.22.06.51-.23.61s-.44-.15-.54-.34C251.5,261,249.69,258.39,249.7,256.27Z" style="fill:#211915"/><path d="M239.83,208a3.9,3.9,0,0,1-.57,2.42,12.36,12.36,0,0,1-3.57,5.08c-1.66,1.36-2.43,3.26-3.3,5.11a2,2,0,0,0-.08,1.53c.16.43.18.81-.28.91s-.56-.35-.7-.72a2.74,2.74,0,0,1,.2-2.07c.95-2.39,2-4.68,4.21-6.3,1.6-1.15,2.35-3.07,3.23-4.81C239.17,208.77,239.22,208.24,239.83,208Z" style="fill:#211915"/><path d="M255,235.91c.77-.13,1.31.19,2,.08,2.85-.48,3.09-2.81,2.39-5.74-.34-1.4-1.33-2.67-.87-4.24,2.3,2,3.19,6.82,1.72,9.37C259.23,237,256,237.39,255,235.91Z" style="fill:#211915"/><path d="M281.23,206.39c-.39,0-.37-.25-.31-.49a5.45,5.45,0,0,1,.82-2.18,9.89,9.89,0,0,0,1.79-6.23,10.8,10.8,0,0,1,1.06-5c.17-.31.29-.81.74-.59s.21.75.05,1c-1,1.46-.91,3.11-.9,4.73a10.07,10.07,0,0,1-1.23,5.63,22.87,22.87,0,0,0-1.58,2.65A2.57,2.57,0,0,1,281.23,206.39Z" style="fill:#211915"/><path d="M412.79,468.75a15.88,15.88,0,0,0-2.2-3.42c-2.53-3.31-5.32-6.54-7.95-9.78a38.71,38.71,0,0,0-3.68-3.89c-3.56-3.25-6-7.18-8.48-11.25-1.29-2.13-2.53-4.12-4-6.14a3.7,3.7,0,0,0-3.2-1.81,1.55,1.55,0,0,0-.47.15c-1.65.77-2.23,3.61-2.35,4.25a32.49,32.49,0,0,0-.83,7.33c.56,7.42-.07,14.9.26,22.34h1.91c0-13.86,1.62-17,3.16-17.34,2-.42,4.89,3.84,16.34,17.35a33.12,33.12,0,0,0,8.4,5.31c.91.4,1.95.81,2.78-.05A2.59,2.59,0,0,0,412.79,468.75Z" style="fill:#272526"/><path d="M383.9,464.11a7,7,0,0,0-1.15-2.06c-2.43-3.08-5.14-5.81-7.66-8.79a37.06,37.06,0,0,0-5.8-5.67,40.85,40.85,0,0,1-7.64-8.36c-2-2.72-3.87-5.59-6.1-8.18a4.39,4.39,0,0,0-2.6-1.68c-1.16-.23-1.77-.05-1.78,1.4a24.73,24.73,0,0,1-1.1,6.64c-.85,3,.95,27.16.95,27.16h1.91c-.53-15.05.86-19.2,2.51-19.55,1.1-.23,3.14,2.14,7.22,6.88,2.36,2.75,3.77,4.3,6.52,7.54A25,25,0,0,0,381,467.11a2.35,2.35,0,0,0,2.49-.3A2.59,2.59,0,0,0,383.9,464.11Z" style="fill:#272526"/><path d="M278.52,206c2.56,0,2.56-4,0-4s-2.57,4,0,4Z" style="fill:#840d63"/></g></g></svg>