<svg xmlns="http://www.w3.org/2000/svg" viewBox="0 0 348.07 434.55"><title>venderRecurso 4</title><g id="Capa_2" data-name="Capa 2"><g id="Capa_1-2" data-name="Capa 1"><ellipse cx="192.02" cy="340.55" rx="96.91" ry="55.95" style="fill:#631350"/><ellipse cx="241.45" cy="279.14" rx="85.35" ry="49.28" style="fill:#631350"/><path d="M178.21,212.82l74.3,14.35,74.29-14.35s.26,8.64-27.87,70.22a19.16,19.16,0,0,1-1.51,3.31l-.14.31h0c-2.27,3.87-6,7.52-11.37,10.6-18.56,10.72-48.65,10.72-67.21,0-8-4.63-12.55-10.5-13.64-16.54C177.94,221.21,178.21,212.82,178.21,212.82Z" style="fill:#ffa81f"/><path d="M305.18,178.47c-29.23-16.87-76.6-16.87-105.83,0s-29.22,44.23,0,61.1,76.6,16.87,105.83,0S334.4,195.35,305.18,178.47Z" style="fill:#ffc783"/><path d="M187.78,209a14.56,14.56,0,0,0,.53,3.91c1.69,6.31,7.42,12.6,16.21,17.67,12.4,7.18,29.8,11.26,47.75,11.26,18.2,0,35.14-4,47.73-11.26,8.8-5.07,14.52-11.36,16.22-17.67a14.56,14.56,0,0,0,.53-3.91c0-7.56-6.12-15.44-16.75-21.58-12.4-7.15-29.8-11.26-47.73-11.26-18.19,0-35.16,4-47.75,11.26C193.89,193.58,187.78,201.46,187.78,209Z" style="fill:#f7ae4d"/><path d="M188.31,212.93c1.69,6.31,7.42,12.6,16.21,17.67,12.4,7.18,29.8,11.26,47.75,11.26,18.2,0,35.14-4,47.73-11.26,8.8-5.07,14.52-11.36,16.22-17.67-1.7-6.33-7.4-12.59-16.22-17.71C287.6,188.07,270.2,184,252.27,184c-18.19,0-35.16,4-47.75,11.29C195.7,200.34,190,206.6,188.31,212.93Z" style="fill:#ce8228"/><path d="M252.26,215.93a7.71,7.71,0,0,0,3.74-.88,1.75,1.75,0,0,0,0-3.38,7.7,7.7,0,0,0-3.73-.88,7.6,7.6,0,0,0-3.74.88,1.75,1.75,0,0,0,0,3.38A7.7,7.7,0,0,0,252.26,215.93Z" style="fill:#008884"/><rect x="247.23" y="106.65" width="10.08" height="106.71" transform="translate(504.53 320.01) rotate(180)" style="fill:#008884"/><path d="M255.14,113.13S256.26,83.62,258.6,62,240.74.33,196.81,0c0,0,8,8.82,9.39,16s18.44,43.53,29.6,61.9,10,34.31,10,34.31S249.91,118,255.14,113.13Z" style="fill:#00b8b8"/><path d="M253,118a12,12,0,0,0,5.86-1.38c1.3-.75,2.05-1.72,2.05-2.65s-.75-1.9-2.05-2.65A12.11,12.11,0,0,0,253,109.9a12,12,0,0,0-5.87,1.38c-1.3.75-2.05,1.72-2.05,2.65s.75,1.9,2.05,2.65A12.13,12.13,0,0,0,253,118Z" style="fill:#00b8b8"/><path d="M253,112.41s-18-19.1-30.26-34.09S173,51.16,146.1,78.63c0,0,10.45.45,15.84,4.08s38.71,15.53,57.09,20,27.78,15.07,27.78,15.07S252.93,118.76,253,112.41Z" style="fill:#00b8b8"/><path d="M252.27,106.08s12.91-22.83,21.27-40.31,41.89-38.23,74.53-17.94c0,0-10,2.92-14.42,7.73s-33.9,24.29-50.7,33-23.39,21.25-23.39,21.25S253.86,112.22,252.27,106.08Z" style="fill:#00b8b8"/><path d="M254.23,108.89s17.07-.31,29.63-1.4,35.28,10.83,34.7,35.84c0,0-5-4.66-9.1-5.52s-24.83-11-35.24-17.52-19.65-6.09-19.65-6.09S251.31,111.82,254.23,108.89Z" style="fill:#00b8b8"/><path d="M255.81,112.54s-3.89-9.85-6.26-17.31S234.93,77.6,220.74,83.89c0,0,3.85,1.73,5.33,3.9s12.21,11.61,18.44,16a22.9,22.9,0,0,1,8.17,9.81A2.08,2.08,0,0,0,255.81,112.54Z" style="fill:#00b8b8"/><path d="M94.07,117.28a2.54,2.54,0,0,1,2.58.25l27.09,15.64a8,8,0,0,1,3.61,6.26l-.17,59.82a2.51,2.51,0,0,1-1.05,2.32l-3.41,2a2.52,2.52,0,0,0,1.06-2.32l.17-59.82a8,8,0,0,0-3.62-6.26L93.24,119.51a2.54,2.54,0,0,0-2.58-.25Z" style="fill:#d1deff"/><path d="M93.24,119.51c-2-1.16-3.63-.23-3.64,2.07l-.17,59.82a8,8,0,0,0,3.62,6.26l27.09,15.64c2,1.15,3.63.24,3.64-2.07l.17-59.82a8,8,0,0,0-3.62-6.26Z" style="fill:#adc4ff"/><polygon points="103.42 141.97 107.52 144.33 107.52 135.86 103.42 133.49 103.42 141.97" style="fill:#8293bf"/><path d="M173.54,214.52s-47.09,74-73.3-9.21" style="fill:none;stroke:#721561;stroke-linecap:round;stroke-linejoin:round;stroke-width:16.915887328027px"/><path d="M102.85,180.87h0A6.23,6.23,0,0,0,96,185.19l-3.57,11.5a8.15,8.15,0,0,0,6.63,10.49h0a8.14,8.14,0,0,0,9.31-8.2l-.19-12A6.24,6.24,0,0,0,102.85,180.87Z" style="fill:#ffbfad"/><path d="M61.3,392.5s-2,7.6-5.74,8.57c-5.56,1.45-27,6.32-37.47,2.2s-5-10,1.26-11.68c17.6-4.67,24.12-5.43,30.37-6.9C55.57,383.32,61.52,388.28,61.3,392.5Z" style="fill:#2b2a2a"/><line x1="53.68" y1="388.95" x2="69.53" y2="363.65" style="fill:none;stroke:#ffbfad;stroke-linecap:round;stroke-linejoin:round;stroke-width:12.0827766628764px"/><path d="M171.78,305.42c-23.09,3.78-54.93-14.85-74.93-6.66S65.49,359.92,52,376c1.4,5.94,7.52,7.07,11.93,8.44,13.89-17.1,26.44-34.71,36.2-54.47,20.84,7.83,53,19.85,73.57,11.93S188.13,311.61,171.78,305.42Z" style="fill:#00b8b8"/><path d="M45.81,429.76s-5.47,5.65-9.19,4.68C31.06,433,9.94,426.76,2.85,418.07s.53-11.19,6.8-9.58c17.64,4.51,23.7,7,29.87,8.8C45.3,419,48.07,426.18,45.81,429.76Z" style="fill:#2b2a2a"/><line x1="40.9" y1="422.95" x2="67.08" y2="408.61" style="fill:none;stroke:#ffbfad;stroke-linecap:round;stroke-linejoin:round;stroke-width:12.0827766628764px"/><path d="M224.45,319.29s-8.8,42.27-48.36,50.54c-38,7.95-38.82,11.2-38.82,11.2L55,423.21s-10.5-11-7.8-12.6c8.45-4.88,73.57-53.69,83.11-56,6.42-1.55,54.41-34.6,54.41-34.6S214.57,313.59,224.45,319.29Z" style="fill:#00b8b8"/><path d="M206.85,157.66s3.94,10.55,19,15.87C238.78,178.08,237,188,237,198c0,10.38,7.78,17.5,15.85,22.72s13.82,17.46,6.32,31.21-43,37.94-67-7.17c-14.4-27.07-27.78-19.56-23.16-33.46s2-30.95,6.4-39.7S201,151.43,206.85,157.66Z" style="fill:#2b2a2a"/><path d="M168.28,163.29c-7.89,12.64-7.22,29.3,2.6,35.44s25.1-.59,33-13.22,5.41-26.4-4.42-32.53S176.17,150.66,168.28,163.29Z" style="fill:#ffbfad"/><path d="M202.87,183.25c-3.31,1.52-5.41,5-4.24,7.58s5.2,3.25,8.5,1.74,4.66-4.65,3.48-7.22S206.18,181.74,202.87,183.25Z" style="fill:#ffbfad"/><line x1="189.63" y1="189.08" x2="189.63" y2="207.73" style="fill:none;stroke:#ffbfad;stroke-linecap:round;stroke-linejoin:round;stroke-width:15.4091167470597px"/><path d="M172.5,140.79c8.48-.44,12,1.51,15.73,2.64,8.92-2.13,19.1,1.34,24.56,8.78,8.16,11.12,4.56,28.87-8.82,33.87-2.9,1.08-6.74.32-8.09-2.47-1.08-2.22-.27-4.89.83-7.11s2.51-4.4,2.65-6.87a8.38,8.38,0,0,0,0-1.23,9.27,9.27,0,0,1-6.06-2.49c-5.39-5.08-2.12-5.15-11.69-6.73S159.52,141.46,172.5,140.79Z" style="fill:#2b2a2a"/><path d="M159.6,305.4a14.73,14.73,0,0,0,6.47,12.49c9.76,6.58,26,15.16,35,16.41,21.65,3.05,23.44-11.11,23.44-11.11s0-6.67-.05-16.48c0-3.77-.07-8-.1-12.52-.24-23.2-.8-53.53-2.13-63.94-.89-6.92-11.33-14.82-19.18-19.84-4.86-3.1-8.7-5.1-8.7-5.1-7.28-2.42-13-2.95-17.38-2.35a17.89,17.89,0,0,0-9.45,4.11,18.53,18.53,0,0,0-5.05,7.61,19.81,19.81,0,0,0-1.18,5Z" style="fill:#721561"/><path d="M179.44,229.81c6.67,4,16.62-3.67,21.45-11.53a12.47,12.47,0,0,0,2.11-7.87c-4.86-3.1-8.7-5.1-8.7-5.1-7.28-2.42-13-2.95-17.38-2.35C173.47,210.55,173.64,226.33,179.44,229.81Z" style="fill:#ffbfad"/><path d="M162.42,214.68c1,11.87,3.48,36,9.33,51.77,7.37,19.88,38,34.34,52.66,40.26,0-3.77-.07-8-.1-12.52A114.7,114.7,0,0,1,192,275.51c-17.4-14.19-23.13-55-24.56-68.44A18.53,18.53,0,0,0,162.42,214.68Z" style="fill:#301f5e"/><path d="M168.88,281.11c6,9.36,22.64,21.75,29.31,20.23s12.32-24,4.93-28l-.07-.05c-7.52-3.87-18.32-16.43-18.32-16.43-4.23-4.62-7.78-5.85-13,0-3.07,3.48-5.63,8-6,13.14A18,18,0,0,0,168.88,281.11Z" style="fill:#301f5e"/><path d="M165.78,270c6.24,9.33,22.5,21.34,29.05,19.87,3.91-.9,7.51-9.11,8.29-16.53l-.07-.05c-7.52-3.87-18.32-16.43-18.32-16.43-4.23-4.62-7.78-5.85-13,0C168.68,260.36,166.12,264.92,165.78,270Z" style="fill:#422b81"/><path d="M213.47,229.82s29.43,55.28,25.71,120.37" style="fill:none;stroke:#721561;stroke-linecap:round;stroke-linejoin:round;stroke-width:16.915887328027px"/><path d="M226.49,368.44h0a6.24,6.24,0,0,0,8.08.28l9.43-7.49a8.15,8.15,0,0,0,.44-12.4h0a8.16,8.16,0,0,0-12.32,1.53l-6.62,10.05A6.24,6.24,0,0,0,226.49,368.44Z" style="fill:#ffbfad"/></g></g></svg>