<svg xmlns="http://www.w3.org/2000/svg" viewBox="0 0 375.96 342.12"><title>EstadisticasRecurso 4</title><g id="Capa_2" data-name="Capa 2"><g id="Capa_1-2" data-name="Capa 1"><ellipse cx="115.59" cy="262.59" rx="115.59" ry="66.74" style="fill:#740a51"/><path d="M93.38,253.46l-.12,39.94c0,3.73-2.46,7.46-7.36,10.3-9.85,5.73-25.86,5.72-35.78,0-5-2.88-7.49-6.66-7.48-10.43l.12-39.94c0,3.77,2.48,7.55,7.47,10.43,9.92,5.72,25.93,5.73,35.79,0C90.91,260.91,93.36,257.19,93.38,253.46Z" style="fill:#00b9b9"/><path d="M85.9,243c9.92,5.72,10,15,.12,20.74s-25.87,5.71-35.79,0-10-15-.12-20.72S76,237.29,85.9,243Z" style="fill:#00e0dc"/><path d="M81.84,245c7.69,4.44,7.73,11.64.09,16.08s-20.06,4.43-27.75,0-7.72-11.63-.09-16.06S74.15,240.52,81.84,245Z" style="fill:#008985"/><path d="M88.64,270.84s10.62-10.65,15.13-1.8-7.92,18-15.13,18.56" style="fill:none;stroke:#00b9b9;stroke-miterlimit:10;stroke-width:5.76489311820151px"/><path d="M152.51,82.65s3.32,83.95,85,38.84" style="fill:none;stroke:#740a51;stroke-linecap:round;stroke-linejoin:round;stroke-width:20.1771259137053px"/><path d="M269.07,114.46h0a7.44,7.44,0,0,1-5.42,8l-13.85,3.8a9.74,9.74,0,0,1-12.25-8.32h0a9.72,9.72,0,0,1,10.15-10.77l14.35.7A7.44,7.44,0,0,1,269.07,114.46Z" style="fill:#ffc0ae"/><path d="M323.25,292.43s7.07,6.17,11.39,4.64c6.47-2.28,30.95-11.79,38.51-22.83s-1.75-13.24-9-10.7c-20.51,7.12-27.47,10.72-34.62,13.44C322.79,279.53,320.22,288.4,323.25,292.43Z" style="fill:#272526"/><line x1="328.41" y1="283.84" x2="295.86" y2="269.4" style="fill:none;stroke:#ffc0ae;stroke-linecap:round;stroke-linejoin:round;stroke-width:14.4122327955038px"/><path d="M99.91,178.93s14.67,49.36,62.51,55.25c46,5.65,47.27,9.45,47.27,9.45l102,41.93s11.39-14.17,8-15.76c-10.53-4.95-92.8-56.47-104.37-58.27-7.78-1.21-68.12-35.71-68.12-35.71S111.08,171.16,99.91,178.93Z" style="fill:#fa0"/><path d="M298.31,336.4s6.53,6.74,11,5.58c6.64-1.73,31.83-9.16,40.29-19.53s-.64-13.34-8.12-11.42c-21,5.38-28.27,8.39-35.62,10.5C298.93,323.51,295.62,332.13,298.31,336.4Z" style="fill:#272526"/><line x1="304.17" y1="328.28" x2="272.94" y2="311.17" style="fill:none;stroke:#ffc0ae;stroke-linecap:round;stroke-linejoin:round;stroke-width:14.4122327955038px"/><path d="M85.23,204.63s10.5,50.42,57.68,60.28c45.36,9.48,46.31,13.37,46.31,13.37l98.1,50.31s12.53-13.17,9.32-15c-10.09-5.82-87.77-64-99.14-66.8-7.65-1.85-64.9-41.27-64.9-41.27S97,197.83,85.23,204.63Z" style="fill:#fa0"/><path d="M270.33,224.73,188,272.57a7.29,7.29,0,0,1-6.59,0L123.9,239.36a2.34,2.34,0,0,1-1.38-1.93V241a2.34,2.34,0,0,0,1.38,1.92l57.52,33.21a7.23,7.23,0,0,0,6.59,0l82.32-47.84a2.3,2.3,0,0,0,1.35-1.89v-3.53A2.3,2.3,0,0,1,270.33,224.73Z" style="fill:#d1deff"/><path d="M270.31,220.91c1.82,1.06,1.83,2.77,0,3.82L188,272.57a7.29,7.29,0,0,1-6.59,0L123.9,239.36c-1.83-1.06-1.84-2.77,0-3.82l82.31-47.84a7.29,7.29,0,0,1,6.59,0Z" style="fill:#adc4ff"/><path d="M258.06,219.52c1.4.8,1.41,2.11,0,2.92l-75.42,43.83a5.6,5.6,0,0,1-5.06,0l-36.69-21.19c-1.4-.8-1.39-2.12,0-2.93l75.42-43.82a5.53,5.53,0,0,1,5,0Z" style="fill:#8293bf"/><path d="M267.48,149.66a2.33,2.33,0,0,0-2.35.23l-82.87,47.85a7.24,7.24,0,0,0-3.3,5.71l.19,66.1a2.32,2.32,0,0,0,1,2.12l3.06,1.77a2.29,2.29,0,0,1-1-2.12l-.19-66.1a7.28,7.28,0,0,1,3.3-5.71l82.87-47.84a2.33,2.33,0,0,1,2.35-.23Z" style="fill:#d1deff"/><path d="M268.18,151.67c1.83-1.06,3.31-.21,3.32,1.89l.18,66.1a7.27,7.27,0,0,1-3.29,5.71l-82.87,47.84c-1.83,1.06-3.31.21-3.32-1.89l-.19-66.1a7.28,7.28,0,0,1,3.3-5.71Z" style="fill:#adc4ff"/><polygon points="229.63 191.86 224.75 194.69 224.75 184.58 229.63 181.75 229.63 191.86" style="fill:#8293bf"/><path d="M167.54,92.48c-1.85,16.86-7.24,71.45-5.51,96.67.41,5.89-4.18,11.79-7.92,14.79-8.85,7.09-34.05,16.69-40.5,17.87C98,224.67,87.12,218.9,84.84,208.87s1-11.79,0-21.07c-.38-3.57.14-10.32.2-15.07.38-24.39,2.68-55.55,8.36-77.6,2.51-9.77,17.24-18.59,27.47-23.61,5.1-2.53,9.11-4.09,9.94-4.41a35.67,35.67,0,0,1,21-.63c.29.08.61.17.92.29C158.63,68.81,169.3,76.48,167.54,92.48Z" style="fill:#850d63"/><path d="M152.52,89.08c-5,9.34-1.5,33.49-9.54,37.5s-15-34.27-20.47-43.93a14.93,14.93,0,0,1-1.64-11.13c5.1-2.53,9.11-4.09,9.94-4.41a35.67,35.67,0,0,1,21-.63c.29.08.61.17.92.29C155.32,73.89,155.4,83.66,152.52,89.08Z" style="fill:#fff"/><path d="M183.88,44.16c-5.26,17-20.82,29.36-34,25.27s-19-23.11-13.78-40.08S155.69,3.89,168.89,8,189.13,27.19,183.88,44.16Z" style="fill:#ffc0ae"/><line x1="149.55" y1="50.69" x2="142.97" y2="71.94" style="fill:#ffbfad"/><path d="M208.46,15.44C189.93-2.82,184.65,13.63,175.76,7S152-4.63,140.45,7,130,26,133,27.69a7.86,7.86,0,0,0,5.81,2,35.08,35.08,0,0,1-1.3,5.43c-1.59,5.44,4.58,8.88,7.47,0,.28-.87.53-1.68.75-2.44a25.48,25.48,0,0,1,7.59-12.15c2.27-2,4.33-2.75,7.51-.31,6.24,4.81,7.45,6.27,13.21,4s1.68,10.22,10.09,14.17S227,33.7,208.46,15.44Z" style="fill:#272526"/><path d="M138.89,28.49c1.21,4.17-.29,8.79-3.53,9.73s-7-2.15-8.2-6.31.57-7.83,3.8-8.77S137.67,24.33,138.89,28.49Z" style="fill:#ffc0ae"/><path d="M103.82,94.83S40.84,166.7,120,218.91" style="fill:none;stroke:#740a51;stroke-linecap:round;stroke-linejoin:round;stroke-width:20.1771259137053px"/><path d="M147.82,227.81h0a7.44,7.44,0,0,1-7.83,5.63l-14.32-1.2a9.73,9.73,0,0,1-8.63-12h0a9.73,9.73,0,0,1,13.24-6.63l13.22,5.6A7.44,7.44,0,0,1,147.82,227.81Z" style="fill:#ffc0ae"/></g></g></svg>