<svg xmlns="http://www.w3.org/2000/svg" viewBox="0 0 238.33 342.12"><title>cotizarRecurso 6</title><g id="Capa_2" data-name="Capa 2"><g id="Capa_1-2" data-name="Capa 1"><ellipse cx="52.77" cy="313.72" rx="38.82" ry="22.41" style="fill:#740a51"/><path d="M120.76,0a1.58,1.58,0,0,0-1.51.53L108,11.25a5,5,0,0,0-1.26,4.3l10.72,43.7a1.57,1.57,0,0,0,1,1.25l2.34.7a1.57,1.57,0,0,1-1-1.25l-10.72-43.7a4.94,4.94,0,0,1,1.26-4.3L121.59,1.27A1.58,1.58,0,0,1,123.1.74Z" style="fill:#d1deff"/><path d="M121.59,1.27a1.37,1.37,0,0,1,2.49.72l10.72,43.7a4.94,4.94,0,0,1-1.26,4.3L122.33,60.67c-1,1-2.15.67-2.49-.72l-10.72-43.7a4.94,4.94,0,0,1,1.26-4.3Z" style="fill:#a4c5ff"/><polygon points="119.97 15.14 117.26 17.73 115.68 11.21 118.39 8.63 119.97 15.14" style="fill:#8293bf"/><path d="M74.34,71.59s37.27,58.6,58-7.29" style="fill:none;stroke:#ffc0ae;stroke-linecap:round;stroke-linejoin:round;stroke-width:13.3880087856421px"/><path d="M130.28,45h0a4.94,4.94,0,0,1,5.41,3.42l2.83,9.11a6.46,6.46,0,0,1-5.25,8.3h0a6.46,6.46,0,0,1-7.37-6.5l.15-9.52A5,5,0,0,1,130.28,45Z" style="fill:#ffc0ae"/><polygon points="159.42 342.12 109.1 312.87 109.02 282.65 159.34 311.89 159.42 342.12" style="fill:#a4c5ff"/><polygon points="159.34 311.89 109.02 282.65 135.32 267.47 185.64 296.71 159.34 311.89" style="fill:#cddfff"/><polygon points="185.64 296.71 135.32 267.47 135.23 237.24 185.55 266.49 185.64 296.71" style="fill:#a4c5ff"/><polygon points="185.55 266.49 135.23 237.24 161.54 222.06 211.85 251.3 185.55 266.49" style="fill:#cddfff"/><polygon points="211.85 251.3 161.54 222.06 161.45 191.84 211.77 221.08 211.85 251.3" style="fill:#a4c5ff"/><polygon points="211.77 221.08 161.45 191.84 187.75 176.65 238.07 205.89 211.77 221.08" style="fill:#cddfff"/><polygon points="238.07 205.89 238.16 236.12 238.24 266.34 238.33 296.56 212.03 311.75 185.72 326.93 159.42 342.12 159.34 311.89 185.64 296.71 185.55 266.49 211.85 251.3 211.77 221.08 238.07 205.89" style="fill:#95b4eb"/><path d="M142.24,223.23s-1,6.14,1.42,8c3.57,2.83,17.57,13.2,26.44,13.54s6.82-5.66,2.81-8.86c-11.25-9-15.73-11.63-19.79-14.68C149.32,218.4,143.43,220.1,142.24,223.23Z" style="fill:#272526"/><line x1="148.89" y1="223.08" x2="145.47" y2="199.71" style="fill:none;stroke:#ffbfad;stroke-linecap:round;stroke-linejoin:round;stroke-width:9.56286341831577px"/><path d="M61.39,144.91c23.84.69,47.06-21.23,70.8-8s14.92,52,22.34,74.58c-3.23,4.18-7.2,3.16-11.64,2.9-6.61-17.6-9-36.52-15.59-54.06-19.68,3.66-44.64,17.44-63.92,13.22S49.18,152.94,61.39,144.91Z" style="fill:#850d63"/><path d="M40.24,299.06s-2.13,5.85-.15,8.16c3,3.46,14.72,16.32,23.36,18.36s7.77-4.26,4.46-8.17c-9.33-11-13.22-14.42-16.62-18.19C48.11,295.68,42,296.22,40.24,299.06Z" style="fill:#272526"/><line x1="46.79" y1="300.19" x2="47.91" y2="276.59" style="fill:none;stroke:#ffbfad;stroke-linecap:round;stroke-linejoin:round;stroke-width:9.56286341831577px"/><path d="M56.36,128.12S28.75,149.61,37,181.73c7.88,30.89,5.79,32.63,5.79,32.63L41.6,290s11.82,3.83,12,1.29c.51-8,12.64-73.34,10.9-81.2-1.18-5.29,5.64-52.43,5.64-52.43S64.07,133.39,56.36,128.12Z" style="fill:#850d63"/><path d="M85.38,143.52a11.69,11.69,0,0,1-5.13,9.89c-7.73,5.2-20.58,12-27.66,13C35.46,168.81,34,157.6,34,157.6s0-5.28,0-13c0-3,.06-6.33.08-9.9.19-18.36.63-42.37,1.68-50.61.71-5.47,9-11.72,15.19-15.7,3.84-2.45,6.88-4,6.88-4,5.76-1.91,10.25-2.33,13.75-1.85a14.19,14.19,0,0,1,7.48,3.25,14.54,14.54,0,0,1,4,6,16.05,16.05,0,0,1,.94,4Z" style="fill:#00b9b9"/><path d="M69.67,83.7c-5.27,3.15-13.15-2.91-17-9.13A9.78,9.78,0,0,1,51,68.34c3.84-2.45,6.88-4,6.88-4,5.76-1.91,10.25-2.33,13.75-1.85C74.4,68.45,74.26,80.94,69.67,83.7Z" style="fill:#ffc0ae"/><path d="M76.44,59.1C68.66,64,56.59,58.62,50.33,48.64c-.19-.31-.38-.61-.53-.92-5.57-9.76-3.5-20.14,4-24.83a3.25,3.25,0,0,1,.37-.21A15,15,0,0,1,58.27,21c6.33-1.51,13.52,1.17,18.61,7.71A23.89,23.89,0,0,1,78.51,31C84.74,41,84.23,54.24,76.44,59.1Z" style="fill:#ffc0ae"/><line x1="61.6" y1="51.46" x2="61.6" y2="66.22" style="fill:none;stroke:#ffc0ae;stroke-linecap:round;stroke-linejoin:round;stroke-width:12.1954814659244px"/><path d="M62.67,20.66a24.08,24.08,0,0,0,1-8C63.13-2,34.74-1.61,34,17.13A9.77,9.77,0,0,0,36.07,25a13,13,0,0,0-1.45,5.53S32.71,39,44.23,40.94a20.57,20.57,0,0,0,3,.29,24.54,24.54,0,0,0,2.58,6.49c4.07-1.44,7.9-6.64,9.41-13.41A24.69,24.69,0,0,0,59.63,26a32.74,32.74,0,0,0,6.66,2.21,31.65,31.65,0,0,0,10.59.58C73,23.69,67.75,20.94,62.67,20.66Zm-4.4.38Z" style="fill:#272526"/><path d="M51.13,46.85c2.61,1.2,4.28,4,3.35,6s-4.11,2.58-6.73,1.38S44.07,50.54,45,48.51,48.51,45.65,51.13,46.85Z" style="fill:#ffc0ae"/><path d="M42.47,85S27.8,91,10.34,113.28c-9.66,12.33.47,28.35,23.29,38.7" style="fill:none;stroke:#ffc0ae;stroke-linecap:round;stroke-linejoin:round;stroke-width:13.3880087856421px"/><path d="M40.81,172.93h0a4.93,4.93,0,0,1-5.28-3.61L33,160.13A6.47,6.47,0,0,1,38.56,152h0a6.46,6.46,0,0,1,7.14,6.75l-.49,9.52A4.93,4.93,0,0,1,40.81,172.93Z" style="fill:#ffc0ae"/></g></g></svg>