<svg xmlns="http://www.w3.org/2000/svg" viewBox="0 0 250 250"><title>Recurso 3</title><g id="Capa_2" data-name="Capa 2"><g id="Capa_1-2" data-name="Capa 1"><circle cx="125" cy="125" r="125" style="fill:#b33d90"/><path d="M130.91,59.31l-75,19.57,32.74,34.31-1.16,62.1-4.25,13.06,59.63,60.38s34.9-3.18,65.15-30.26c33.55-30,39.3-67.51,39.3-67.51L202.15,104,165.63,93.81Z" style="fill:#8e126d;fill-rule:evenodd"/><circle cx="124.58" cy="124.88" r="95" style="fill:none"/><path d="M55.89,59.31h75V78.88H103.42V188.35H83.22V78.88H55.89" style="fill:#fff"/><path d="M192.46,125.84l-1.19-2.06c-6-10.38-15-15.56-27.36-15.85-8.2-.17-15.36,2.75-21.94,8.95-6.86,6.4-10.19,13.7-10.19,22.34a29.64,29.64,0,0,0,9.46,22.16,30.13,30.13,0,0,0,22.4,9.13c12.56-.19,21.68-5,27.87-14.88l1.21-1.93h22.33l-4.14,8.77c-10,18.53-25.72,27.93-46.58,27.93h-.76a51.8,51.8,0,0,1-36.42-14.8,48.42,48.42,0,0,1-15.57-35.78c-.22-14.08,4.87-26.32,15.14-36.37a52.35,52.35,0,0,1,36.83-15.39,52.9,52.9,0,0,1,28.62,8c8.43,5.24,14.56,12,18.24,20l4.3,9.78" style="fill:#fff"/></g></g></svg>