<svg xmlns="http://www.w3.org/2000/svg" viewBox="0 0 268.32 323.98"><title>logo_verticalRecurso 2</title><g id="Capa_2" data-name="Capa 2"><g id="Capa_1-2" data-name="Capa 1"><path d="M11,307H7.83V278.67H.75v-2.93H18.09v2.93H11Z" style="fill:#fff"/><path d="M11.71,307.78H7.08V279.42H0V275H18.84v4.43H11.71Zm-3.13-1.5h1.63V277.92h7.13v-1.43H1.5v1.43H8.58Z" style="fill:#fff"/><path d="M44,300.89a11.91,11.91,0,0,1-11.31,6.67A12.41,12.41,0,0,1,24,304a11.54,11.54,0,0,1-3.71-8.51,11.38,11.38,0,0,1,3.59-8.62,12.52,12.52,0,0,1,8.83-3.71,12.34,12.34,0,0,1,6.83,1.92,10.84,10.84,0,0,1,4.32,4.72l.44,1h-3.5a8.89,8.89,0,0,0-8-4.59,8.84,8.84,0,0,0-6.43,2.6,8.58,8.58,0,0,0-3,6.55,9.24,9.24,0,0,0,9.32,9.16,9,9,0,0,0,8.09-4.36h3.5Z" style="fill:#fff"/><path d="M32.79,308.31h-.14a13.18,13.18,0,0,1-9.22-3.75,12.63,12.63,0,0,1-.13-18.21,13.44,13.44,0,0,1,16.59-1.89,11.52,11.52,0,0,1,4.6,5.05l.91,2.07H40.33l-.22-.37A8.13,8.13,0,0,0,32.76,287h-.15a8.14,8.14,0,0,0-5.75,2.41,7.9,7.9,0,0,0-2.73,6,8.48,8.48,0,0,0,8.56,8.41,8.29,8.29,0,0,0,7.47-4l.22-.35h5.1l-.85,1.8A12.65,12.65,0,0,1,32.79,308.31Zm.08-24.38h-.2a11.68,11.68,0,0,0-8.32,3.5A10.62,10.62,0,0,0,21,295.5a10.86,10.86,0,0,0,3.47,8,11.66,11.66,0,0,0,8.21,3.33,11,11,0,0,0,10.41-5.87H41.2a9.79,9.79,0,0,1-8.49,4.36,10,10,0,0,1-10.08-9.91,9.34,9.34,0,0,1,3.21-7.1,9.5,9.5,0,0,1,7-2.8,9.6,9.6,0,0,1,8.38,4.59H43.1a10,10,0,0,0-4-4.35A11.75,11.75,0,0,0,32.87,283.93Z" style="fill:#fff"/><path d="M66.11,304.1a11.22,11.22,0,0,1-8.63,3.46,11.36,11.36,0,0,1-8.22-3.66,11.81,11.81,0,0,1-3.34-8.43,12,12,0,0,1,3.63-8.71,11.11,11.11,0,0,1,8.62-3.5A11.45,11.45,0,0,1,66.39,287a12.14,12.14,0,0,1-.28,17.09Zm-8.59.41A8,8,0,0,0,64,301.86a9,9,0,0,0,2.65-6.67A9.24,9.24,0,0,0,64,288.92a8,8,0,0,0-6-2.6,8.39,8.39,0,0,0-6.31,2.6,8.74,8.74,0,0,0-2.64,6.31,9,9,0,0,0,2.4,6.43A8.25,8.25,0,0,0,57.52,304.51Z" style="fill:#fff"/><path d="M58,308.32h-.49a12.09,12.09,0,0,1-8.74-3.9,13,13,0,0,1,.3-18.18,11.87,11.87,0,0,1,9.18-3.72,12.23,12.23,0,0,1,8.74,4,12.89,12.89,0,0,1-.3,18.13h0A11.93,11.93,0,0,1,58,308.32ZM57.71,284a10.38,10.38,0,0,0-7.63,3.28,11.2,11.2,0,0,0-3.41,8.18,11,11,0,0,0,3.14,7.91,10.63,10.63,0,0,0,7.69,3.43,10.48,10.48,0,0,0,8.08-3.24h0a11.4,11.4,0,0,0,.27-16.05,10.77,10.77,0,0,0-7.7-3.51ZM58,305.27h-.5a9,9,0,0,1-6.59-3.1,9.76,9.76,0,0,1-2.59-6.94,9.45,9.45,0,0,1,2.86-6.83A9.14,9.14,0,0,1,58,285.57a8.79,8.79,0,0,1,6.56,2.83,10.08,10.08,0,0,1,2.85,6.76,9.79,9.79,0,0,1-2.85,7.22A8.72,8.72,0,0,1,58,305.27Zm-.13-18.2a7.66,7.66,0,0,0-5.63,2.38,8,8,0,0,0-2.42,5.79,8.18,8.18,0,0,0,2.2,5.91,7.54,7.54,0,0,0,5.54,2.61h0a7.3,7.3,0,0,0,5.93-2.41,8.33,8.33,0,0,0,2.44-6.15,8.44,8.44,0,0,0-2.44-5.76A7.4,7.4,0,0,0,57.86,287.07Z" style="fill:#fff"/><path d="M106.28,307h-3.22V292.79a7.17,7.17,0,0,0-1.54-4.6,5,5,0,0,0-4.07-1.91A6.58,6.58,0,0,0,93,287.94a5.37,5.37,0,0,0-1.83,4.16V307H87.92V292.1a5.27,5.27,0,0,0-1.87-4.16,6.38,6.38,0,0,0-4.39-1.66,4.94,4.94,0,0,0-4,1.91,7,7,0,0,0-1.51,4.6V307H72.91V293.15a9.75,9.75,0,0,1,2.48-7,9,9,0,0,1,6.1-2.8c3.38-.29,6.07,1.18,8.06,4.31,2-3.13,4.68-4.6,8.06-4.31a9.15,9.15,0,0,1,6.14,2.8,9.78,9.78,0,0,1,2.53,7Z" style="fill:#fff"/><path d="M107,307.78h-4.72v-15a6.37,6.37,0,0,0-1.38-4.13A4.26,4.26,0,0,0,97.45,287a5.78,5.78,0,0,0-4,1.48,4.61,4.61,0,0,0-1.57,3.59v15.68H87.17V292.1a4.5,4.5,0,0,0-1.61-3.59,5.59,5.59,0,0,0-3.9-1.48,4.18,4.18,0,0,0-3.45,1.63,6.33,6.33,0,0,0-1.34,4.13v15H72.16V293.15a10.45,10.45,0,0,1,2.69-7.51,9.71,9.71,0,0,1,6.58-3,8.77,8.77,0,0,1,8.12,3.74,8.76,8.76,0,0,1,8.12-3.74,10,10,0,0,1,6.63,3,10.47,10.47,0,0,1,2.73,7.51Zm-3.22-1.5h1.72V293.15a9,9,0,0,0-2.32-6.48,8.41,8.41,0,0,0-5.66-2.58c-3.08-.25-5.5,1-7.37,4l-.63,1-.63-1c-1.87-2.93-4.27-4.23-7.36-4a8.18,8.18,0,0,0-5.62,2.57,9,9,0,0,0-2.28,6.49v13.13h1.71V292.79A7.76,7.76,0,0,1,77,287.72a5.67,5.67,0,0,1,4.62-2.19,7.08,7.08,0,0,1,4.89,1.86,6,6,0,0,1,2.12,4.71v14.18h1.76V292.1a6.08,6.08,0,0,1,2.08-4.71,7.31,7.31,0,0,1,4.94-1.86,5.77,5.77,0,0,1,4.65,2.19,7.83,7.83,0,0,1,1.71,5.07Z" style="fill:#fff"/><path d="M112.67,315.17h-3V295.43a11.84,11.84,0,0,1,3.62-8.63,11.71,11.71,0,0,1,16.85.17,11.83,11.83,0,0,1,3.37,8.42,12.08,12.08,0,0,1-3.62,8.75,11.22,11.22,0,0,1-8.63,3.46,11.65,11.65,0,0,1-8.58-4.11Zm9.24-28.81a8.14,8.14,0,0,0-6.56,2.64,9.17,9.17,0,0,0-2.6,6.68,9,9,0,0,0,2.6,6.26,8.12,8.12,0,0,0,6.11,2.61,8.53,8.53,0,0,0,6.27-2.61,8.75,8.75,0,0,0,2.68-6.3,8.92,8.92,0,0,0-2.44-6.39A8.25,8.25,0,0,0,121.91,286.36Z" style="fill:#e78f25"/><path d="M113.42,315.92h-4.51V295.43a12.55,12.55,0,0,1,3.84-9.16,12.45,12.45,0,0,1,17.92.18,12.61,12.61,0,0,1,3.58,8.94,12.85,12.85,0,0,1-3.83,9.28,12,12,0,0,1-9.19,3.68,12.24,12.24,0,0,1-7.81-3.06Zm-3-1.5h1.51v-12.9l1.31,1.47a10.82,10.82,0,0,0,8,3.86,10.48,10.48,0,0,0,8.07-3.24,11.35,11.35,0,0,0,3.4-8.22,11.13,11.13,0,0,0-3.17-7.91,11,11,0,0,0-15.77-.15,11.11,11.11,0,0,0-3.4,8.1Zm11-9.12a8.88,8.88,0,0,1-6.65-2.84,10.08,10.08,0,0,1,0-14,8.81,8.81,0,0,1,7.13-2.88,9.08,9.08,0,0,1,6.58,3.13,9.67,9.67,0,0,1,2.64,6.91,9.57,9.57,0,0,1-2.9,6.82A9.31,9.31,0,0,1,121.46,305.3Zm0-18.2a7.34,7.34,0,0,0-5.54,2.42,8.4,8.4,0,0,0-2.4,6.14,8.24,8.24,0,0,0,2.4,5.77,7.34,7.34,0,0,0,5.56,2.37,7.76,7.76,0,0,0,5.74-2.39,8,8,0,0,0,2.46-5.79,8.18,8.18,0,0,0-2.24-5.87,7.56,7.56,0,0,0-5.54-2.64h-.44Z" style="fill:#e78f25"/><path d="M139.53,307h-3.26v-23.2h2.89v3.3a6.83,6.83,0,0,1,2.89-2.89,7.15,7.15,0,0,1,3.58-.85v3.09a5.68,5.68,0,0,0-3.5,1.18,8.62,8.62,0,0,0-1.83,1.91,7,7,0,0,0-.77,3.58Z" style="fill:#fff"/><path d="M140.28,307.78h-4.76v-24.7h4.39v1.79a8.56,8.56,0,0,1,1.78-1.29,7.89,7.89,0,0,1,4-.94l.72,0v4.55l-.73,0a4.83,4.83,0,0,0-3,1,7.35,7.35,0,0,0-1.67,1.73,6.28,6.28,0,0,0-.66,3.18Zm-3.26-1.5h1.76V293.15a7.7,7.7,0,0,1,.88-4,9,9,0,0,1,2-2.11,6.08,6.08,0,0,1,3.22-1.3v-1.63a6.76,6.76,0,0,0-2.48.76,6,6,0,0,0-2.57,2.56l-1.42,2.75v-5.64H137Z" style="fill:#fff"/><path d="M171.84,307h-3v-3.62a11.32,11.32,0,0,1-9.28,4.15,11.47,11.47,0,0,1-8.18-3.7,12.23,12.23,0,0,1,.25-17.14,11.1,11.1,0,0,1,8.66-3.46,11.67,11.67,0,0,1,8.31,3.75,11.06,11.06,0,0,1,3.25,8.38V307Zm-20.71-11.84a9,9,0,0,0,2.4,6.43,8.51,8.51,0,0,0,6.06,2.89,8.11,8.11,0,0,0,6.51-2.65,9.32,9.32,0,0,0,0-13,8,8,0,0,0-6.06-2.6,8.54,8.54,0,0,0-6.31,2.6A8.74,8.74,0,0,0,151.13,295.19Z" style="fill:#fff"/><path d="M160,308.32h-.46a12.26,12.26,0,0,1-8.7-3.94,13,13,0,0,1,.26-18.18,11.86,11.86,0,0,1,9.22-3.68,12.45,12.45,0,0,1,8.82,4,11.82,11.82,0,0,1,3.46,8.93v12.36h-4.51v-2.55A11.81,11.81,0,0,1,160,308.32Zm-.2-24.31a10.25,10.25,0,0,0-7.64,3.24,11.47,11.47,0,0,0-.23,16.09,10.66,10.66,0,0,0,7.66,3.47,10.4,10.4,0,0,0,8.68-3.9l1.32-1.5v4.87h1.51V295.39a10.36,10.36,0,0,0-3-7.86,10.86,10.86,0,0,0-7.79-3.52Zm.26,21.26h-.49a9.31,9.31,0,0,1-6.59-3.14,9.74,9.74,0,0,1-2.59-6.94,9.44,9.44,0,0,1,2.86-6.83,9.24,9.24,0,0,1,6.84-2.82,8.83,8.83,0,0,1,6.61,2.83,9.78,9.78,0,0,1,2.81,6.77,10,10,0,0,1-2.85,7.25A8.87,8.87,0,0,1,160.05,305.27Zm0-18.24a7.83,7.83,0,0,0-5.78,2.38,8,8,0,0,0-2.42,5.79h0a8.18,8.18,0,0,0,2.2,5.91,7.75,7.75,0,0,0,5.55,2.65,7.34,7.34,0,0,0,5.93-2.42,8.33,8.33,0,0,0,2.44-6.18,8.2,8.2,0,0,0-2.4-5.76A7.26,7.26,0,0,0,160.08,287Z" style="fill:#fff"/><path d="M178.19,307.44H175.1V302h3.09Z" style="fill:#fff"/><path d="M178.94,308.19h-4.59v-6.91h4.59Zm-3.09-1.5h1.59v-3.91h-1.59Z" style="fill:#fff"/><path d="M205.25,300.89a11.9,11.9,0,0,1-11.31,6.67,12.41,12.41,0,0,1-8.71-3.54,11.9,11.9,0,0,1-.12-17.13,12.68,12.68,0,0,1,15.67-1.79,10.81,10.81,0,0,1,4.31,4.72l.45,1H202a9.24,9.24,0,0,0-14.41-2,8.61,8.61,0,0,0-3,6.55,9.25,9.25,0,0,0,9.32,9.16,9.06,9.06,0,0,0,8.1-4.36h3.5Z" style="fill:#fff"/><path d="M194.08,308.31h-.14a13.18,13.18,0,0,1-9.22-3.75,12.65,12.65,0,0,1-.14-18.21,13.44,13.44,0,0,1,16.59-1.89,11.48,11.48,0,0,1,4.61,5.05l.91,2.07h-5.08l-.22-.37a8.11,8.11,0,0,0-7.34-4.22h-.15a8.13,8.13,0,0,0-5.75,2.41,7.88,7.88,0,0,0-2.74,6A8.5,8.5,0,0,0,194,303.8a8.31,8.31,0,0,0,7.48-4l.22-.35h5.09l-.84,1.8A12.65,12.65,0,0,1,194.08,308.31Zm.07-24.38H194a11.68,11.68,0,0,0-8.32,3.5,10.62,10.62,0,0,0-3.35,8.07,10.86,10.86,0,0,0,3.47,8,11.63,11.63,0,0,0,8.2,3.33h.14a11,11,0,0,0,10.27-5.87h-1.87a9.81,9.81,0,0,1-8.5,4.36h-.18a9.57,9.57,0,0,1-6.9-2.86,9.69,9.69,0,0,1-3-7.05,9.31,9.31,0,0,1,3.22-7.1,10,10,0,0,1,15.33,1.79h1.93a10.1,10.1,0,0,0-4-4.35A11.79,11.79,0,0,0,194.15,283.93Z" style="fill:#fff"/><path d="M227.39,304.1a11.21,11.21,0,0,1-8.62,3.46,11.34,11.34,0,0,1-8.22-3.66,11.81,11.81,0,0,1-3.34-8.43,11.94,11.94,0,0,1,3.62-8.71,11.12,11.12,0,0,1,8.63-3.5,11.49,11.49,0,0,1,8.22,3.75,12.13,12.13,0,0,1-.29,17.09Zm-8.58.41a8,8,0,0,0,6.51-2.65,9,9,0,0,0,2.64-6.67,9.23,9.23,0,0,0-2.64-6.27,8,8,0,0,0-6-2.6,8.38,8.38,0,0,0-6.31,2.6,8.75,8.75,0,0,0-2.65,6.31,9,9,0,0,0,2.4,6.43A8.27,8.27,0,0,0,218.81,304.51Z" style="fill:#0b9a96"/><path d="M219.24,308.32h-.5a12.11,12.11,0,0,1-8.74-3.9,13,13,0,0,1,.3-18.18,11.89,11.89,0,0,1,9.19-3.72,12.23,12.23,0,0,1,8.74,4,12.87,12.87,0,0,1-.31,18.13h0A11.9,11.9,0,0,1,219.24,308.32ZM219,284a10.38,10.38,0,0,0-7.63,3.28,11.16,11.16,0,0,0-3.41,8.18,11,11,0,0,0,3.13,7.91,10.67,10.67,0,0,0,7.7,3.43,10.48,10.48,0,0,0,8.07-3.24h0a11,11,0,0,0,3.45-8.14,11.18,11.18,0,0,0-3.17-7.91,10.8,10.8,0,0,0-7.71-3.51Zm.27,21.26h-.49a9,9,0,0,1-6.59-3.1,9.77,9.77,0,0,1-2.6-6.94,9.46,9.46,0,0,1,2.87-6.83,9.15,9.15,0,0,1,6.68-2.83h.17a8.75,8.75,0,0,1,6.55,2.83,10,10,0,0,1,2.85,6.76,9.71,9.71,0,0,1-2.85,7.22A8.7,8.7,0,0,1,219.27,305.27Zm-.12-18.2a7.63,7.63,0,0,0-5.63,2.38,8,8,0,0,0-2.43,5.79,8.19,8.19,0,0,0,2.21,5.91,7.53,7.53,0,0,0,5.53,2.61h0a7.3,7.3,0,0,0,5.93-2.41,8.29,8.29,0,0,0,2.44-6.15,8.43,8.43,0,0,0-2.43-5.76A7.39,7.39,0,0,0,219.15,287.07Z" style="fill:#0b9a96"/><path d="M267.56,307h-3.21V292.79a7.12,7.12,0,0,0-1.55-4.6,5,5,0,0,0-4.07-1.91,6.55,6.55,0,0,0-4.43,1.66,5.38,5.38,0,0,0-1.84,4.16V307h-3.25V292.1a5.27,5.27,0,0,0-1.87-4.16,6.4,6.4,0,0,0-4.4-1.66,4.94,4.94,0,0,0-4,1.91,7.07,7.07,0,0,0-1.5,4.6V307h-3.22V293.15a9.79,9.79,0,0,1,2.48-7,9,9,0,0,1,6.11-2.8c3.38-.29,6.06,1.18,8.06,4.31,2-3.13,4.68-4.6,8-4.31a9.17,9.17,0,0,1,6.15,2.8,9.77,9.77,0,0,1,2.52,7Z" style="fill:#fff"/><path d="M268.31,307.78H263.6v-15a6.43,6.43,0,0,0-1.38-4.13,4.3,4.3,0,0,0-3.49-1.63,5.74,5.74,0,0,0-3.94,1.48,4.58,4.58,0,0,0-1.58,3.59v15.68h-4.75V292.1a4.51,4.51,0,0,0-1.62-3.59,5.57,5.57,0,0,0-3.9-1.48,4.16,4.16,0,0,0-3.44,1.63,6.33,6.33,0,0,0-1.34,4.13v15h-4.72V293.15a10.5,10.5,0,0,1,2.69-7.51,9.73,9.73,0,0,1,6.59-3,8.77,8.77,0,0,1,8.12,3.74A8.76,8.76,0,0,1,259,282.6a10,10,0,0,1,6.62,3,10.47,10.47,0,0,1,2.73,7.51Zm-3.21-1.5h1.71V293.15a9.06,9.06,0,0,0-2.31-6.48,8.43,8.43,0,0,0-5.67-2.58c-3.07-.25-5.49,1-7.36,4l-.63,1-.64-1c-1.86-2.93-4.26-4.23-7.36-4a8.2,8.2,0,0,0-5.62,2.57,9.07,9.07,0,0,0-2.28,6.49v13.13h1.72V292.79a7.71,7.71,0,0,1,1.67-5.07,5.64,5.64,0,0,1,4.61-2.19,7.08,7.08,0,0,1,4.9,1.86A6,6,0,0,1,250,292.1v14.18h1.75V292.1a6.08,6.08,0,0,1,2.08-4.71,7.31,7.31,0,0,1,4.94-1.86,5.75,5.75,0,0,1,4.65,2.19,7.84,7.84,0,0,1,1.72,5.07Z" style="fill:#fff"/><path d="M138.08,321.63c-1.55,0-2.32-.65-2.32-2V312.9h.86v2.22h1.46v.8h-1.46v3.59a1.27,1.27,0,0,0,1.46,1.42Z" style="fill:#fff"/><path d="M138.33,321.88h-.25c-2.13,0-2.57-1.21-2.57-2.22v-7h1.36v2.22h1.46v1.3h-1.46v3.34c0,.81.37,1.17,1.21,1.17h.25ZM136,313.15v6.51c0,1.1.58,1.66,1.82,1.72v-.21a1.47,1.47,0,0,1-1.46-1.66v-3.84h1.46v-.3h-1.46v-2.22Z" style="fill:#fff"/><path d="M144.46,318.76a2.84,2.84,0,0,1-.81,2.07,2.65,2.65,0,0,1-2,.83,2.71,2.71,0,0,1-2-.83,2.86,2.86,0,0,1-.79-2.07v-3.63h.86v3.73a2,2,0,0,0,1.95,2,1.87,1.87,0,0,0,1.36-.57,1.91,1.91,0,0,0,.6-1.39v-3.73h.86Z" style="fill:#0b9a96"/><path d="M141.64,321.91a3,3,0,0,1-2.2-.91,3.12,3.12,0,0,1-.86-2.24v-3.88h1.36v4a1.62,1.62,0,0,0,.5,1.21,1.72,1.72,0,0,0,2.91-1.21v-4h1.36v3.88a3.08,3.08,0,0,1-.88,2.24A2.91,2.91,0,0,1,141.64,321.91Zm-2.56-6.53v3.38a2.64,2.64,0,0,0,.72,1.9,2.47,2.47,0,0,0,1.84.75,2.41,2.41,0,0,0,1.83-.75,2.62,2.62,0,0,0,.74-1.9v-3.38h-.36v3.48a2.18,2.18,0,0,1-.67,1.57,2.14,2.14,0,0,1-1.54.64,2.2,2.2,0,0,1-2.2-2.21v-3.48Z" style="fill:#0b9a96"/><path d="M160.14,321.5h-.88v-3.91a2,2,0,0,0-.43-1.26,1.34,1.34,0,0,0-1.11-.53,1.81,1.81,0,0,0-1.22.46,1.48,1.48,0,0,0-.5,1.14v4.1h-.9v-4.1a1.42,1.42,0,0,0-.51-1.14,1.77,1.77,0,0,0-1.21-.46,1.35,1.35,0,0,0-1.1.53,1.93,1.93,0,0,0-.41,1.26v3.91H151v-3.81a2.71,2.71,0,0,1,.68-1.92,2.5,2.5,0,0,1,1.68-.77,2.26,2.26,0,0,1,2.21,1.18,2.26,2.26,0,0,1,2.21-1.18,2.52,2.52,0,0,1,1.69.77,2.68,2.68,0,0,1,.69,1.92Z" style="fill:#fff"/><path d="M160.39,321.75H159v-4.16a1.72,1.72,0,0,0-.37-1.1,1.12,1.12,0,0,0-.92-.44,1.56,1.56,0,0,0-1.06.4,1.2,1.2,0,0,0-.41.95v4.35h-1.4V317.4a1.21,1.21,0,0,0-.42-.95,1.5,1.5,0,0,0-1.05-.4,1.12,1.12,0,0,0-.91.44,1.67,1.67,0,0,0-.35,1.1v4.16h-1.39v-4.06a2.94,2.94,0,0,1,.75-2.09,2.72,2.72,0,0,1,1.84-.85,2.42,2.42,0,0,1,2.23,1,2.46,2.46,0,0,1,2.23-1,2.79,2.79,0,0,1,1.85.85,2.89,2.89,0,0,1,.76,2.09Zm-.88-.5h.38v-3.56a2.48,2.48,0,0,0-.62-1.75,2.3,2.3,0,0,0-1.53-.69,2,2,0,0,0-2,1.07l-.21.33-.21-.33a2,2,0,0,0-2-1.07,2.21,2.21,0,0,0-1.51.69,2.44,2.44,0,0,0-.62,1.75v3.56h.39v-3.66a2.2,2.2,0,0,1,.46-1.42,1.61,1.61,0,0,1,1.3-.62,2,2,0,0,1,1.38.53,1.69,1.69,0,0,1,.59,1.32v3.85h.4V317.4a1.69,1.69,0,0,1,.58-1.32,2.06,2.06,0,0,1,1.39-.53,1.65,1.65,0,0,1,1.31.62,2.22,2.22,0,0,1,.48,1.42Z" style="fill:#fff"/><path d="M167.48,319.41a3.19,3.19,0,0,1-1.2,1.63,3.24,3.24,0,0,1-1.89.62,3.16,3.16,0,0,1-2.31-1,3.22,3.22,0,0,1-1-2.34,3.19,3.19,0,0,1,1-2.45,3.11,3.11,0,0,1,2.46-1,3.37,3.37,0,0,1,2.22,1.05,3.07,3.07,0,0,1,.9,2.15v.46h-5.72a2.36,2.36,0,0,0,.82,1.58,2.42,2.42,0,0,0,1.68.62,2.26,2.26,0,0,0,2.16-1.4Zm-.68-1.58a2.43,2.43,0,0,0-2.41-2,2.38,2.38,0,0,0-1.61.54,2.41,2.41,0,0,0-.86,1.47Z" style="fill:#fff"/><path d="M164.35,321.91a3.6,3.6,0,0,1-2.47-6.17,3.33,3.33,0,0,1,2.66-1,3.56,3.56,0,0,1,2.38,1.12,3.32,3.32,0,0,1,1,2.32v.71h-5.68a2.14,2.14,0,0,0,.69,1.14,2.18,2.18,0,0,0,1.52.56,2,2,0,0,0,1.93-1.26l.07-.14h1.41l-.11.33a3.46,3.46,0,0,1-1.3,1.76,3.64,3.64,0,0,1-2,.66Zm0-6.71a2.88,2.88,0,0,0-2.09.89,3.09,3.09,0,0,0,0,4.44,3,3,0,0,0,2.14.88,3,3,0,0,0,1.74-.57,2.89,2.89,0,0,0,1-1.18h-.38a2.46,2.46,0,0,1-2.3,1.4,2.67,2.67,0,0,1-1.86-.68,2.63,2.63,0,0,1-.9-1.75l0-.27h5.75v-.21a2.75,2.75,0,0,0-.84-2,3.06,3.06,0,0,0-2-1Zm2.79,2.88h-5.49l.06-.3a2.61,2.61,0,0,1,.95-1.61,2.57,2.57,0,0,1,1.76-.6,2.72,2.72,0,0,1,1.74.62,2.85,2.85,0,0,1,.92,1.59Zm-4.86-.5h4.23a2.13,2.13,0,0,0-.68-1,2.05,2.05,0,0,0-1.41-.51,2.08,2.08,0,0,0-1.45.49A2,2,0,0,0,162.25,317.58Z" style="fill:#fff"/><path d="M168.41,323.5v-.85a.69.69,0,0,0,.59-.35,1.75,1.75,0,0,0,.12-.8v-6.38H170v6.54a1.89,1.89,0,0,1-.31,1.24,1.65,1.65,0,0,1-1,.55Zm1.59-9.1h-.88v-1.51H170Z" style="fill:#fff"/><path d="M168.16,323.8v-1.38l.22,0a.45.45,0,0,0,.4-.22,1.54,1.54,0,0,0,.09-.68v-6.63h1.36v6.79a2,2,0,0,1-.38,1.4,1.88,1.88,0,0,1-1.17.64Zm.5-.94v.34a1.47,1.47,0,0,0,.82-.47,1.62,1.62,0,0,0,.25-1.07v-6.29h-.36v6.13a1.88,1.88,0,0,1-.16.93A.92.92,0,0,1,168.66,322.86Zm1.59-8.21h-1.38v-2h1.38Zm-.88-.5h.38v-1h-.38Z" style="fill:#fff"/><path d="M176.47,320.7a3.09,3.09,0,0,1-2.37.95,3.16,3.16,0,0,1-2.26-1,3.38,3.38,0,0,1,.08-4.7,3,3,0,0,1,2.37-1,3.18,3.18,0,0,1,2.26,1,3.36,3.36,0,0,1-.08,4.7Zm-2.36.11a2.18,2.18,0,0,0,1.79-.73,2.5,2.5,0,0,0,.73-1.83,2.56,2.56,0,0,0-.73-1.72,2.2,2.2,0,0,0-1.65-.71,2.29,2.29,0,0,0-1.74.71,2.39,2.39,0,0,0-.72,1.73,2.49,2.49,0,0,0,.66,1.77A2.26,2.26,0,0,0,174.11,320.81Z" style="fill:#e78f25"/><path d="M174.23,321.9h-.14a3.38,3.38,0,0,1-2.43-1.09,3.62,3.62,0,0,1,.09-5.05,3.27,3.27,0,0,1,2.55-1,3.39,3.39,0,0,1,2.43,1.1,3.6,3.6,0,0,1-.08,5A3.35,3.35,0,0,1,174.23,321.9Zm-.06-6.68a2.82,2.82,0,0,0-2.07.89,3.06,3.06,0,0,0-.92,2.22,3,3,0,0,0,.85,2.14,2.92,2.92,0,0,0,2.08.93,2.87,2.87,0,0,0,2.18-.88,3,3,0,0,0,.93-2.2,3.05,3.05,0,0,0-.85-2.14,2.9,2.9,0,0,0-2.09-.95Zm.07,5.84h-.14a2.55,2.55,0,0,1-1.84-.87,2.73,2.73,0,0,1-.72-1.93,2.7,2.7,0,0,1,2.71-2.69,2.43,2.43,0,0,1,1.83.79,2.82,2.82,0,0,1,.8,1.88,2.71,2.71,0,0,1-.8,2A2.42,2.42,0,0,1,174.24,321.06Zm0-5a2.07,2.07,0,0,0-1.52.65,2.15,2.15,0,0,0-.65,1.56,2.2,2.2,0,0,0,.59,1.59,2,2,0,0,0,1.49.7h0a2,2,0,0,0,1.6-.65,2.25,2.25,0,0,0,.66-1.66,2.32,2.32,0,0,0-.66-1.55A1.92,1.92,0,0,0,174.21,316.06Z" style="fill:#e78f25"/><path d="M179.16,321.5h-.9v-6.37h.79V316a1.85,1.85,0,0,1,.8-.79,2,2,0,0,1,1-.24v.85a1.56,1.56,0,0,0-1,.32,2.33,2.33,0,0,0-.5.53,1.85,1.85,0,0,0-.21,1Z" style="fill:#fff"/><path d="M179.41,321.75H178v-6.87h1.29v.44a2.16,2.16,0,0,1,.43-.29,2.12,2.12,0,0,1,1.11-.27h.24v1.33h-.24a1.29,1.29,0,0,0-.81.27,2.08,2.08,0,0,0-.45.46,1.66,1.66,0,0,0-.17.85Zm-.9-.5h.4v-3.56a2.23,2.23,0,0,1,.24-1.11,2.69,2.69,0,0,1,.56-.59,1.7,1.7,0,0,1,.87-.36v-.36a1.87,1.87,0,0,0-.62.2,1.59,1.59,0,0,0-.68.68l-.48.92v-1.69h-.29Z" style="fill:#fff"/><path d="M187.91,323.73h-.83v-5.41a3.27,3.27,0,0,1,1-2.37,3.22,3.22,0,0,1,4.63,0,3.28,3.28,0,0,1,.93,2.32,3.33,3.33,0,0,1-1,2.4,3.09,3.09,0,0,1-2.37,1,3.23,3.23,0,0,1-2.35-1.13Zm2.53-7.9a2.23,2.23,0,0,0-1.8.72,2.53,2.53,0,0,0-.71,1.83,2.5,2.5,0,0,0,.71,1.72,2.24,2.24,0,0,0,1.68.72,2.34,2.34,0,0,0,1.72-.72,2.41,2.41,0,0,0,.74-1.73,2.48,2.48,0,0,0-.67-1.75A2.29,2.29,0,0,0,190.44,315.83Z" style="fill:#fff"/><path d="M188.16,324h-1.33v-5.62a3.52,3.52,0,0,1,1.07-2.59,3.46,3.46,0,0,1,5,.05,3.61,3.61,0,0,1-.07,5.06,3.4,3.4,0,0,1-2.56,1,3.44,3.44,0,0,1-2.09-.79Zm-.83-.5h.33v-3.61l.43.49a2.94,2.94,0,0,0,2.18,1.05,2.85,2.85,0,0,0,2.19-.88,3.08,3.08,0,0,0,.92-2.22,3,3,0,0,0-.86-2.14,2.8,2.8,0,0,0-2.07-.93,2.85,2.85,0,0,0-2.2.89,3,3,0,0,0-.92,2.19Zm3-2.41a2.5,2.5,0,0,1-1.86-.79,2.77,2.77,0,0,1-.78-1.89,2.8,2.8,0,0,1,.78-2,2.51,2.51,0,0,1,2-.8,2.53,2.53,0,0,1,1.84.87,2.75,2.75,0,0,1-.07,3.83A2.62,2.62,0,0,1,190.32,321.07Zm0-5a2,2,0,0,0-1.48.66,2.23,2.23,0,0,0-.65,1.65,2.18,2.18,0,0,0,.65,1.55,1.94,1.94,0,0,0,1.49.64,2.08,2.08,0,0,0,1.54-.64,2.25,2.25,0,0,0,.06-3.14,2,2,0,0,0-1.49-.71h-.12Z" style="fill:#fff"/><path d="M195.27,321.5h-.89v-6.37h.79V316a1.85,1.85,0,0,1,.8-.79,1.92,1.92,0,0,1,1-.24v.85a1.54,1.54,0,0,0-1,.32,2.12,2.12,0,0,0-.5.53,1.85,1.85,0,0,0-.22,1Z" style="fill:#fff"/><path d="M195.52,321.75h-1.39v-6.87h1.29v.44a2.36,2.36,0,0,1,1.54-.56h.24v1.33H197a1.29,1.29,0,0,0-.81.27,1.85,1.85,0,0,0-.45.46,1.65,1.65,0,0,0-.18.85Zm-.89-.5H195v-3.56a2.12,2.12,0,0,1,.25-1.11,2.69,2.69,0,0,1,.56-.59,1.7,1.7,0,0,1,.87-.36v-.36a1.87,1.87,0,0,0-.62.2,1.54,1.54,0,0,0-.68.68l-.48.92v-1.69h-.29Z" style="fill:#fff"/><path d="M203.15,320.7a3.1,3.1,0,0,1-2.37.95,3.16,3.16,0,0,1-2.26-1,3.38,3.38,0,0,1,.08-4.7,3,3,0,0,1,2.37-1,3.14,3.14,0,0,1,2.25,1,3.35,3.35,0,0,1-.07,4.7Zm-2.36.11a2.21,2.21,0,0,0,1.79-.73,2.55,2.55,0,0,0,0-3.55,2.2,2.2,0,0,0-1.66-.71,2.27,2.27,0,0,0-1.73.71,2.39,2.39,0,0,0-.72,1.73,2.49,2.49,0,0,0,.66,1.77A2.24,2.24,0,0,0,200.79,320.81Z" style="fill:#fff"/><path d="M200.91,321.9h-.14a3.38,3.38,0,0,1-2.43-1.09,3.5,3.5,0,0,1-1-2.48,3.54,3.54,0,0,1,1.06-2.57,3.27,3.27,0,0,1,2.56-1,3.39,3.39,0,0,1,2.43,1.1,3.52,3.52,0,0,1,1,2.49,3.47,3.47,0,0,1-1.08,2.55A3.32,3.32,0,0,1,200.91,321.9Zm-.07-6.68a2.8,2.8,0,0,0-2.06.89,3.06,3.06,0,0,0-.92,2.22,3,3,0,0,0,2.93,3.07,2.87,2.87,0,0,0,2.18-.88,3,3,0,0,0,.93-2.2,3,3,0,0,0-.86-2.14,2.9,2.9,0,0,0-2.08-.95Zm.08,5.84h-.14a2.55,2.55,0,0,1-1.84-.87,2.68,2.68,0,0,1-.72-1.93,2.7,2.7,0,0,1,2.71-2.69,2.43,2.43,0,0,1,1.83.79,2.76,2.76,0,0,1,.79,1.88,2.66,2.66,0,0,1-.79,2A2.42,2.42,0,0,1,200.92,321.06Zm0-5a2.07,2.07,0,0,0-1.51.65,2.15,2.15,0,0,0-.65,1.56,2.2,2.2,0,0,0,.59,1.59,2,2,0,0,0,1.49.7h0a2,2,0,0,0,1.59-.65,2.21,2.21,0,0,0,.66-1.66,2.27,2.27,0,0,0-.65-1.55A1.94,1.94,0,0,0,200.88,316.06Z" style="fill:#fff"/><path d="M208.5,321.5h-.88L205,315.13h.89l2.17,5.25,2.15-5.25h.94Z" style="fill:#fff"/><path d="M208.67,321.75h-1.22l-2.82-6.87h1.44l2,4.85,2-4.85h1.49Zm-.88-.5h.55l2.45-5.87h-.4L208.07,321l-2.34-5.66h-.35Z" style="fill:#fff"/><path d="M218.3,319.41a3.19,3.19,0,0,1-1.2,1.63,3.24,3.24,0,0,1-1.89.62,3.16,3.16,0,0,1-2.31-1,3.22,3.22,0,0,1-1-2.34,3.19,3.19,0,0,1,1-2.45,3.11,3.11,0,0,1,2.46-1,3.37,3.37,0,0,1,2.22,1.05,3.07,3.07,0,0,1,.9,2.15v.46h-5.72a2.36,2.36,0,0,0,.82,1.58,2.42,2.42,0,0,0,1.68.62,2.26,2.26,0,0,0,2.16-1.4Zm-.68-1.58a2.5,2.5,0,0,0-.83-1.45,2.47,2.47,0,0,0-1.58-.56,2.38,2.38,0,0,0-1.61.54,2.46,2.46,0,0,0-.86,1.47Z" style="fill:#fff"/><path d="M215.17,321.91a3.6,3.6,0,0,1-2.47-6.17,3.33,3.33,0,0,1,2.66-1,3.56,3.56,0,0,1,2.38,1.12,3.32,3.32,0,0,1,1,2.32v.71H213a2.07,2.07,0,0,0,.68,1.14,2.16,2.16,0,0,0,1.52.56,2,2,0,0,0,1.93-1.26l.07-.14h1.42l-.12.33a3.46,3.46,0,0,1-1.3,1.76,3.64,3.64,0,0,1-2,.66Zm0-6.71a2.88,2.88,0,0,0-2.09.89,3.09,3.09,0,0,0,0,4.44,3,3,0,0,0,2.14.88,3,3,0,0,0,1.74-.57,2.89,2.89,0,0,0,1-1.18h-.38a2.46,2.46,0,0,1-2.3,1.4,2.68,2.68,0,0,1-1.86-.68,2.63,2.63,0,0,1-.9-1.75l0-.27h5.75v-.21a2.77,2.77,0,0,0-.83-2,3.11,3.11,0,0,0-2-1Zm2.79,2.88h-5.49l.06-.3a2.61,2.61,0,0,1,.95-1.61,2.58,2.58,0,0,1,1.76-.6,2.72,2.72,0,0,1,1.74.62,2.85,2.85,0,0,1,.92,1.59Zm-4.86-.5h4.23a2.2,2.2,0,0,0-2.09-1.51h-.05a2.18,2.18,0,0,0-1.4.5A2,2,0,0,0,213.07,317.58Z" style="fill:#fff"/><path d="M225.65,319.41a3.32,3.32,0,0,1-3.09,2.25,3.16,3.16,0,0,1-2.32-1,3.21,3.21,0,0,1-1-2.34,3.18,3.18,0,0,1,1-2.45,3.12,3.12,0,0,1,2.47-1A3.32,3.32,0,0,1,224.9,316a3.09,3.09,0,0,1,.91,2.15v.46h-5.72a2.31,2.31,0,0,0,.81,1.58,2.42,2.42,0,0,0,1.69.62,2.27,2.27,0,0,0,2.16-1.4Zm-.68-1.58a2.43,2.43,0,0,0-2.41-2,2.36,2.36,0,0,0-1.61.54,2.41,2.41,0,0,0-.86,1.47Z" style="fill:#fff"/><path d="M222.51,321.91a3.45,3.45,0,0,1-2.44-1,3.49,3.49,0,0,1-1.1-2.51,3.44,3.44,0,0,1,1.07-2.64,3.34,3.34,0,0,1,2.66-1,3.52,3.52,0,0,1,2.38,1.12,3.28,3.28,0,0,1,1,2.32v.71h-5.68a2,2,0,0,0,.69,1.14,2.14,2.14,0,0,0,1.51.56,2,2,0,0,0,1.94-1.26l.07-.14H226l-.11.33a3.51,3.51,0,0,1-1.3,1.76,3.69,3.69,0,0,1-2,.66Zm0-6.71a2.86,2.86,0,0,0-2.08.89,3.09,3.09,0,0,0,0,4.44,2.91,2.91,0,0,0,2.13.88,3,3,0,0,0,1.75-.57,3,3,0,0,0,1-1.18h-.38a2.48,2.48,0,0,1-2.31,1.4,2.63,2.63,0,0,1-1.85-.68,2.58,2.58,0,0,1-.9-1.75l0-.27h5.75v-.21a2.79,2.79,0,0,0-.84-2,3.07,3.07,0,0,0-2.05-1Zm2.79,2.88h-5.49l.06-.3a2.71,2.71,0,0,1,.95-1.61,2.56,2.56,0,0,1,1.77-.6,2.69,2.69,0,0,1,1.73.62,2.74,2.74,0,0,1,.92,1.59Zm-4.86-.5h4.23a2.14,2.14,0,0,0-.67-1,2.22,2.22,0,0,0-3.56,1Z" style="fill:#fff"/><path d="M233.23,318.35a3.11,3.11,0,0,1-1,2.38,3.19,3.19,0,0,1-2.39.95,3.09,3.09,0,0,1-2.26-1,3.23,3.23,0,0,1-.92-2.31,3.27,3.27,0,0,1,1-2.39,3.05,3.05,0,0,1,2.36-1,3.12,3.12,0,0,1,2.35,1.13v-3.21h.84Zm-3.36,2.49a2.18,2.18,0,0,0,1.78-.73,2.4,2.4,0,0,0,.72-1.83,2.46,2.46,0,0,0-.72-1.72,2.17,2.17,0,0,0-1.66-.71,2.32,2.32,0,0,0-1.73.71,2.4,2.4,0,0,0-.73,1.73,2.48,2.48,0,0,0,.67,1.77A2.28,2.28,0,0,0,229.87,320.84Z" style="fill:#fff"/><path d="M230,321.93h-.13a3.39,3.39,0,0,1-2.43-1.08,3.49,3.49,0,0,1-1-2.49,3.53,3.53,0,0,1,1.07-2.57,3.43,3.43,0,0,1,4.64-.24v-2.87h1.34v5.67a3.55,3.55,0,0,1-3.5,3.58Zm-.06-6.67a2.8,2.8,0,0,0-2.06.89,3.1,3.1,0,0,0-.08,4.35,2.84,2.84,0,0,0,2.08.93,2.92,2.92,0,0,0,2.21-.88,2.85,2.85,0,0,0,.91-2.19v-5.18h-.34v3.62l-.44-.5a2.86,2.86,0,0,0-2.16-1Zm.07,5.83h-.13a2.51,2.51,0,0,1-1.84-.86,2.74,2.74,0,0,1-.74-1.94,2.64,2.64,0,0,1,.8-1.9,2.56,2.56,0,0,1,1.91-.79,2.44,2.44,0,0,1,1.84.79,2.8,2.8,0,0,1,0,3.9A2.45,2.45,0,0,1,230,321.09Zm0-5a2.08,2.08,0,0,0-1.52.64,2.19,2.19,0,0,0-.65,1.56,2.25,2.25,0,0,0,.61,1.59,2,2,0,0,0,1.49.7h0a2,2,0,0,0,1.59-.65,2.16,2.16,0,0,0,.65-1.65,2.18,2.18,0,0,0-.65-1.55A1.94,1.94,0,0,0,230,316.1Z" style="fill:#fff"/><path d="M239.67,320.7a3.09,3.09,0,0,1-2.37.95,3.16,3.16,0,0,1-2.26-1,3.38,3.38,0,0,1,.08-4.7,3,3,0,0,1,2.37-1,3.18,3.18,0,0,1,2.26,1,3.36,3.36,0,0,1-.08,4.7Zm-2.36.11a2.18,2.18,0,0,0,1.79-.73,2.5,2.5,0,0,0,.73-1.83,2.56,2.56,0,0,0-.73-1.72,2.2,2.2,0,0,0-1.65-.71,2.29,2.29,0,0,0-1.74.71,2.39,2.39,0,0,0-.72,1.73,2.49,2.49,0,0,0,.66,1.77A2.26,2.26,0,0,0,237.31,320.81Z" style="fill:#0b9a96"/><path d="M237.43,321.9h-.14a3.38,3.38,0,0,1-2.43-1.09,3.62,3.62,0,0,1,.09-5.05,3.27,3.27,0,0,1,2.55-1,3.39,3.39,0,0,1,2.43,1.1,3.6,3.6,0,0,1-.08,5A3.34,3.34,0,0,1,237.43,321.9Zm-.06-6.68a2.82,2.82,0,0,0-2.07.89,3.06,3.06,0,0,0-.92,2.22,3,3,0,0,0,.85,2.14,2.92,2.92,0,0,0,2.08.93,2.86,2.86,0,0,0,2.18-.88,3,3,0,0,0,.93-2.2,3.05,3.05,0,0,0-.85-2.14,2.9,2.9,0,0,0-2.09-.95Zm.07,5.84h-.14a2.55,2.55,0,0,1-1.84-.87,2.73,2.73,0,0,1-.72-1.93,2.62,2.62,0,0,1,.8-1.91,2.66,2.66,0,0,1,1.91-.78,2.43,2.43,0,0,1,1.83.79,2.82,2.82,0,0,1,.8,1.88,2.71,2.71,0,0,1-.8,2A2.42,2.42,0,0,1,237.44,321.06Zm0-5a2.07,2.07,0,0,0-1.52.65,2.15,2.15,0,0,0-.65,1.56,2.2,2.2,0,0,0,.59,1.59,2,2,0,0,0,1.49.7h0a2,2,0,0,0,1.6-.65,2.25,2.25,0,0,0,.66-1.66,2.32,2.32,0,0,0-.66-1.55A2,2,0,0,0,237.41,316.06Z" style="fill:#0b9a96"/><path d="M242.36,321.5h-.9v-6.37h.79V316a1.85,1.85,0,0,1,.8-.79,2,2,0,0,1,1-.24v.85a1.56,1.56,0,0,0-1,.32,2.33,2.33,0,0,0-.5.53,1.85,1.85,0,0,0-.21,1Z" style="fill:#fff"/><path d="M242.61,321.75h-1.4v-6.87h1.29v.44a2.16,2.16,0,0,1,.43-.29,2.12,2.12,0,0,1,1.11-.27h.24v1.33H244a1.29,1.29,0,0,0-.81.27,2.08,2.08,0,0,0-.45.46,1.66,1.66,0,0,0-.17.85Zm-.9-.5h.4v-3.56a2.23,2.23,0,0,1,.24-1.11,2.69,2.69,0,0,1,.56-.59,1.7,1.7,0,0,1,.87-.36v-.36a1.87,1.87,0,0,0-.62.2,1.59,1.59,0,0,0-.68.68l-.48.92v-1.69h-.29Z" style="fill:#fff"/><path d="M250.27,321.5v-8.6h2.43a2.76,2.76,0,0,1,1.78.6,2,2,0,0,1,.79,1.61,2,2,0,0,1-1,1.79,2.31,2.31,0,0,1,1.39,2.15,2.14,2.14,0,0,1-.79,1.75,2.74,2.74,0,0,1-1.88.7Zm2.46-4.93a1.87,1.87,0,0,0,1.17-.39,1.21,1.21,0,0,0,.51-1,1.29,1.29,0,0,0-.53-1.09,2,2,0,0,0-1.2-.37h-1.52v2.87Zm0,4.12c1.33,0,2.12-.69,2.06-1.71a1.52,1.52,0,0,0-.64-1.24,2.49,2.49,0,0,0-1.47-.38h-1.52v3.33Z" style="fill:#fff"/><path d="M253,321.75h-3v-9.1h2.68a3,3,0,0,1,1.94.66,2.21,2.21,0,0,1,.88,1.8,2.25,2.25,0,0,1-.77,1.76,2.57,2.57,0,0,1,1.18,2.18,2.37,2.37,0,0,1-.87,1.93A3,3,0,0,1,253,321.75Zm-2.49-.5H253a2.53,2.53,0,0,0,1.72-.64,1.89,1.89,0,0,0,.7-1.55,2.07,2.07,0,0,0-1.25-1.94l-.4-.19.38-.24a1.76,1.76,0,0,0,.86-1.58,1.73,1.73,0,0,0-.7-1.41,2.48,2.48,0,0,0-1.62-.55h-2.18Zm2.21-.31h-1.82v-3.83h1.77a2.71,2.71,0,0,1,1.61.42A1.78,1.78,0,0,1,255,319a1.73,1.73,0,0,1-.45,1.31A2.53,2.53,0,0,1,252.73,320.94Zm-1.32-.5h1.32a2.06,2.06,0,0,0,1.49-.51,1.19,1.19,0,0,0,.32-.94,1.28,1.28,0,0,0-.54-1.05,2.28,2.28,0,0,0-1.32-.33h-1.27Zm1.32-3.62h-1.82v-3.37h1.77a2.15,2.15,0,0,1,1.35.42,1.54,1.54,0,0,1,.63,1.29,1.46,1.46,0,0,1-.61,1.22A2.08,2.08,0,0,1,252.73,316.82Zm-1.32-.5h1.32a1.66,1.66,0,0,0,1-.33,1.08,1.08,0,0,0,0-1.71,1.67,1.67,0,0,0-1-.33h-1.27Z" style="fill:#fff"/><path d="M261.81,321.51h-5.32v-.8l3.93-3.78a2,2,0,0,0,.69-1.56,1.8,1.8,0,0,0-.57-1.24,1.84,1.84,0,0,0-1.26-.52,1.88,1.88,0,0,0-1.33.54,1.68,1.68,0,0,0-.56,1.27v.29h-.85v-.29a2.46,2.46,0,0,1,.82-1.87,2.65,2.65,0,0,1,1.93-.76,2.57,2.57,0,0,1,1.79.69,2.62,2.62,0,0,1,.86,1.7c0,.12,0,.23,0,.35a2.65,2.65,0,0,1-.9,1.94l-3.39,3.25h4.15Z" style="fill:#fff"/><path d="M262.06,321.76h-5.82V320.6l4-3.85a1.7,1.7,0,0,0,.61-1.37,1.61,1.61,0,0,0-1.59-1.52,1.64,1.64,0,0,0-1.15.47,1.45,1.45,0,0,0-.48,1.09V316h-1.35v-.54a2.69,2.69,0,0,1,.9-2.05,2.93,2.93,0,0,1,2.1-.83,2.92,2.92,0,0,1,2.9,2.61c0,.14,0,.26,0,.38a2.94,2.94,0,0,1-1,2.12l-3,2.82h3.78Zm-5.32-.5h4.82V321H257l3.84-3.68a2.42,2.42,0,0,0,.82-1.76c0-.11,0-.21,0-.33a2.43,2.43,0,0,0-2.4-2.16h0a2.44,2.44,0,0,0-1.72.69,2.21,2.21,0,0,0-.74,1.69v0h.35v0a2,2,0,0,1,.64-1.45,2.13,2.13,0,0,1,1.5-.61,2.12,2.12,0,0,1,2.08,2,2.18,2.18,0,0,1-.77,1.76l-3.85,3.7Z" style="fill:#fff"/><path d="M262.66,321.5v-8.6h2.43a2.76,2.76,0,0,1,1.78.6,2.08,2.08,0,0,1-.19,3.4,2.31,2.31,0,0,1,1.39,2.15,2.14,2.14,0,0,1-.79,1.75,2.74,2.74,0,0,1-1.88.7Zm2.46-4.93a1.87,1.87,0,0,0,1.17-.39,1.21,1.21,0,0,0,.51-1,1.29,1.29,0,0,0-.53-1.09,2,2,0,0,0-1.2-.37h-1.52v2.87Zm0,4.12c1.33,0,2.12-.69,2.06-1.71a1.52,1.52,0,0,0-.64-1.24,2.49,2.49,0,0,0-1.47-.38h-1.52v3.33Z" style="fill:#fff"/><path d="M265.4,321.75h-3v-9.1h2.68a3,3,0,0,1,1.94.66,2.21,2.21,0,0,1,.88,1.8,2.25,2.25,0,0,1-.77,1.76,2.57,2.57,0,0,1,1.18,2.18,2.37,2.37,0,0,1-.87,1.93A3,3,0,0,1,265.4,321.75Zm-2.49-.5h2.49a2.53,2.53,0,0,0,1.72-.64,1.89,1.89,0,0,0,.7-1.55,2.07,2.07,0,0,0-1.25-1.94l-.41-.19.38-.24a1.75,1.75,0,0,0,.87-1.58,1.73,1.73,0,0,0-.7-1.41,2.48,2.48,0,0,0-1.62-.55h-2.18Zm2.21-.31H263.3v-3.83h1.77a2.71,2.71,0,0,1,1.61.42,1.78,1.78,0,0,1,.75,1.43,1.73,1.73,0,0,1-.45,1.31A2.53,2.53,0,0,1,265.12,320.94Zm-1.32-.5h1.32a2.06,2.06,0,0,0,1.49-.51,1.19,1.19,0,0,0,.32-.94,1.28,1.28,0,0,0-.54-1.05,2.28,2.28,0,0,0-1.32-.33H263.8Zm1.32-3.62H263.3v-3.37h1.77a2.15,2.15,0,0,1,1.35.42,1.54,1.54,0,0,1,.63,1.29,1.46,1.46,0,0,1-.61,1.22A2.08,2.08,0,0,1,265.12,316.82Zm-1.32-.5h1.32a1.66,1.66,0,0,0,1-.33,1.08,1.08,0,0,0,0-1.71,1.67,1.67,0,0,0-1.05-.33H263.8Z" style="fill:#fff"/><circle cx="135.83" cy="125" r="125" style="fill:#b33d90"/><path d="M141.73,59.31l-75,19.57,32.74,34.31-1.16,62.1-4.25,13.06,59.63,60.38s34.89-3.18,65.14-30.26c33.55-30,39.31-67.51,39.31-67.51L213,104,176.45,93.81Z" style="fill:#8e126d;fill-rule:evenodd"/><circle cx="135.41" cy="124.88" r="95" style="fill:none"/><path d="M66.72,59.31h75V78.88H114.25V188.35H94.05V78.88H66.72" style="fill:#fff"/><path d="M203.29,125.84l-1.19-2.06c-6-10.38-14.95-15.56-27.37-15.85-8.19-.17-15.35,2.75-21.93,8.95-6.87,6.4-10.19,13.7-10.19,22.34a29.66,29.66,0,0,0,9.45,22.16,30.15,30.15,0,0,0,22.41,9.13c12.56-.19,21.68-5,27.87-14.88l1.21-1.93h22.32l-4.13,8.77C211.69,181,196,190.4,175.15,190.4h-.75A51.76,51.76,0,0,1,138,175.59a48.42,48.42,0,0,1-15.57-35.78c-.23-14.08,4.87-26.32,15.14-36.37a52.34,52.34,0,0,1,36.83-15.39,52.92,52.92,0,0,1,28.62,8c8.42,5.24,14.55,12,18.24,20l4.3,9.78" style="fill:#fff"/></g></g></svg>