<svg xmlns="http://www.w3.org/2000/svg" viewBox="0 0 83 83"><defs><style>.cls-1{fill:#b2b7bf;}.cls-2{fill:#fff;}</style></defs><title>rubro_3Recurso 51</title><g id="Capa_2" data-name="Capa 2"><g id="Capa_1-2" data-name="Capa 1"><circle class="cls-1" cx="41.5" cy="41.5" r="41.5"/><path class="cls-2" d="M61.26,35.93,57.31,24.1a3.72,3.72,0,0,0-3.54-2.55h-11v15h18.6A3.88,3.88,0,0,0,61.26,35.93Z"/><path class="cls-2" d="M40.25,21.55h-11a3.75,3.75,0,0,0-3.55,2.55L21.74,35.93a3.88,3.88,0,0,0-.09.58h18.6Z"/><path class="cls-2" d="M21.55,39v18.7a3.73,3.73,0,0,0,3.74,3.74H57.71a3.73,3.73,0,0,0,3.74-3.74V39Zm20,20c-2.8,0-5.11-1.16-5.86-4l3.09-.82a2.63,2.63,0,0,0,2.77,2.22,2.73,2.73,0,0,0,2.86-2.68c0-2.22-2-2.6-3.78-2.6h-.7v-2.6h.75c1.66,0,3.32-.24,3.32-2.32A2.26,2.26,0,0,0,41.57,44,2.66,2.66,0,0,0,39,45.89L36,45.07c.74-2.53,3-3.66,5.47-3.66,2.94,0,5.47,1.54,5.47,4.55A3.86,3.86,0,0,1,44,49.82v0A3.88,3.88,0,0,1,47.31,54C47.31,57.26,44.58,59.05,41.55,59.05Z"/></g></g></svg>