<svg xmlns="http://www.w3.org/2000/svg" viewBox="0 0 83 83"><defs><style>.cls-1{fill:#b2b7bf;}.cls-2{fill:#fff;}</style></defs><title>rubro_2Recurso 50</title><g id="Capa_2" data-name="Capa 2"><g id="Capa_1-2" data-name="Capa 1"><circle class="cls-1" cx="41.5" cy="41.5" r="41.5"/><path class="cls-2" d="M61.26,35.93,57.31,24.1a3.72,3.72,0,0,0-3.54-2.55h-11v15h18.6A3.88,3.88,0,0,0,61.26,35.93Z"/><path class="cls-2" d="M40.25,21.55h-11a3.72,3.72,0,0,0-3.54,2.55l-4,11.83a3.88,3.88,0,0,0-.09.58h18.6Z"/><path class="cls-2" d="M21.55,39v18.7a3.73,3.73,0,0,0,3.74,3.74H57.71a3.73,3.73,0,0,0,3.74-3.74V39ZM47.21,56.3v2.6H35.79V55.84l6.63-6.41c.79-.77,1.75-1.71,1.75-2.89a2.29,2.29,0,0,0-2.48-2.24,2.54,2.54,0,0,0-2.62,2.31l-3-.24c.29-3.15,2.58-4.81,5.66-4.81s5.52,1.56,5.52,4.84c0,2.14-1.11,3.61-2.63,5L39.31,56.3Z"/></g></g></svg>